<svg width="180" height="60" viewBox="0 0 180 60" fill="none" xmlns="http://www.w3.org/2000/svg">
<g clip-path="url(#clip0_29226_1168)">
<path d="M48.1891 49.6557C48.1891 49.8556 48.0081 50 47.8082 50C46.0813 50 44.3784 50 42.6703 50C41.9339 50 41.3369 49.403 41.3369 48.6667C41.3369 42.8875 41.3369 37.1224 41.3369 31.3132C41.3369 31.015 41.6478 30.8181 41.9108 30.9584C43.862 32.0832 45.8132 33.2195 47.7645 34.3329C48.0284 34.4821 48.2006 34.6198 48.2006 34.9756C48.1891 39.8651 48.1891 44.7547 48.1891 49.6557Z" fill="#7B7B7B"/>
<path d="M40.5566 27.0509C40.5566 28.0779 39.4441 28.7196 38.5549 28.2058C36.9926 27.303 35.4576 26.4162 33.9339 25.5294C33.8191 25.4605 33.7158 25.2654 33.7158 25.1277C33.7158 20.1234 33.7158 15.1191 33.7273 10.1148C33.7273 10.0495 33.8058 10.0115 33.871 10.0115C35.646 10.0115 37.4281 10.0115 39.2232 10.0115C39.9596 10.0115 40.5566 10.6084 40.5566 11.3448C40.5566 16.5644 40.5566 21.7752 40.5566 27.0509Z" fill="#7B7B7B"/>
<path d="M43.3036 28.2184C42.4145 28.7318 41.3018 28.0903 41.3011 27.0635C41.2999 25.2728 41.3014 23.5274 41.3256 21.7877C41.3256 21.5811 41.5666 21.2941 41.7732 21.1679C45.5379 18.9756 49.3141 16.8063 53.0788 14.6256C53.2316 14.5373 53.3833 14.449 53.5362 14.3602C54.1655 13.9943 54.9678 14.2122 55.3325 14.8423C56.0365 16.0587 56.7368 17.2758 57.4496 18.5098C57.818 19.1476 57.6007 19.9636 56.9631 20.3325C52.4206 22.9607 47.8879 25.5708 43.3036 28.2184Z" fill="#7B7B7B"/>
<path d="M27.3685 46.2047C27.2734 46.2344 27.1609 46.1963 27.111 46.1101C26.2226 44.5753 25.3406 43.0465 24.4429 41.4907C24.0748 40.8528 24.2935 40.0373 24.9314 39.6692C29.8323 36.8411 34.7217 34.0182 39.677 31.154C40.0832 30.9192 40.5913 31.2123 40.5913 31.6814C40.5913 33.8278 40.6028 35.9627 40.5798 38.109C40.5798 38.3271 40.4421 38.6485 40.2699 38.7403C35.9834 41.2388 31.6854 43.7145 27.3988 46.1902C27.3866 46.1973 27.382 46.2004 27.3685 46.2047Z" fill="#7B7B7B"/>
<path d="M43.6713 31.159C42.7821 30.6463 42.7805 29.3625 43.6683 28.8473C44.5597 28.33 45.4335 27.8231 46.3073 27.32C46.8008 27.033 47.3288 26.792 47.7879 26.4477C48.3274 26.0459 48.7635 26.1263 49.3259 26.4477C53.3661 28.8121 57.4177 31.1421 61.4694 33.4835C61.7123 33.6381 61.7918 33.9566 61.6481 34.206C60.8161 35.6503 59.9832 37.0908 59.1404 38.5499C58.7721 39.1875 57.9567 39.4062 57.319 39.0381C52.7779 36.417 48.2534 33.801 43.6713 31.159Z" fill="#7B7B7B"/>
<path d="M38.2296 28.851C39.117 29.3646 39.1166 30.6463 38.2291 31.1597C36.6581 32.0685 35.1239 32.9539 33.5783 33.8278C33.4521 33.8967 33.1996 33.8852 33.0618 33.8049C28.7577 31.3372 24.4535 28.8465 20.1608 26.3558C20.0447 26.2977 20.0454 26.1284 20.1104 26.0161C20.9901 24.4963 21.8637 22.982 22.7527 21.4413C23.1213 20.8026 23.9384 20.5844 24.5765 20.9542C29.1269 23.591 33.6532 26.2027 38.2296 28.851Z" fill="#7B7B7B"/>
</g>
<path d="M154.521 39.5336C153.479 39.5336 152.598 39.3378 151.877 38.9462C151.157 38.5457 150.609 38.0161 150.235 37.3575C149.87 36.6989 149.688 35.9735 149.688 35.1814C149.688 34.4872 149.804 33.8642 150.035 33.3124C150.266 32.7517 150.622 32.2711 151.103 31.8706C151.584 31.4611 152.207 31.1274 152.972 30.8693C153.551 30.6824 154.227 30.5133 155.001 30.362C155.785 30.2107 156.63 30.0727 157.538 29.9481C158.455 29.8146 159.411 29.6722 160.408 29.5209L159.26 30.1751C159.269 29.1783 159.046 28.444 158.593 27.9723C158.139 27.5006 157.373 27.2647 156.296 27.2647C155.647 27.2647 155.019 27.416 154.414 27.7186C153.809 28.0212 153.386 28.5419 153.146 29.2806L150.209 28.3594C150.565 27.1401 151.241 26.1611 152.238 25.4224C153.244 24.6837 154.596 24.3143 156.296 24.3143C157.578 24.3143 158.704 24.5235 159.674 24.9418C160.653 25.3601 161.378 26.0454 161.85 26.9977C162.108 27.505 162.264 28.0257 162.317 28.5597C162.371 29.0848 162.397 29.6589 162.397 30.2819V39.1331H159.58V36.0091L160.048 36.5164C159.398 37.5577 158.637 38.3232 157.765 38.8127C156.902 39.2933 155.82 39.5336 154.521 39.5336ZM155.162 36.9703C155.891 36.9703 156.514 36.8413 157.031 36.5832C157.547 36.3251 157.956 36.0091 158.259 35.6353C158.57 35.2615 158.779 34.9099 158.886 34.5806C159.055 34.1712 159.149 33.704 159.167 33.1789C159.193 32.6449 159.207 32.2132 159.207 31.8839L160.195 32.1776C159.224 32.3289 158.392 32.4624 157.698 32.5781C157.004 32.6938 156.408 32.8051 155.909 32.9119C155.411 33.0098 154.97 33.121 154.588 33.2456C154.214 33.3791 153.898 33.5349 153.64 33.7129C153.382 33.8909 153.181 34.0956 153.039 34.327C152.905 34.5584 152.839 34.8298 152.839 35.1414C152.839 35.4974 152.928 35.8133 153.106 36.0892C153.284 36.3562 153.542 36.5698 153.88 36.73C154.227 36.8902 154.654 36.9703 155.162 36.9703Z" fill="#7B7B7B"/>
<path d="M143.79 39.1331V30.3753C143.79 29.3874 143.545 28.6175 143.055 28.0657C142.566 27.505 141.903 27.2247 141.066 27.2247C140.55 27.2247 140.087 27.3448 139.678 27.5851C139.268 27.8165 138.944 28.1636 138.703 28.6264C138.463 29.0803 138.343 29.6233 138.343 30.2552L136.914 29.4141C136.905 28.4173 137.128 27.5406 137.582 26.7841C138.045 26.0187 138.668 25.4224 139.451 24.9952C140.234 24.568 141.106 24.3544 142.068 24.3544C143.661 24.3544 144.88 24.835 145.725 25.7962C146.58 26.7485 147.007 28.0034 147.007 29.561V39.1331H143.79ZM126.448 39.1331V24.7148H129.291V29.1871H129.692V39.1331H126.448ZM135.139 39.1331V30.4154C135.139 29.4096 134.894 28.6264 134.404 28.0657C133.915 27.505 133.247 27.2247 132.402 27.2247C131.583 27.2247 130.925 27.505 130.426 28.0657C129.937 28.6264 129.692 29.3562 129.692 30.2552L128.25 29.2939C128.25 28.3594 128.481 27.5184 128.944 26.7708C129.407 26.0231 130.03 25.4357 130.813 25.0085C131.605 24.5724 132.491 24.3544 133.47 24.3544C134.547 24.3544 135.446 24.5858 136.167 25.0486C136.897 25.5025 137.439 26.1255 137.795 26.9176C138.16 27.7008 138.343 28.5864 138.343 29.5743V39.1331H135.139Z" fill="#7B7B7B"/>
<path d="M116.082 45.9417C115.281 45.9417 114.511 45.8171 113.773 45.5679C113.043 45.3187 112.384 44.9582 111.797 44.4865C111.209 44.0237 110.729 43.463 110.355 42.8044L113.319 41.3358C113.595 41.861 113.982 42.2481 114.48 42.4973C114.988 42.7554 115.526 42.8845 116.096 42.8845C116.763 42.8845 117.359 42.7643 117.885 42.524C118.41 42.2926 118.815 41.9455 119.099 41.4827C119.393 41.0288 119.531 40.4592 119.513 39.7739V35.6754H119.914V24.7148H122.731V39.8273C122.731 40.1922 122.713 40.5393 122.677 40.8686C122.651 41.2068 122.602 41.5361 122.53 41.8565C122.317 42.791 121.907 43.5564 121.302 44.1527C120.697 44.758 119.945 45.2074 119.046 45.5011C118.156 45.7948 117.168 45.9417 116.082 45.9417ZM115.802 39.5336C114.476 39.5336 113.319 39.1998 112.331 38.5323C111.343 37.8648 110.577 36.957 110.035 35.8089C109.492 34.6607 109.22 33.3658 109.22 31.924C109.22 30.4643 109.492 29.1649 110.035 28.0257C110.586 26.8776 111.365 25.9742 112.371 25.3156C113.377 24.6481 114.56 24.3143 115.922 24.3143C117.293 24.3143 118.441 24.6481 119.366 25.3156C120.301 25.9742 121.008 26.8776 121.489 28.0257C121.97 29.1738 122.21 30.4732 122.21 31.924C122.21 33.3569 121.97 34.6518 121.489 35.8089C121.008 36.957 120.292 37.8648 119.34 38.5323C118.387 39.1998 117.208 39.5336 115.802 39.5336ZM116.296 36.6499C117.159 36.6499 117.853 36.4541 118.378 36.0625C118.912 35.662 119.3 35.1058 119.54 34.3937C119.789 33.6817 119.914 32.8585 119.914 31.924C119.914 30.9805 119.789 30.1573 119.54 29.4542C119.3 28.7422 118.921 28.1903 118.405 27.7987C117.889 27.3982 117.221 27.198 116.403 27.198C115.539 27.198 114.827 27.4116 114.267 27.8388C113.706 28.2571 113.292 28.8267 113.025 29.5476C112.758 30.2596 112.625 31.0517 112.625 31.924C112.625 32.8051 112.754 33.6061 113.012 34.327C113.279 35.039 113.684 35.6042 114.227 36.0225C114.769 36.4408 115.459 36.6499 116.296 36.6499Z" fill="#7B7B7B"/>
<path d="M102.805 22.5253V19.575H106.022V22.5253H102.805ZM102.805 39.133V24.7148H106.022V39.133H102.805Z" fill="#7B7B7B"/>
<path d="M95.7967 39.1331V32.191C95.7967 31.7371 95.7655 31.2342 95.7032 30.6824C95.6409 30.1306 95.4941 29.6011 95.2627 29.0938C95.0402 28.5775 94.702 28.1548 94.248 27.8255C93.803 27.4962 93.1978 27.3315 92.4324 27.3315C92.023 27.3315 91.6181 27.3983 91.2176 27.5318C90.817 27.6653 90.4521 27.8967 90.1228 28.226C89.8024 28.5464 89.5443 28.9914 89.3485 29.561C89.1527 30.1217 89.0548 30.8426 89.0548 31.7237L87.1457 30.9094C87.1457 29.6812 87.3816 28.5686 87.8533 27.5718C88.3339 26.575 89.037 25.7829 89.9626 25.1955C90.8882 24.5992 92.0275 24.301 93.3803 24.301C94.4483 24.301 95.3294 24.479 96.0236 24.835C96.7178 25.191 97.2696 25.6449 97.6791 26.1968C98.0885 26.7486 98.3911 27.336 98.5869 27.959C98.7827 28.582 98.9073 29.1739 98.9607 29.7346C99.023 30.2864 99.0541 30.7358 99.0541 31.0829V39.1331H95.7967ZM85.7974 39.1331V24.7149H88.6677V29.1872H89.0548V39.1331H85.7974Z" fill="#7B7B7B"/>
<path d="M70.2051 39.133V19.9087H82.6208V22.9258H73.4225V27.6652H81.0187V30.6823H73.4225V36.1158H82.6208V39.133H70.2051Z" fill="#7B7B7B"/>
<defs>
<clipPath id="clip0_29226_1168">
<rect width="41.9053" height="40" fill="white" transform="translate(20 10)"/>
</clipPath>
</defs>
</svg>
