<svg width="180" height="60" viewBox="0 0 180 60" fill="none" xmlns="http://www.w3.org/2000/svg">
<g clip-path="url(#clip0_29226_1186)">
<path d="M34.5937 49.8902C34.5177 49.9472 34.4055 49.8777 34.4036 49.7827C34.1435 36.3893 23.8329 24.6103 8.84893 23.9868C8.65251 23.9787 8.53484 23.736 8.67385 23.597C13.111 19.1598 17.5481 14.7227 21.9742 10.2746C22.2268 10.022 22.4465 9.94512 22.787 10.033C34.4619 13.0423 42.8089 19.8408 47.1033 31.2631C47.6415 32.6909 47.96 34.2065 48.3553 35.6892C48.3993 35.854 48.3334 36.1395 48.2126 36.2603C43.6766 40.8073 39.1406 45.3542 34.5937 49.8902Z" fill="#7B7B7B"/>
<path d="M8.53113 30C9.61844 28.8578 10.7058 27.6826 11.848 26.5514C12.0127 26.3866 12.4301 26.3976 12.7047 26.4525C15.1648 26.9138 17.4932 27.7924 19.6898 28.9896C26.3675 32.6689 30.3763 38.3032 31.9468 45.7276C32.0347 46.145 31.9578 46.4306 31.6503 46.7491C30.5959 47.7815 29.5745 48.8578 28.5311 49.9231C28.5092 49.9451 28.4762 49.9561 28.3993 50C28.1687 44.5635 26.4773 39.7309 22.5344 35.8869C18.6135 32.0648 13.8249 30.2746 8.53113 30Z" fill="#7B7B7B"/>
<path d="M22.3367 49.9781C22.0511 40.9391 14.8023 36.1615 8.33337 36.0297C8.5091 35.843 8.61893 35.7002 8.75073 35.5684C9.65133 34.6898 10.5739 33.8221 11.4525 32.9105C11.815 32.5261 12.1554 32.4383 12.6497 32.5811C19.1626 34.4152 23.5118 38.4899 25.6206 44.9589C25.9501 45.9913 25.8842 46.7052 25.0055 47.4191C24.061 48.1769 23.2373 49.0995 22.3367 49.9781Z" fill="#7B7B7B"/>
<path d="M16.318 49.8902C16.0434 45.2883 12.6497 42.3229 8.35535 42.0373C8.47616 41.8945 8.57501 41.7737 8.67385 41.6639C9.61839 40.7413 10.5629 39.8297 11.4965 38.8962C11.7381 38.6436 11.9468 38.6106 12.2653 38.7314C15.9336 40.0604 18.3279 42.6414 19.6788 46.2438C19.7337 46.3756 19.7117 46.6282 19.6239 46.7161C18.5146 47.7924 17.4053 48.8468 16.318 49.8902Z" fill="#7B7B7B"/>
</g>
<path d="M170.871 39.5942V31.3774C170.871 30.4505 170.641 29.7282 170.182 29.2105C169.723 28.6844 169.1 28.4214 168.316 28.4214C167.831 28.4214 167.397 28.5341 167.013 28.7596C166.629 28.9767 166.324 29.3023 166.099 29.7366C165.873 30.1624 165.76 30.6718 165.76 31.2647L164.42 30.4756C164.412 29.5403 164.621 28.7178 165.046 28.008C165.481 27.2899 166.065 26.7304 166.8 26.3296C167.535 25.9288 168.353 25.7284 169.255 25.7284C170.75 25.7284 171.894 26.1793 172.687 27.0812C173.489 27.9746 173.889 29.152 173.889 30.6134V39.5942H170.871ZM154.6 39.5942V26.0666H157.268V30.2626H157.644V39.5942H154.6ZM162.754 39.5942V31.415C162.754 30.4714 162.525 29.7366 162.065 29.2105C161.606 28.6844 160.98 28.4214 160.186 28.4214C159.418 28.4214 158.8 28.6844 158.333 29.2105C157.873 29.7366 157.644 30.4213 157.644 31.2647L156.291 30.3628C156.291 29.4861 156.508 28.6969 156.942 27.9955C157.377 27.2941 157.961 26.743 158.696 26.3421C159.439 25.933 160.27 25.7284 161.189 25.7284C162.199 25.7284 163.042 25.9455 163.719 26.3797C164.403 26.8056 164.913 27.3901 165.247 28.1333C165.589 28.8681 165.76 29.699 165.76 30.6259V39.5942H162.754Z" fill="#7B7B7B"/>
<path d="M144.017 39.9824C143.015 39.9824 142.188 39.8154 141.537 39.4814C140.885 39.1474 140.367 38.7215 139.983 38.2038C139.599 37.686 139.315 37.1349 139.132 36.5504C138.948 35.9659 138.827 35.4148 138.768 34.897C138.718 34.371 138.693 33.9451 138.693 33.6194V26.0665H141.749V32.5798C141.749 32.9973 141.779 33.4691 141.837 33.9952C141.896 34.5129 142.029 35.0139 142.238 35.4983C142.455 35.9742 142.772 36.3667 143.19 36.6757C143.616 36.9846 144.188 37.1391 144.906 37.1391C145.29 37.1391 145.67 37.0765 146.046 36.9512C146.421 36.826 146.76 36.613 147.06 36.3124C147.369 36.0035 147.616 35.5818 147.799 35.0473C147.983 34.5129 148.075 33.8365 148.075 33.0182L149.866 33.7823C149.866 34.9346 149.641 35.9784 149.19 36.9136C148.747 37.8489 148.092 38.5962 147.223 39.1557C146.355 39.7068 145.286 39.9824 144.017 39.9824ZM148.438 39.5941V35.3981H148.075V26.0665H151.106V39.5941H148.438Z" fill="#7B7B7B"/>
<path d="M128.938 39.5941V26.0666H131.606V29.3608L131.28 28.9349C131.447 28.484 131.669 28.0748 131.944 27.7074C132.228 27.3316 132.566 27.0227 132.959 26.7805C133.293 26.5551 133.66 26.3797 134.061 26.2544C134.47 26.1208 134.888 26.0415 135.313 26.0165C135.739 25.9831 136.153 25.9998 136.554 26.0666V28.8848C136.153 28.7679 135.689 28.7303 135.163 28.7721C134.645 28.8138 134.178 28.96 133.76 29.2105C133.343 29.4359 133 29.724 132.733 30.0747C132.474 30.4254 132.282 30.8263 132.157 31.2772C132.032 31.7197 131.969 32.1999 131.969 32.7176V39.5941H128.938Z" fill="#7B7B7B"/>
<path d="M126.029 39.5942C125.136 39.7612 124.259 39.8322 123.399 39.8071C122.547 39.7904 121.783 39.6359 121.107 39.3437C120.43 39.0431 119.917 38.5713 119.566 37.9283C119.257 37.3438 119.094 36.7467 119.077 36.1371C119.061 35.5276 119.052 34.8387 119.052 34.0704V22.309H122.059V33.8951C122.059 34.4379 122.063 34.9138 122.071 35.323C122.088 35.7322 122.175 36.0662 122.334 36.325C122.635 36.8261 123.115 37.1058 123.775 37.1642C124.434 37.2227 125.186 37.1893 126.029 37.064V39.5942ZM116.597 28.4339V26.0666H126.029V28.4339H116.597Z" fill="#7B7B7B"/>
<path d="M109.566 39.9699C108.171 39.9699 106.981 39.6609 105.996 39.043C105.011 38.4167 104.255 37.565 103.729 36.4878C103.211 35.4106 102.948 34.1915 102.94 32.8303C102.948 31.4442 103.219 30.2167 103.754 29.1478C104.297 28.0706 105.065 27.2273 106.059 26.6177C107.052 25.9998 108.234 25.6908 109.603 25.6908C111.14 25.6908 112.438 26.0791 113.499 26.8557C114.568 27.6239 115.265 28.676 115.59 30.0121L112.584 30.8263C112.351 30.0998 111.962 29.5361 111.419 29.1353C110.877 28.7261 110.259 28.5216 109.566 28.5216C108.781 28.5216 108.134 28.7094 107.624 29.0852C107.115 29.4526 106.739 29.962 106.497 30.6133C106.255 31.2647 106.134 32.0037 106.134 32.8303C106.134 34.1163 106.422 35.1559 106.998 35.9492C107.574 36.7425 108.43 37.1391 109.566 37.1391C110.367 37.1391 110.998 36.9554 111.457 36.588C111.925 36.2206 112.275 35.6903 112.509 34.9973L115.59 35.6862C115.173 37.064 114.442 38.1245 113.399 38.8677C112.355 39.6025 111.077 39.9699 109.566 39.9699Z" fill="#7B7B7B"/>
<path d="M94.7714 39.9699C93.402 39.9699 92.1995 39.6735 91.1641 39.0806C90.1286 38.4877 89.3187 37.6652 88.7341 36.6131C88.158 35.5609 87.8699 34.3501 87.8699 32.9807C87.8699 31.5026 88.1538 30.2209 88.7216 29.1353C89.2894 28.0414 90.0785 27.1939 91.0889 26.5926C92.0993 25.9914 93.2684 25.6908 94.5961 25.6908C95.9989 25.6908 97.1889 26.0206 98.1659 26.6803C99.1512 27.3316 99.8819 28.2544 100.358 29.4485C100.834 30.6426 101.013 32.0496 100.896 33.6696H97.9028V32.5673C97.8945 31.0977 97.6356 30.0246 97.1262 29.3483C96.6169 28.6719 95.8152 28.3337 94.7213 28.3337C93.4855 28.3337 92.567 28.7178 91.9657 29.486C91.3645 30.2459 91.0639 31.3607 91.0639 32.8303C91.0639 34.1998 91.3645 35.2603 91.9657 36.0118C92.567 36.7634 93.4437 37.1391 94.5961 37.1391C95.3393 37.1391 95.9781 36.9763 96.5125 36.6506C97.0553 36.3166 97.4728 35.8365 97.765 35.2102L100.746 36.112C100.228 37.3312 99.4268 38.279 98.3412 38.9553C97.264 39.6317 96.0741 39.9699 94.7714 39.9699ZM90.1119 33.6696V31.3899H99.4184V33.6696H90.1119Z" fill="#7B7B7B"/>
<path d="M79.6855 39.9699C78.3661 39.9699 77.2597 39.6568 76.3662 39.0305C75.4727 38.4042 74.8005 37.5525 74.3496 36.4753C73.8987 35.3897 73.6732 34.1748 73.6732 32.8303C73.6732 31.4692 73.8987 30.2501 74.3496 29.1729C74.8005 28.0957 75.4602 27.2481 76.3286 26.6302C77.2054 26.0039 78.2868 25.6908 79.5727 25.6908C80.8503 25.6908 81.9568 26.0039 82.892 26.6302C83.8356 27.2481 84.5663 28.0957 85.084 29.1729C85.6017 30.2417 85.8606 31.4609 85.8606 32.8303C85.8606 34.1831 85.6059 35.3981 85.0965 36.4753C84.5871 37.5525 83.869 38.4042 82.9421 39.0305C82.0152 39.6568 80.9297 39.9699 79.6855 39.9699ZM73.1597 45.6064V26.0666H75.8276V35.5609H76.2034V45.6064H73.1597ZM79.222 37.2644C80.007 37.2644 80.6541 37.0682 81.1635 36.6757C81.6729 36.2832 82.0486 35.753 82.2908 35.0849C82.5413 34.4086 82.6665 33.657 82.6665 32.8303C82.6665 32.012 82.5413 31.2688 82.2908 30.6008C82.0403 29.9244 81.652 29.39 81.1259 28.9975C80.5998 28.5967 79.9318 28.3963 79.1218 28.3963C78.3536 28.3963 77.7273 28.5842 77.243 28.96C76.7587 29.3274 76.3996 29.8451 76.1658 30.5131C75.9403 31.1728 75.8276 31.9452 75.8276 32.8303C75.8276 33.7071 75.9403 34.4795 76.1658 35.1476C76.3996 35.8156 76.7628 36.3375 77.2555 36.7133C77.7565 37.0807 78.412 37.2644 79.222 37.2644Z" fill="#7B7B7B"/>
<path d="M63.3966 39.9699C62.0773 39.9699 60.8873 39.7403 59.8268 39.281C58.7747 38.8218 57.9063 38.1663 57.2215 37.3145C56.5451 36.4544 56.1151 35.4357 55.9314 34.2583L59.0628 33.7823C59.33 34.8512 59.8769 35.6778 60.7036 36.2624C61.5387 36.8469 62.499 37.1392 63.5845 37.1392C64.2275 37.1392 64.8329 37.039 65.4007 36.8385C65.9685 36.6381 66.4278 36.3459 66.7785 35.9618C67.1376 35.5776 67.3171 35.1059 67.3171 34.5464C67.3171 34.2959 67.2754 34.0662 67.1919 33.8575C67.1083 33.6404 66.9831 33.4483 66.8161 33.2813C66.6574 33.1143 66.4487 32.964 66.1898 32.8304C65.9393 32.6884 65.647 32.5673 65.313 32.4671L60.6535 31.0893C60.2527 30.9724 59.8185 30.8179 59.3509 30.6259C58.8916 30.4255 58.4532 30.1541 58.0357 29.8117C57.6265 29.461 57.2883 29.0184 57.0211 28.484C56.7623 27.9412 56.6328 27.2732 56.6328 26.4799C56.6328 25.3192 56.9251 24.3464 57.5096 23.5615C58.1025 22.7682 58.8958 22.1753 59.8895 21.7829C60.8915 21.3904 62.0021 21.1983 63.2213 21.2067C64.4571 21.215 65.5594 21.428 66.528 21.8455C67.4966 22.2547 68.3066 22.8517 68.958 23.6366C69.6093 24.4216 70.0685 25.3693 70.3358 26.4799L67.0916 27.0436C66.958 26.409 66.6992 25.8704 66.3151 25.4278C65.9393 24.9769 65.4759 24.6345 64.9247 24.4007C64.382 24.1669 63.8016 24.0416 63.1837 24.0249C62.5825 24.0166 62.023 24.1084 61.5053 24.3005C60.9959 24.4842 60.5825 24.7514 60.2652 25.1021C59.9563 25.4528 59.8018 25.862 59.8018 26.3296C59.8018 26.7722 59.9354 27.1354 60.2026 27.4193C60.4698 27.6949 60.7997 27.9162 61.1921 28.0832C61.5929 28.2419 61.9979 28.3755 62.4071 28.484L65.6387 29.3859C66.0813 29.5028 66.5781 29.6614 67.1292 29.8618C67.6803 30.0622 68.2106 30.342 68.72 30.701C69.2293 31.0601 69.6469 31.5319 69.9725 32.1164C70.3065 32.7009 70.4735 33.4441 70.4735 34.346C70.4735 35.2812 70.2773 36.1037 69.8848 36.8135C69.5007 37.5149 68.9788 38.0995 68.3191 38.5671C67.6595 39.0347 66.9038 39.3854 66.052 39.6192C65.2086 39.853 64.3235 39.9699 63.3966 39.9699Z" fill="#7B7B7B"/>
<defs>
<clipPath id="clip0_29226_1186">
<rect width="40.0329" height="40" fill="white" transform="translate(8.33337 10)"/>
</clipPath>
</defs>
</svg>
