<svg width="180" height="60" viewBox="0 0 180 60" fill="none" xmlns="http://www.w3.org/2000/svg">
<g clip-path="url(#clip0_29226_1152)">
<path d="M18.3335 42.8533V50L42.7914 39.0689V31.9221L18.3335 42.8533Z" fill="#7B7B7B"/>
<path d="M18.3335 17.1468V10L42.7914 20.9312V28.0779L18.3335 17.1468Z" fill="#7B7B7B"/>
<path d="M18.3335 28.0814V20.9347L42.7914 31.8658V39.0161L18.3335 28.0814Z" fill="#7B7B7B"/>
</g>
<path d="M150.433 44.3241L153.386 36.2172L153.442 38.6024L146.755 22.1757H150.319L155.061 34.3289H154.152L158.767 22.1757H162.188L153.641 44.3241H150.433Z" fill="#7B7B7B"/>
<path d="M137.365 44.75C136.513 44.75 135.694 44.6175 134.908 44.3525C134.132 44.0875 133.432 43.7041 132.807 43.2025C132.182 42.7103 131.671 42.114 131.274 41.4136L134.426 39.8518C134.719 40.4103 135.131 40.822 135.661 41.087C136.2 41.3615 136.773 41.4987 137.379 41.4987C138.089 41.4987 138.723 41.371 139.281 41.1154C139.84 40.8693 140.27 40.5002 140.573 40.008C140.886 39.5253 141.032 38.9195 141.013 38.1907V33.832H141.439V22.1757H144.435V38.2475C144.435 38.6355 144.416 39.0047 144.378 39.3549C144.35 39.7146 144.298 40.0648 144.222 40.4055C143.995 41.3994 143.559 42.2134 142.916 42.8475C142.272 43.4912 141.472 43.9691 140.516 44.2815C139.57 44.5938 138.519 44.75 137.365 44.75ZM137.066 37.9351C135.656 37.9351 134.426 37.5802 133.375 36.8703C132.324 36.1604 131.51 35.195 130.933 33.974C130.356 32.753 130.067 31.3758 130.067 29.8424C130.067 28.2902 130.356 26.9083 130.933 25.6967C131.52 24.4757 132.348 23.515 133.418 22.8146C134.487 22.1047 135.746 21.7498 137.194 21.7498C138.652 21.7498 139.873 22.1047 140.857 22.8146C141.851 23.515 142.603 24.4757 143.115 25.6967C143.626 26.9177 143.881 28.2996 143.881 29.8424C143.881 31.3663 143.626 32.7435 143.115 33.974C142.603 35.195 141.842 36.1604 140.829 36.8703C139.816 37.5802 138.562 37.9351 137.066 37.9351ZM137.592 34.8684C138.51 34.8684 139.248 34.6602 139.807 34.2437C140.374 33.8178 140.786 33.2262 141.042 32.469C141.307 31.7118 141.439 30.8363 141.439 29.8424C141.439 28.8391 141.307 27.9636 141.042 27.2159C140.786 26.4587 140.384 25.8718 139.835 25.4554C139.286 25.0294 138.576 24.8165 137.705 24.8165C136.787 24.8165 136.03 25.0436 135.434 25.4979C134.837 25.9428 134.397 26.5486 134.113 27.3153C133.829 28.0725 133.687 28.9149 133.687 29.8424C133.687 30.7795 133.825 31.6314 134.099 32.398C134.383 33.1552 134.814 33.7563 135.391 34.2011C135.968 34.646 136.702 34.8684 137.592 34.8684Z" fill="#7B7B7B"/>
<path d="M120.132 37.5091V22.1756H123.156V25.9096L122.787 25.4268C122.976 24.9157 123.227 24.4519 123.539 24.0355C123.861 23.6095 124.244 23.2593 124.689 22.9848C125.068 22.7293 125.484 22.5305 125.939 22.3885C126.402 22.2371 126.876 22.1472 127.358 22.1188C127.841 22.0809 128.31 22.0999 128.764 22.1756V25.3701C128.31 25.2375 127.784 25.195 127.188 25.2423C126.601 25.2896 126.071 25.4552 125.598 25.7392C125.125 25.9948 124.737 26.3213 124.434 26.7188C124.14 27.1164 123.923 27.5707 123.781 28.0818C123.639 28.5835 123.568 29.1277 123.568 29.7146V37.5091H120.132Z" fill="#7B7B7B"/>
<path d="M110.021 37.9351C108.469 37.9351 107.106 37.5991 105.932 36.9271C104.759 36.2551 103.84 35.3228 103.178 34.1301C102.525 32.9375 102.198 31.5651 102.198 30.0128C102.198 28.3375 102.52 26.8846 103.164 25.6541C103.807 24.4142 104.702 23.4535 105.847 22.772C106.992 22.0905 108.317 21.7498 109.822 21.7498C111.413 21.7498 112.761 22.1236 113.869 22.8714C114.986 23.6097 115.814 24.6555 116.353 26.0091C116.893 27.3626 117.096 28.9575 116.964 30.7937H113.571V29.5443C113.561 27.8784 113.268 26.6622 112.69 25.8955C112.113 25.1288 111.204 24.7455 109.964 24.7455C108.564 24.7455 107.522 25.1809 106.841 26.0517C106.159 26.913 105.819 28.1766 105.819 29.8424C105.819 31.3947 106.159 32.5968 106.841 33.4487C107.522 34.3005 108.516 34.7264 109.822 34.7264C110.665 34.7264 111.389 34.5419 111.995 34.1727C112.61 33.7941 113.083 33.2499 113.414 32.54L116.793 33.5622C116.207 34.9441 115.298 36.0184 114.068 36.7851C112.847 37.5518 111.498 37.9351 110.021 37.9351ZM104.74 30.7937V28.2097H115.289V30.7937H104.74Z" fill="#7B7B7B"/>
<path d="M96.1307 37.5091V30.1263C96.1307 29.6436 96.0975 29.1088 96.0313 28.522C95.965 27.9351 95.8088 27.372 95.5627 26.8324C95.3261 26.2835 94.9664 25.8339 94.4837 25.4837C94.0105 25.1335 93.3668 24.9583 92.5528 24.9583C92.1174 24.9583 91.6868 25.0293 91.2608 25.1713C90.8349 25.3133 90.4468 25.5594 90.0966 25.9096C89.7559 26.2503 89.4814 26.7236 89.2732 27.3294C89.0649 27.9257 88.9608 28.6923 88.9608 29.6294L86.9306 28.7633C86.9306 27.4571 87.1814 26.274 87.683 25.2139C88.1941 24.1538 88.9419 23.3114 89.9263 22.6867C90.9106 22.0526 92.1222 21.7355 93.5609 21.7355C94.6967 21.7355 95.6337 21.9248 96.372 22.3034C97.1103 22.682 97.6971 23.1647 98.1325 23.7515C98.5679 24.3384 98.8897 24.9631 99.098 25.6256C99.3062 26.2882 99.4387 26.9176 99.4955 27.5139C99.5618 28.1008 99.5949 28.5788 99.5949 28.9479V37.5091H96.1307ZM85.4966 37.5091V22.1756H88.5491V26.9318H88.9608V37.5091H85.4966Z" fill="#7B7B7B"/>
<path d="M71.6518 44.3241L74.6049 36.2172L74.6617 38.6024L67.9746 22.1757H71.5382L76.2803 34.3289H75.3716L79.9859 22.1757H83.4075L74.8605 44.3241H71.6518Z" fill="#7B7B7B"/>
<path d="M58.8183 37.9351C57.3228 37.9351 55.974 37.6748 54.7719 37.1542C53.5793 36.6336 52.5949 35.8906 51.8188 34.9252C51.0521 33.9502 50.5647 32.7955 50.3564 31.4609L53.9059 30.9214C54.2088 32.1329 54.8287 33.07 55.7658 33.7325C56.7123 34.3951 57.8008 34.7264 59.0312 34.7264C59.7601 34.7264 60.4463 34.6128 61.0899 34.3856C61.7335 34.1585 62.2541 33.8272 62.6516 33.3918C63.0586 32.9564 63.2621 32.4216 63.2621 31.7875C63.2621 31.5035 63.2148 31.2432 63.1202 31.0066C63.0255 30.7605 62.8835 30.5428 62.6942 30.3535C62.5144 30.1642 62.2778 29.9938 61.9844 29.8424C61.7004 29.6815 61.3691 29.5442 60.9905 29.4307L55.709 27.8689C55.2546 27.7364 54.7625 27.5613 54.2324 27.3436C53.7118 27.1164 53.2149 26.8088 52.7417 26.4207C52.2779 26.0232 51.8945 25.5216 51.5916 24.9158C51.2982 24.3005 51.1515 23.5433 51.1515 22.6442C51.1515 21.3285 51.4828 20.2258 52.1454 19.3361C52.8174 18.4369 53.7166 17.7649 54.8429 17.32C55.9787 16.8752 57.2376 16.6575 58.6195 16.6669C60.0203 16.6764 61.2697 16.9177 62.3677 17.391C63.4656 17.8548 64.3838 18.5316 65.122 19.4213C65.8603 20.311 66.3809 21.3853 66.6838 22.6442L63.0066 23.283C62.8551 22.5637 62.5617 21.9532 62.1263 21.4515C61.7004 20.9404 61.1751 20.5524 60.5504 20.2873C59.9352 20.0223 59.2773 19.8803 58.5769 19.8614C57.8954 19.8519 57.2613 19.9561 56.6744 20.1738C56.097 20.382 55.6285 20.6849 55.2688 21.0824C54.9186 21.4799 54.7435 21.9437 54.7435 22.4738C54.7435 22.9754 54.895 23.3872 55.1979 23.709C55.5007 24.0213 55.8746 24.2722 56.3195 24.4615C56.7738 24.6413 57.2329 24.7927 57.6967 24.9158L61.3597 25.938C61.8613 26.0705 62.4245 26.2504 63.0492 26.4775C63.6739 26.7047 64.2749 27.0218 64.8523 27.4288C65.4297 27.8358 65.9029 28.3706 66.2721 29.0331C66.6507 29.6957 66.84 30.5381 66.84 31.5603C66.84 32.6204 66.6175 33.5527 66.1727 34.3573C65.7373 35.1523 65.1457 35.8149 64.398 36.3449C63.6502 36.875 62.7936 37.2725 61.8282 37.5375C60.8722 37.8026 59.8689 37.9351 58.8183 37.9351Z" fill="#7B7B7B"/>
<defs>
<clipPath id="clip0_29226_1152">
<rect width="24.4579" height="40" fill="white" transform="translate(18.3335 10)"/>
</clipPath>
</defs>
</svg>
