<svg width="180" height="60" viewBox="0 0 180 60" fill="none" xmlns="http://www.w3.org/2000/svg">
<g clip-path="url(#clip0_29226_1135)">
<path fill-rule="evenodd" clip-rule="evenodd" d="M20.0473 43.2531C10.2705 34.5942 11.567 20.5377 21.3702 13.5722C28.2563 8.68386 38.7408 8.08191 45.4152 16.4166C50.1448 22.3237 50.469 30.8172 47.4724 35.9437C45.5938 39.1452 41.2809 41.5134 38.6416 38.3515C36.2404 35.4806 38.9194 32.9339 39.8587 29.5802C43.2125 17.561 26.5761 9.04768 17.8114 20.6104C13.3398 26.5109 13.5912 35.6063 20.0473 43.2531Z" fill="#7B7B7B"/>
<path fill-rule="evenodd" clip-rule="evenodd" d="M50.7142 17.0316C60.2925 25.9154 58.6718 39.9388 48.7099 46.6728C41.7114 51.4024 31.2202 51.7596 24.7377 43.2793C20.1403 37.2598 20.0147 28.7597 23.1303 23.706C25.0816 20.5507 29.4474 18.2752 32.0206 21.5033C34.3557 24.427 31.6105 26.9142 30.5984 30.2415C26.9735 42.1879 43.4048 51.0849 52.434 39.7206C57.038 33.9259 56.9983 24.8173 50.7208 17.0316H50.7142Z" fill="#7B7B7B"/>
</g>
<path d="M156.023 45.5L158.743 38.0331L158.795 40.23L152.636 25.1H155.919L160.286 36.2938H159.449L163.699 25.1H166.851L158.979 45.5H156.023Z" fill="#7B7B7B"/>
<path d="M151.513 39.223C150.58 39.3974 149.665 39.4715 148.767 39.4453C147.878 39.4279 147.08 39.2666 146.374 38.9615C145.668 38.6476 145.131 38.1551 144.765 37.4838C144.443 36.8735 144.273 36.2502 144.255 35.6138C144.238 34.9774 144.229 34.2582 144.229 33.4561V21.1769H147.368V33.273C147.368 33.8397 147.372 34.3366 147.381 34.7638C147.398 35.191 147.49 35.5397 147.655 35.81C147.969 36.333 148.47 36.6251 149.159 36.6861C149.848 36.7471 150.632 36.7123 151.513 36.5815V39.223ZM141.666 27.5715V25.1H151.513V27.5715H141.666Z" fill="#7B7B7B"/>
<path d="M136.167 22.9554V20.0654H139.318V22.9554H136.167ZM136.167 39.2231V25.1H139.318V39.2231H136.167Z" fill="#7B7B7B"/>
<path d="M127.377 39.6153C125.921 39.6153 124.679 39.2928 123.65 38.6476C122.622 37.9938 121.833 37.1046 121.283 35.9799C120.743 34.8553 120.468 33.5825 120.459 32.1615C120.468 30.7143 120.752 29.4328 121.309 28.3169C121.876 27.1923 122.678 26.3117 123.716 25.6753C124.753 25.0302 125.987 24.7076 127.416 24.7076C129.021 24.7076 130.376 25.113 131.483 25.9238C132.599 26.7258 133.327 27.8243 133.667 29.2192L130.529 30.0692C130.285 29.3107 129.879 28.7223 129.313 28.3038C128.746 27.8766 128.101 27.663 127.377 27.663C126.558 27.663 125.882 27.8592 125.35 28.2515C124.818 28.6351 124.426 29.1669 124.173 29.8469C123.92 30.5269 123.794 31.2984 123.794 32.1615C123.794 33.5041 124.095 34.5894 124.696 35.4176C125.298 36.2458 126.192 36.66 127.377 36.66C128.214 36.66 128.872 36.4682 129.352 36.0846C129.84 35.701 130.206 35.1474 130.45 34.4238L133.667 35.143C133.231 36.5815 132.468 37.6887 131.379 38.4646C130.289 39.2317 128.955 39.6153 127.377 39.6153Z" fill="#7B7B7B"/>
<path d="M111.315 39.6153C109.902 39.6153 108.669 39.2971 107.614 38.6607C106.559 38.0243 105.74 37.1482 105.156 36.0323C104.58 34.9076 104.292 33.6174 104.292 32.1615C104.292 30.6794 104.589 29.3805 105.182 28.2646C105.775 27.1487 106.598 26.2769 107.653 25.6492C108.708 25.0215 109.929 24.7076 111.315 24.7076C112.736 24.7076 113.974 25.0258 115.029 25.6623C116.084 26.2987 116.903 27.1792 117.487 28.3038C118.071 29.4197 118.363 30.7056 118.363 32.1615C118.363 33.6261 118.067 34.9207 117.474 36.0453C116.89 37.1612 116.07 38.0374 115.016 38.6738C113.961 39.3015 112.727 39.6153 111.315 39.6153ZM111.315 36.66C112.57 36.66 113.503 36.2415 114.113 35.4046C114.724 34.5676 115.029 33.4866 115.029 32.1615C115.029 30.7928 114.719 29.703 114.1 28.8923C113.481 28.0728 112.553 27.663 111.315 27.663C110.469 27.663 109.772 27.8548 109.222 28.2384C108.682 28.6133 108.281 29.1407 108.019 29.8207C107.758 30.492 107.627 31.2723 107.627 32.1615C107.627 33.5302 107.937 34.6243 108.556 35.4438C109.183 36.2546 110.103 36.66 111.315 36.66Z" fill="#7B7B7B"/>
<path d="M98.0083 39.2231V20H101.16V39.2231H98.0083Z" fill="#7B7B7B"/>
<path d="M88.4344 39.6153C87.0046 39.6153 85.7493 39.3058 84.6682 38.6869C83.5872 38.0679 82.7416 37.2092 82.1313 36.1107C81.5298 35.0123 81.229 33.7482 81.229 32.3184C81.229 30.7753 81.5254 29.4371 82.1182 28.3038C82.7111 27.1617 83.5349 26.2769 84.5898 25.6492C85.6446 25.0215 86.8652 24.7076 88.2513 24.7076C89.7159 24.7076 90.9582 25.052 91.9782 25.7407C93.007 26.4207 93.7698 27.3841 94.2667 28.6307C94.7636 29.8774 94.9511 31.3464 94.829 33.0376H91.7036V31.8869C91.6949 30.3525 91.4246 29.2323 90.8929 28.5261C90.3611 27.8199 89.5241 27.4669 88.3821 27.4669C87.0918 27.4669 86.1328 27.8679 85.5052 28.6699C84.8775 29.4633 84.5636 30.6271 84.5636 32.1615C84.5636 33.5912 84.8775 34.6984 85.5052 35.483C86.1328 36.2676 87.0482 36.66 88.2513 36.66C89.0272 36.66 89.6941 36.4899 90.2521 36.1499C90.8187 35.8012 91.2546 35.2999 91.5598 34.6461L94.6721 35.5876C94.1316 36.8605 93.2946 37.8499 92.1613 38.5561C91.0367 39.2623 89.7944 39.6153 88.4344 39.6153ZM83.5698 33.0376V30.6576H93.2859V33.0376H83.5698Z" fill="#7B7B7B"/>
<path d="M71.0536 39.2231L65.1167 20.3923H68.3598L73.329 36.1631L78.3636 20.3923H81.6067L75.6698 39.2231H71.0536Z" fill="#7B7B7B"/>
<defs>
<clipPath id="clip0_29226_1135">
<rect width="43.7705" height="40" fill="white" transform="translate(13.3335 10)"/>
</clipPath>
</defs>
</svg>
