<svg width="134" height="40" viewBox="0 0 134 40" fill="none" xmlns="http://www.w3.org/2000/svg">
<g clip-path="url(#clip0_29226_1117)">
<path d="M0 19.9888C0 25.5101 2.29821 30.8296 6.33969 34.6188C7.56726 32.5392 7.96525 29.9215 7.24215 27.2758C6.24439 23.6098 3.36323 20.8912 0 19.9888Z" fill="#7B7B7B"/>
<path d="M1.03138 13.694C0.532497 15.1906 0.21299 16.7153 0.0784607 18.2287C4.73653 18.694 8.68833 24.0583 9.14797 30.8632C9.2825 32.8475 9.09752 34.7478 8.6659 36.4742C9.71411 37.1973 10.8464 37.8195 12.0572 38.3464C12.6962 35.1738 12.6738 31.6648 11.8554 28.1222C10.2578 21.1996 6.02577 15.8913 1.03138 13.6884V13.694Z" fill="#7B7B7B"/>
<path d="M22.6009 10.3699C27.657 11.5078 32.6121 10.7567 36.4518 8.63224C35.7343 7.58964 34.9159 6.61431 34.0022 5.72305C30.5269 8.52014 24.6861 9.09188 19.0975 6.76565C16.1827 5.55489 13.778 3.73314 12.074 1.64233C11.5415 1.87215 11.0146 2.1244 10.5045 2.40467C13.0269 6.18269 17.3206 9.18157 22.6009 10.3699Z" fill="#7B7B7B"/>
<path d="M39.7814 22.9653C39.9439 21.8723 40.0168 20.7736 40 19.6862C35.824 21.0034 31.8666 24.0696 29.204 28.5146C27.1805 31.8947 26.2108 35.555 26.2164 39.0079C26.6872 38.8566 27.1469 38.6884 27.6065 38.5034C28.0213 35.3588 29.6861 31.7601 32.4552 28.5539C34.6805 25.9754 37.2646 24.0696 39.7814 22.9709V22.9653Z" fill="#7B7B7B"/>
<path d="M38.0493 11.4013C32.4103 13.9798 23.7836 13.7276 15.2354 10.1738C11.9731 8.81725 9.0471 7.11322 6.5527 5.20178C4.92714 6.676 3.5258 8.43048 2.43835 10.4428C8.89575 13.1614 14.176 23.1502 15 35.3812C15.0897 36.7433 15.1233 38.0829 15.1009 39.3946C17.8532 40.0953 20.6502 40.1794 23.3352 39.7197C23.7388 34.0919 26.6256 27.4495 31.6984 21.5807C34.0583 18.8509 36.648 16.5695 39.2993 14.7814C38.9854 13.6211 38.5706 12.4888 38.0493 11.4013ZM20.6278 27.2029C12.5897 27.2029 12.6009 14.7309 20.6278 14.7309C28.6547 14.7309 28.6547 27.2029 20.6278 27.2029Z" fill="#7B7B7B"/>
<path d="M23.537 6.55826C26.7321 7.14682 29.9552 6.24436 32.444 4.34974C31.0258 3.22306 29.4339 2.26453 27.6738 1.53584C23.8677 -0.0448822 19.8487 -0.364389 16.0818 0.392338C17.2366 3.49211 19.9384 5.89682 23.537 6.55826Z" fill="#7B7B7B"/>
<path d="M38.6827 27.1189C35.7455 27.5841 32.8363 29.546 30.9809 32.6346C30 34.2714 29.4507 36.0146 29.2825 37.7131C33.2791 35.6223 36.5975 32.1693 38.4641 27.6794C38.5426 27.4945 38.6099 27.3039 38.6827 27.1189Z" fill="#7B7B7B"/>
</g>
<path d="M118.989 30.0653L124.493 22.4572L119.1 15.0164H123.058L126.444 19.8237L129.774 15.0164H133.731L128.339 22.4572L133.871 30.0653H129.913L126.444 25.0908L122.946 30.0653H118.989Z" fill="#7B7B7B"/>
<path d="M111.282 30.4833C109.759 30.4833 108.421 30.1535 107.269 29.494C106.117 28.8344 105.216 27.9194 104.566 26.7489C103.925 25.5784 103.605 24.2315 103.605 22.708C103.605 21.0638 103.92 19.6378 104.552 18.4302C105.184 17.2133 106.062 16.2704 107.186 15.6015C108.31 14.9327 109.61 14.5983 111.087 14.5983C112.648 14.5983 113.972 14.9652 115.058 15.6991C116.155 16.4237 116.967 17.4501 117.497 18.7785C118.026 20.1069 118.226 21.6722 118.096 23.4744H114.766V22.2482C114.757 20.6132 114.469 19.4195 113.902 18.6671C113.335 17.9146 112.443 17.5384 111.227 17.5384C109.852 17.5384 108.83 17.9657 108.161 18.8203C107.492 19.6657 107.158 20.9058 107.158 22.5408C107.158 24.0643 107.492 25.244 108.161 26.0801C108.83 26.9161 109.805 27.3342 111.087 27.3342C111.914 27.3342 112.625 27.153 113.219 26.7907C113.823 26.4191 114.287 25.885 114.613 25.1883L117.929 26.1916C117.353 27.5478 116.461 28.6022 115.254 29.3546C114.055 30.1071 112.731 30.4833 111.282 30.4833ZM106.099 23.4744V20.9383H116.452V23.4744H106.099Z" fill="#7B7B7B"/>
<path d="M101.967 30.0653C100.973 30.2511 99.9973 30.3301 99.0404 30.3022C98.0929 30.2836 97.2429 30.1118 96.4905 29.7866C95.738 29.4522 95.1667 28.9273 94.7766 28.2121C94.4329 27.5618 94.2517 26.8976 94.2331 26.2195C94.2146 25.5413 94.2053 24.7749 94.2053 23.9203V10.8361H97.5495V23.7252C97.5495 24.3291 97.5541 24.8586 97.5634 25.3137C97.582 25.7689 97.6795 26.1405 97.856 26.4285C98.1905 26.9858 98.7246 27.297 99.4585 27.3621C100.192 27.4271 101.028 27.3899 101.967 27.2506V30.0653ZM91.4742 17.6499V15.0163H101.967V17.6499H91.4742Z" fill="#7B7B7B"/>
<path d="M82.0152 30.0653V15.0163H84.9832V18.681L84.6209 18.2073C84.8067 17.7056 85.0529 17.2505 85.3594 16.8417C85.6753 16.4237 86.0515 16.08 86.4881 15.8106C86.8597 15.5598 87.2684 15.3647 87.7143 15.2253C88.1695 15.0767 88.634 14.9885 89.1077 14.9606C89.5815 14.9234 90.0413 14.942 90.4872 15.0163V18.1515C90.0413 18.0215 89.5258 17.9797 88.9405 18.0261C88.3646 18.0726 87.8444 18.2351 87.3799 18.5138C86.9154 18.7646 86.5345 19.0851 86.2373 19.4753C85.9493 19.8654 85.7356 20.3113 85.5963 20.813C85.457 21.3053 85.3873 21.8395 85.3873 22.4154V30.0653H82.0152Z" fill="#7B7B7B"/>
<path d="M71.4345 30.4833C69.9296 30.4833 68.6152 30.1442 67.4911 29.4661C66.3671 28.788 65.4939 27.8544 64.8715 26.6653C64.2584 25.467 63.9518 24.0921 63.9518 22.5408C63.9518 20.9616 64.2677 19.5774 64.8994 18.3884C65.5311 17.1993 66.4089 16.2704 67.5329 15.6015C68.657 14.9327 69.9575 14.5983 71.4345 14.5983C72.9487 14.5983 74.2678 14.9373 75.3919 15.6155C76.5159 16.2936 77.3891 17.2318 78.0115 18.4302C78.6339 19.6192 78.9451 20.9894 78.9451 22.5408C78.9451 24.1014 78.6292 25.4809 77.9976 26.6793C77.3752 27.8683 76.5019 28.8019 75.3779 29.48C74.2539 30.1489 72.9394 30.4833 71.4345 30.4833ZM71.4345 27.3342C72.7722 27.3342 73.7662 26.8883 74.4165 25.9965C75.0667 25.1047 75.3919 23.9528 75.3919 22.5408C75.3919 21.0823 75.0621 19.9211 74.4025 19.0572C73.743 18.184 72.7536 17.7474 71.4345 17.7474C70.5334 17.7474 69.7903 17.9518 69.2051 18.3605C68.6291 18.76 68.2018 19.322 67.9231 20.0466C67.6444 20.7618 67.5051 21.5933 67.5051 22.5408C67.5051 23.9992 67.8349 25.1651 68.4944 26.0383C69.1632 26.9022 70.1433 27.3342 71.4345 27.3342Z" fill="#7B7B7B"/>
<path d="M53.1095 30.0653L46.7833 10H50.239L55.534 26.8047L60.8987 10H64.3544L58.0283 30.0653H53.1095Z" fill="#7B7B7B"/>
<defs>
<clipPath id="clip0_29226_1117">
<rect width="40" height="40" fill="white"/>
</clipPath>
</defs>
</svg>
