<svg width="80" height="80" viewBox="0 0 80 80" fill="none" xmlns="http://www.w3.org/2000/svg">
<mask id="mask0_29740_3031" style="mask-type:luminance" maskUnits="userSpaceOnUse" x="0" y="0" width="80" height="80">
<path d="M80 0H0V80H80V0Z" fill="white"/>
</mask>
<g mask="url(#mask0_29740_3031)">
<rect x="-0.0966797" width="80" height="80" fill="#24EBD4"/>
<path d="M32.2129 52.1665V52.1402C32.2129 50.5462 31.1739 49.8795 29.3627 49.3974C27.7891 48.993 27.4033 48.7959 27.4033 48.194V48.1675C27.4033 47.7242 27.789 47.3705 28.561 47.3705C29.3329 47.3705 30.1051 47.7101 30.9067 48.2732L31.9459 46.7566C31.0255 46.0125 29.8973 45.5938 28.5909 45.5938C26.7501 45.5938 25.4139 46.6915 25.4139 48.3506V48.3771C25.4139 50.1925 26.6014 50.7006 28.4126 51.1705C29.9268 51.5626 30.2535 51.8231 30.2535 52.3334V52.3599C30.2535 52.8944 29.7486 53.2218 28.9469 53.2218C27.9078 53.2218 27.0469 52.7906 26.2452 52.1117L25.0576 53.5346C26.1561 54.5149 27.5221 54.9966 28.8879 54.9966C30.8474 54.9966 32.2129 53.9782 32.2129 52.1624V52.1665Z" fill="black"/>
<path d="M37.7359 54.9349L39.7843 48.9535L41.8331 54.9349H43.555L46.643 45.7291H44.5647L42.6942 51.9197L40.675 45.7027H38.953L36.9341 51.9197L35.0636 45.7291H32.9258L36.0138 54.9349H37.7359Z" fill="black"/>
<path d="M25.0576 43.448H27.1954V27.1509H52.6105V52.8512H48.7806V55H54.7482V25H25.0576V43.448Z" fill="black"/>
</g>
</svg>
