<svg width="80" height="80" viewBox="0 0 80 80" fill="none" xmlns="http://www.w3.org/2000/svg">
<mask id="mask0_29740_3184" style="mask-type:luminance" maskUnits="userSpaceOnUse" x="0" y="0" width="80" height="80">
<path d="M80 0H0V80H80V0Z" fill="white"/>
</mask>
<g mask="url(#mask0_29740_3184)">
<path d="M79.4907 40C79.4907 17.9086 61.7667 0 39.9031 0C18.0394 0 0.31543 17.9086 0.31543 40C0.31543 62.0914 18.0394 80 39.9031 80C61.7667 80 79.4907 62.0914 79.4907 40Z" fill="#D1EB24"/>
<rect x="0.298828" width="79.2079" height="80" fill="#D1EB24"/>
<path d="M47.5398 43.0544C46.6166 48.4549 44.2443 52.4151 39.3713 54.2752C32.6579 56.8555 26.5725 52.2951 26.3095 44.5845C26.0845 38.0739 28.4977 32.3434 31.5302 26.7929C31.203 28.203 30.8086 29.5831 30.5779 30.9932C30.3353 32.4934 30.0286 34.0235 30.1513 35.5236C30.3471 37.9238 30.5049 40.4442 31.3199 42.6645C33.4496 48.5149 38.6468 50.0149 43.6425 46.4746C44.9485 45.5445 46.0791 44.3746 47.5427 43.0544H47.5398Z" fill="black"/>
<path d="M40.0579 46.8648C37.078 47.6148 34.808 46.6548 33.1748 44.0145C31.0948 40.6241 30.9722 36.8738 31.425 33.0635C31.6646 31.0533 32.3103 29.1031 32.7076 27.0928C33.0085 25.5628 33.6891 24.7828 35.3339 25.0528C36.2075 25.2028 37.1218 25.0826 38.2202 25.0826C36.1869 32.6133 34.4136 40.0241 40.0579 46.8648Z" fill="black"/>
<path d="M53.5097 42.8145C53.6733 49.355 47.3659 55.5956 41.3945 54.6656C45.9024 51.9952 47.994 47.8848 48.7332 42.8145H53.5097Z" fill="black"/>
</g>
</svg>
