<svg width="80" height="80" viewBox="0 0 80 80" fill="none" xmlns="http://www.w3.org/2000/svg">
<mask id="mask0_29740_3208" style="mask-type:luminance" maskUnits="userSpaceOnUse" x="0" y="0" width="80" height="80">
<path d="M80 0H0V80H80V0Z" fill="white"/>
</mask>
<g mask="url(#mask0_29740_3208)">
<rect x="0.299805" width="79.2079" height="80" fill="#68B24C"/>
<path d="M26.9578 28.5143H30.5076V55H34.0606V41.7556C41.3315 41.7556 47.6822 45.6686 51.0768 51.4824H46.8112C44.5612 48.5951 41.3282 46.4916 37.6102 45.662V49.294C40.7212 50.202 43.3341 52.2728 44.9241 55H56.3979C54.4746 48.1998 49.4734 42.68 42.9744 39.9984C49.4734 37.3201 54.4746 31.797 56.3979 25H44.9241C43.3341 27.7272 40.7212 29.798 37.6102 30.706V34.338C41.3282 33.5084 44.5579 31.405 46.8112 28.5143H51.0768C47.6822 34.3282 41.3315 38.2412 34.0606 38.2412V25H23.4082V55H26.9578V28.5176V28.5143Z" fill="white"/>
</g>
</svg>
