<svg width="80" height="80" viewBox="0 0 80 80" fill="none" xmlns="http://www.w3.org/2000/svg">
<mask id="mask0_29740_3194" style="mask-type:luminance" maskUnits="userSpaceOnUse" x="0" y="0" width="80" height="80">
<path d="M80 0H0V80H80V0Z" fill="white"/>
</mask>
<g mask="url(#mask0_29740_3194)">
<rect x="0.298828" width="79.2079" height="80" fill="#CD4E17"/>
<path d="M26.708 47.4993L29.6402 49.1648V34.1661L39.9038 28.3333L50.1675 34.1661V45.8341L39.9038 51.6667L38.4366 50.8327V54.166L39.9038 55L53.0998 47.4993V32.5007L39.9038 25L26.708 32.5007V47.4993Z" fill="#FFD1BD"/>
<path d="M39.9031 38.3334L38.4384 39.1646V47.4993L39.9031 48.3307L47.2348 44.1659V35.8315L39.9031 31.6667L32.5742 35.8315V50.8326L35.5063 52.4981V37.4995L39.9031 35.0001L44.3025 37.4995V42.498L41.3704 44.1659V39.1646L39.9031 38.3334Z" fill="#FFD1BD"/>
</g>
</svg>
