<svg width="80" height="80" viewBox="0 0 80 80" fill="none" xmlns="http://www.w3.org/2000/svg">
<mask id="mask0_29740_3150" style="mask-type:luminance" maskUnits="userSpaceOnUse" x="0" y="0" width="80" height="80">
<path d="M80 0H0V80H80V0Z" fill="white"/>
</mask>
<g mask="url(#mask0_29740_3150)">
<rect x="0.299805" width="79.2079" height="80" fill="#246AEB"/>
<path fill-rule="evenodd" clip-rule="evenodd" d="M55.069 38.3401C55.2002 39.5171 55.191 40.7244 55.0415 41.8712H55.0324C54.8493 43.3501 54.4556 44.7384 53.882 46.0362C51.5354 51.3179 46.1954 55 39.9796 55C38.7834 55 37.6208 54.8791 36.5072 54.6074L36.4766 54.6378C35.9975 54.9094 35.3779 54.7282 35.1002 54.2754C34.8805 53.8832 34.9417 53.4001 35.2255 53.0983C35.317 53.0078 35.6466 52.827 35.7778 52.7364H35.7809L35.9761 52.6156L36.2172 52.4948C37.4224 52.8268 38.6889 53.0079 39.9796 53.0079C45.1915 53.0079 49.9486 49.9296 52.0358 45.2212C52.5179 44.1348 52.8445 42.9879 53.0093 41.8109L51.1907 42.8672L50.6139 43.169C49.9518 45.3722 48.606 47.3038 46.7751 48.6921C44.8253 50.2011 42.4451 50.9857 39.9796 50.9857C38.6187 50.9857 37.2882 50.7443 36.0433 50.2916L32.2352 52.4647C31.753 52.7363 31.1365 52.5552 30.8588 52.1024C30.5811 51.6196 30.7489 51.0159 31.228 50.7443L33.9042 49.2051L35.3719 48.3602L35.9152 48.0584C37.1388 48.662 38.518 48.9938 39.9796 48.9938C42.0759 48.9938 44.0045 48.2997 45.5424 47.1226C47.2176 45.8248 48.4291 43.9839 48.8777 41.8712L50.1929 41.1168L55.0569 38.3401H55.0658H55.069ZM25.4151 35.6841H25.4425H25.4486C25.6226 35.1108 25.8332 34.5371 26.0743 33.9938C28.4208 28.682 33.7638 25 39.9766 25C44.508 25 48.5725 26.9617 51.3523 30.0703C52.6767 31.5492 53.708 33.2999 54.361 35.2316L48.9142 38.3401L40.4464 43.169L40.416 43.1991L36.8548 45.2212L34.0445 46.8208L32.2624 47.8471L29.2812 49.5371C28.8022 49.8087 28.1828 49.6578 27.9052 49.1749C27.6304 48.6919 27.7953 48.0883 28.2743 47.8167L31.0358 46.2476L39.4426 41.4487L40.3122 40.9356L51.8375 34.3561C51.3157 33.2998 50.6445 32.3039 49.8449 31.3984C47.3366 28.5916 43.7664 26.9919 39.9766 26.9919C35.4483 26.9919 31.2617 29.3158 28.8724 33.028C28.079 34.2654 27.5083 35.5936 27.1727 36.9819L26.5624 37.3441C26.4342 37.4046 26.2541 37.4949 26.1168 37.5251C25.7049 37.6157 25.2624 37.4347 25.0428 37.0423C24.7651 36.5896 24.9298 35.986 25.409 35.6841H25.4151ZM25.1496 40.4528L29.0158 38.2496C29.15 37.4046 29.3819 36.5896 29.7085 35.8351V35.8048C30.4438 34.0542 31.64 32.485 33.1841 31.3079C35.1308 29.8291 37.511 29.014 39.9796 29.014C42.4208 29.014 44.7704 29.7989 46.6988 31.2476C47.4281 31.7908 48.545 32.9979 48.963 33.7524L39.3266 39.2456L39.3113 39.2151L38.6553 39.6077C38.5973 39.6379 38.5302 39.6982 38.4569 39.7586L27.2734 46.1267C26.7943 46.3983 26.1748 46.2473 25.9001 45.7644C25.6226 45.2816 25.7874 44.6779 26.2665 44.4063C27.6426 43.6216 26.0071 44.5573 27.3833 43.7726L28.433 43.169L29.2172 42.7162L31.0451 41.69L37.447 38.0079L38.3196 37.5251L39.5401 36.831L45.9115 33.1789C44.3188 31.8208 42.2468 31.0062 39.9796 31.0062C37.8833 31.0062 35.9548 31.7001 34.4169 32.8771C33.2542 33.7826 32.3144 34.9297 31.6979 36.2878C31.4386 36.8612 31.2342 37.4647 31.0969 38.0683C31.0908 38.0984 31.0847 38.1286 31.0786 38.1588C30.987 38.5813 30.9261 39.0041 30.8986 39.4569L30.3798 39.7586L28.8875 40.6036L26.1535 42.1731C25.6745 42.4448 25.055 42.2938 24.7804 41.8109C24.5027 41.328 24.6675 40.7243 25.1496 40.4528Z" fill="white"/>
</g>
</svg>
