<svg width="20" height="20" viewBox="0 0 20 20" fill="none" xmlns="http://www.w3.org/2000/svg">
<g clip-path="url(#clip0_30413_3700)">
<path fill-rule="evenodd" clip-rule="evenodd" d="M10.0004 0.416687C7.62639 0.417919 5.33025 1.25874 3.52253 2.78879C1.71482 4.31884 0.513395 6.43836 0.133096 8.76835C-0.247203 11.0983 0.218415 13.4869 1.4467 15.5068C2.67499 17.5268 4.58584 19.0465 6.83758 19.7942C7.33435 19.8864 7.52147 19.5785 7.52147 19.3167C7.52147 19.0549 7.51153 18.2959 7.50822 17.466C4.72631 18.067 4.13846 16.2921 4.13846 16.2921C3.68475 15.1396 3.02901 14.8366 3.02901 14.8366C2.12157 14.2208 3.0969 14.2323 3.0969 14.2323C4.10204 14.3031 4.63027 15.2581 4.63027 15.2581C5.52115 16.7778 6.97005 16.3382 7.53968 16.0813C7.6291 15.4376 7.88908 14.9996 8.17556 14.751C5.95333 14.5007 3.61851 13.6478 3.61851 9.83787C3.60473 8.84978 3.97349 7.89423 4.64848 7.16892C4.54582 6.91866 4.20304 5.90771 4.74618 4.53455C4.74618 4.53455 5.58573 4.26782 7.49664 5.55372C9.1357 5.10804 10.865 5.10804 12.5041 5.55372C14.4133 4.26782 15.2512 4.53455 15.2512 4.53455C15.796 5.90442 15.4533 6.91536 15.3506 7.16892C16.0277 7.89435 16.3972 8.85156 16.3822 9.84117C16.3822 13.6594 14.0424 14.5007 11.8169 14.746C12.1746 15.0556 12.4942 15.6598 12.4942 16.5885C12.4942 17.9188 12.4826 18.989 12.4826 19.3167C12.4826 19.5818 12.663 19.8913 13.1698 19.7942C15.4218 19.0464 17.3328 17.5264 18.5611 15.5061C19.7893 13.4858 20.2547 11.0969 19.874 8.76673C19.4932 6.43652 18.2912 4.31698 16.4829 2.78719C14.6746 1.2574 12.3779 0.417138 10.0037 0.416687H10.0004Z" fill="#1A1A1A"/>
<path d="M3.78632 14.6933C3.76479 14.7427 3.68531 14.7576 3.62073 14.723C3.55615 14.6884 3.50813 14.6242 3.53131 14.5731C3.5545 14.5221 3.63232 14.5089 3.6969 14.5435C3.76148 14.5781 3.81116 14.6439 3.78632 14.6933Z" fill="#1A1A1A"/>
<path d="M4.19334 15.1428C4.15905 15.16 4.11982 15.1648 4.08236 15.1564C4.0449 15.148 4.01155 15.1269 3.98801 15.0967C3.92343 15.0276 3.91018 14.9321 3.95985 14.8893C4.00953 14.8465 4.09896 14.8662 4.16354 14.9354C4.22812 15.0045 4.24302 15.1 4.19334 15.1428Z" fill="#1A1A1A"/>
<path d="M4.58673 15.7141C4.52546 15.7569 4.42113 15.7141 4.36318 15.6285C4.34715 15.6132 4.33441 15.5947 4.3257 15.5744C4.31699 15.554 4.3125 15.5321 4.3125 15.51C4.3125 15.4878 4.31699 15.4659 4.3257 15.4456C4.33441 15.4252 4.34715 15.4068 4.36318 15.3914C4.42444 15.3503 4.52877 15.3914 4.58673 15.4754C4.64468 15.5594 4.64634 15.6713 4.58673 15.7141Z" fill="#1A1A1A"/>
<path d="M5.12168 16.2674C5.06704 16.3283 4.95609 16.3118 4.86502 16.2295C4.77394 16.1472 4.75241 16.0352 4.80706 15.9759C4.8617 15.9167 4.97265 15.9331 5.06703 16.0138C5.16142 16.0945 5.17964 16.2081 5.12168 16.2674Z" fill="#1A1A1A"/>
<path d="M5.87246 16.5901C5.84762 16.6675 5.73502 16.702 5.62242 16.6691C5.50982 16.6362 5.4353 16.544 5.45683 16.4649C5.47836 16.3859 5.59262 16.3497 5.70687 16.3859C5.82113 16.4221 5.89399 16.5094 5.87246 16.5901Z" fill="#1A1A1A"/>
<path d="M6.69059 16.6461C6.69059 16.7268 6.59787 16.7959 6.47864 16.7976C6.35942 16.7992 6.26172 16.7333 6.26172 16.6527C6.26172 16.572 6.35444 16.5028 6.47367 16.5012C6.59289 16.4995 6.69059 16.5638 6.69059 16.6461Z" fill="#1A1A1A"/>
<path d="M7.45068 16.5193C7.46559 16.6 7.38279 16.684 7.26357 16.7037C7.14434 16.7235 7.04002 16.6757 7.02512 16.5967C7.01021 16.5177 7.09632 16.432 7.21223 16.4106C7.32815 16.3892 7.43578 16.4386 7.45068 16.5193Z" fill="#1A1A1A"/>
</g>
<defs>
<clipPath id="clip0_30413_3700">
<rect width="20" height="20" fill="white"/>
</clipPath>
</defs>
</svg>
