<svg width="152" height="32" viewBox="0 0 152 32" fill="none" xmlns="http://www.w3.org/2000/svg">
<g clip-path="url(#clip0_31293_42509)">
<path d="M7.54152 6.29517L1.28346 9.48618C0.762291 9.75317 0.852147 10.369 1.44592 10.5995L7.21451 12.8397C7.79639 13.0657 8.47252 13.0411 8.97964 12.7756L25.5535 4.09936C26.6169 3.5427 26.4207 2.27876 25.198 1.80924L20.8791 0.150808C20.2981 -0.0722949 19.6249 -0.046346 19.1201 0.218613L7.54152 6.29517Z" fill="#0066FF"/>
<path d="M7.17672 15.6608L2.47376 13.7889C1.3051 13.3236 -0.0201863 13.9125 0.000201812 14.8879L0.08068 18.7382C0.0914954 19.2557 0.497172 19.7417 1.12008 19.9836L7.19563 22.3429C7.77751 22.5689 8.45363 22.5443 8.96077 22.2789L25.5346 13.6026C26.598 13.0459 26.4018 11.782 25.1791 11.3125L20.8602 9.65407C20.2792 9.43097 19.6061 9.45692 19.1012 9.72188L7.82531 15.6395C7.63893 15.7374 7.38973 15.7456 7.17672 15.6608Z" fill="#0066FF"/>
<path d="M7.17672 25.164L2.47376 23.2921C1.3051 22.8269 -0.0201864 23.4158 0.000201814 24.3913L0.0806803 28.2415C0.0914953 28.7589 0.497172 29.245 1.12007 29.4869L7.19563 31.8462C7.77751 32.0722 8.45363 32.0476 8.96077 31.7822L25.5346 23.106C26.598 22.5493 26.4018 21.2853 25.1791 20.8158L20.8602 19.1573C20.2792 18.9343 19.6061 18.9602 19.1012 19.2251L7.82531 25.1429C7.63893 25.2407 7.38973 25.2488 7.17672 25.164Z" fill="#0066FF"/>
<path d="M36.1964 25.6424V6.62918H39.3289V25.6424H36.1964ZM38.3483 25.6424V22.7905H49.0262V25.6424H38.3483ZM38.3483 17.3038V14.5604H48.1001V17.3038H38.3483ZM38.3483 9.48118V6.62918H48.89V9.48118H38.3483Z" fill="#222222"/>
<path d="M57.1173 25.914C55.9369 25.914 54.8654 25.6153 53.903 25.0177C52.9587 24.4202 52.205 23.6144 51.642 22.6003C51.0974 21.5681 50.825 20.4184 50.825 19.1508C50.825 17.8651 51.0974 16.7153 51.642 15.7012C52.205 14.669 52.9587 13.8543 53.903 13.2567C54.8654 12.641 55.9369 12.3332 57.1173 12.3332C58.1161 12.3332 58.9968 12.5504 59.7595 12.9851C60.5404 13.4015 61.1578 13.981 61.6119 14.7233C62.0657 15.4658 62.2927 16.3078 62.2927 17.2495V20.9978C62.2927 21.9393 62.0657 22.7814 61.6119 23.5238C61.176 24.2663 60.5676 24.8547 59.7867 25.2893C59.0058 25.7058 58.1161 25.914 57.1173 25.914ZM57.6076 23.0892C58.3521 23.0892 58.9968 22.9263 59.5416 22.6003C60.1045 22.2562 60.5404 21.7854 60.8491 21.188C61.1578 20.5904 61.3122 19.9023 61.3122 19.1236C61.3122 18.3449 61.1578 17.6569 60.8491 17.0593C60.5404 16.4618 60.1045 16 59.5416 15.674C58.9968 15.33 58.3521 15.1579 57.6076 15.1579C56.8812 15.1579 56.2365 15.33 55.6735 15.674C55.1287 16 54.693 16.4618 54.3661 17.0593C54.0574 17.6569 53.903 18.3449 53.903 19.1236C53.903 19.9023 54.0574 20.5904 54.3661 21.188C54.693 21.7854 55.1287 22.2562 55.6735 22.6003C56.2365 22.9263 56.8812 23.0892 57.6076 23.0892ZM64.1179 25.6424H61.1215V22.1385L61.6391 18.9606L61.1215 15.8099V6.08594H64.1179V25.6424Z" fill="#222222"/>
<path d="M72.8093 25.914C71.7017 25.914 70.7119 25.6696 69.8402 25.1806C68.9868 24.6917 68.3149 24.0218 67.8246 23.1707C67.3524 22.3015 67.1163 21.3055 67.1163 20.1829V12.6048H70.1126V20.0471C70.1126 20.6809 70.2125 21.2241 70.4123 21.6768C70.6302 22.1114 70.9389 22.4464 71.3385 22.6818C71.7562 22.9172 72.2465 23.0349 72.8093 23.0349C73.681 23.0349 74.3439 22.7814 74.7979 22.2744C75.2701 21.7492 75.5062 21.0069 75.5062 20.0471V12.6048H78.5025V20.1829C78.5025 21.3237 78.2573 22.3287 77.767 23.1979C77.2948 24.049 76.632 24.7189 75.7786 25.2078C74.925 25.6786 73.9353 25.914 72.8093 25.914Z" fill="#222222"/>
<path d="M85.7917 25.914C85.0654 25.914 84.3663 25.8235 83.6943 25.6424C83.0224 25.4432 82.4049 25.1716 81.8421 24.8275C81.2791 24.4655 80.7888 24.0309 80.3711 23.5238L82.2778 21.6224C82.7318 22.1476 83.2494 22.546 83.8305 22.8176C84.4298 23.0711 85.1017 23.1979 85.8462 23.1979C86.5181 23.1979 87.0266 23.0983 87.3717 22.8991C87.7167 22.6999 87.8892 22.4102 87.8892 22.0299C87.8892 21.6315 87.7258 21.3237 87.3989 21.1065C87.072 20.8892 86.6453 20.7081 86.1186 20.5632C85.6101 20.4002 85.0654 20.2373 84.4843 20.0743C83.9213 19.9113 83.3765 19.694 82.8499 19.4224C82.3414 19.1327 81.9238 18.7433 81.5969 18.2544C81.27 17.7655 81.1066 17.1318 81.1066 16.3531C81.1066 15.5201 81.2973 14.8048 81.6786 14.2074C82.078 13.6098 82.6319 13.148 83.3402 12.8221C84.0666 12.4961 84.9292 12.3332 85.9279 12.3332C86.9812 12.3332 87.9074 12.5233 88.7065 12.9036C89.5236 13.2657 90.2046 13.818 90.7494 14.5604L88.8427 16.4618C88.4613 15.9909 88.0254 15.6378 87.5351 15.4024C87.0448 15.167 86.4818 15.0493 85.8462 15.0493C85.247 15.0493 84.7839 15.1398 84.4571 15.3209C84.1302 15.502 83.9667 15.7646 83.9667 16.1087C83.9667 16.4708 84.1302 16.7515 84.4571 16.9507C84.7839 17.1499 85.2016 17.3219 85.71 17.4668C86.2367 17.6117 86.7815 17.7745 87.3444 17.9556C87.9256 18.1186 88.4704 18.354 88.9789 18.6618C89.5054 18.9516 89.9322 19.35 90.259 19.857C90.5859 20.3459 90.7494 20.9888 90.7494 21.7854C90.7494 23.053 90.3045 24.058 89.4146 24.8004C88.5249 25.5428 87.3172 25.914 85.7917 25.914Z" fill="#222222"/>
<path d="M102.182 25.6424V18.1186C102.182 17.2495 101.9 16.5342 101.337 15.9728C100.792 15.4115 100.084 15.1308 99.2124 15.1308C98.6313 15.1308 98.1137 15.2575 97.6598 15.5111C97.2058 15.7646 96.8517 16.1177 96.5974 16.5704C96.3432 17.0231 96.2161 17.5392 96.2161 18.1186L95.0447 17.4668C95.0447 16.4708 95.2627 15.5926 95.6985 14.832C96.1344 14.0535 96.7336 13.4468 97.4964 13.0122C98.2771 12.5595 99.1488 12.3332 100.111 12.3332C101.092 12.3332 101.964 12.5504 102.726 12.9851C103.489 13.4197 104.088 14.0263 104.524 14.8048C104.96 15.5654 105.178 16.4527 105.178 17.4668V25.6424H102.182ZM93.2197 25.6424V6.08594H96.2161V25.6424H93.2197Z" fill="#222222"/>
<path d="M113.698 25.914C112.518 25.914 111.446 25.6153 110.484 25.0177C109.539 24.4202 108.786 23.6144 108.223 22.6003C107.678 21.5681 107.406 20.4184 107.406 19.1508C107.406 17.8651 107.678 16.7153 108.223 15.7012C108.786 14.669 109.539 13.8543 110.484 13.2567C111.446 12.641 112.518 12.3332 113.698 12.3332C114.697 12.3332 115.577 12.5505 116.34 12.9851C117.121 13.4016 117.739 13.981 118.193 14.7234C118.647 15.4658 118.874 16.3078 118.874 17.2495V20.9978C118.874 21.9394 118.647 22.7814 118.193 23.5238C117.757 24.2663 117.148 24.8547 116.367 25.2893C115.586 25.7058 114.697 25.914 113.698 25.914ZM114.188 23.0892C115.296 23.0892 116.186 22.718 116.858 21.9756C117.548 21.2331 117.893 20.2825 117.893 19.1236C117.893 18.3449 117.738 17.6569 117.43 17.0594C117.121 16.4618 116.685 16 116.122 15.674C115.578 15.33 114.933 15.158 114.188 15.158C113.462 15.158 112.817 15.33 112.254 15.674C111.71 16 111.274 16.4618 110.947 17.0594C110.638 17.6569 110.484 18.3449 110.484 19.1236C110.484 19.9023 110.638 20.5904 110.947 21.188C111.274 21.7854 111.71 22.2562 112.254 22.6003C112.817 22.9263 113.462 23.0892 114.188 23.0892ZM117.702 25.6424V22.1385L118.22 18.9606L117.702 15.8099V12.6048H120.699V25.6424H117.702Z" fill="#222222"/>
<path d="M129.498 25.914C128.318 25.914 127.247 25.6153 126.284 25.0177C125.34 24.4202 124.586 23.6144 124.024 22.6003C123.479 21.5681 123.207 20.4184 123.207 19.1508C123.207 17.8651 123.479 16.7153 124.024 15.7012C124.586 14.669 125.34 13.8543 126.284 13.2567C127.247 12.641 128.318 12.3332 129.498 12.3332C130.497 12.3332 131.379 12.5504 132.142 12.9851C132.922 13.4015 133.54 13.981 133.994 14.7233C134.448 15.4658 134.674 16.3078 134.674 17.2495V20.9978C134.674 21.9393 134.448 22.7814 133.994 23.5238C133.557 24.2663 132.949 24.8547 132.169 25.2893C131.388 25.7058 130.497 25.914 129.498 25.914ZM129.99 23.0892C130.734 23.0892 131.379 22.9263 131.923 22.6003C132.486 22.2562 132.922 21.7854 133.231 21.188C133.54 20.5904 133.694 19.9023 133.694 19.1236C133.694 18.3449 133.54 17.6569 133.231 17.0593C132.922 16.4618 132.486 16 131.923 15.674C131.379 15.33 130.734 15.1579 129.99 15.1579C129.263 15.1579 128.618 15.33 128.056 15.674C127.511 16 127.074 16.4618 126.748 17.0593C126.439 17.6569 126.284 18.3449 126.284 19.1236C126.284 19.9023 126.439 20.5904 126.748 21.188C127.074 21.7854 127.511 22.2562 128.056 22.6003C128.618 22.9263 129.263 23.0892 129.99 23.0892ZM136.5 25.6424H133.504V22.1385L134.021 18.9606L133.504 15.8099V6.08594H136.5V25.6424Z" fill="#222222"/>
<path d="M145.9 25.914C144.592 25.914 143.411 25.6243 142.359 25.0448C141.323 24.4474 140.497 23.6325 139.88 22.6003C139.28 21.5681 138.98 20.4093 138.98 19.1236C138.98 17.8379 139.28 16.6881 139.88 15.674C140.479 14.6419 141.287 13.8271 142.304 13.2295C143.339 12.6319 144.483 12.3332 145.736 12.3332C146.952 12.3332 148.025 12.6138 148.95 13.1752C149.894 13.7366 150.63 14.506 151.157 15.4839C151.701 16.4618 151.974 17.5754 151.974 18.8248C151.974 19.0421 151.955 19.2685 151.919 19.5039C151.902 19.7212 151.864 19.9656 151.811 20.2373H141.078V17.7926H150.257L149.142 18.7705C149.104 17.9737 148.95 17.3038 148.678 16.7606C148.405 16.2173 148.015 15.8008 147.507 15.5111C147.016 15.2213 146.408 15.0765 145.681 15.0765C144.919 15.0765 144.256 15.2394 143.693 15.5654C143.13 15.8914 142.695 16.3531 142.385 16.9507C142.076 17.5302 141.922 18.2272 141.922 19.0421C141.922 19.857 142.086 20.5723 142.412 21.188C142.739 21.8035 143.202 22.2834 143.802 22.6275C144.401 22.9534 145.092 23.1164 145.873 23.1164C146.544 23.1164 147.161 22.9987 147.725 22.7633C148.306 22.5279 148.796 22.1838 149.195 21.7311L151.102 23.6597C150.466 24.4021 149.695 24.9633 148.787 25.3436C147.879 25.7239 146.916 25.914 145.9 25.914Z" fill="#222222"/>
</g>
<defs>
<clipPath id="clip0_31293_42509">
<rect width="152" height="32" fill="white"/>
</clipPath>
</defs>
</svg>
