<svg width="336" height="287" viewBox="0 0 336 287" fill="none" xmlns="http://www.w3.org/2000/svg">
<g filter="url(#filter0_d_29241_1576)">
<path d="M24 52.8608C24 44.8073 30.5287 38.2786 38.5823 38.2786H297.418C305.471 38.2786 312 44.8073 312 52.8608V286.279H24V52.8608Z" fill="white" shape-rendering="crispEdges"/>
<path d="M297.418 33.7219C307.988 33.7221 316.557 42.2905 316.557 52.8606V290.835H19.4434V52.8606C19.4435 42.2905 28.0119 33.7221 38.582 33.7219H297.418Z" stroke="white" stroke-opacity="0.16" stroke-width="9.11392" shape-rendering="crispEdges"/>
<g filter="url(#filter1_dii_29241_1576)">
<path d="M34.9365 54.6839C34.9365 51.6638 37.3848 49.2156 40.4049 49.2156H295.595C298.615 49.2156 301.063 51.6638 301.063 54.6839V76.5574C301.063 79.5774 298.615 82.0257 295.595 82.0257H40.4049C37.3848 82.0257 34.9365 79.5774 34.9365 76.5573V54.6839Z" fill="#0065FF"/>
<path fill-rule="evenodd" clip-rule="evenodd" d="M118.854 60.76C119.189 60.76 119.462 61.032 119.462 61.3676V65.0132H123.107C123.443 65.0132 123.715 65.2852 123.715 65.6208C123.715 65.9563 123.443 66.2284 123.107 66.2284H119.462V69.8739C119.462 70.2095 119.189 70.4815 118.854 70.4815C118.518 70.4815 118.246 70.2095 118.246 69.8739V66.2284H114.601C114.265 66.2284 113.993 65.9563 113.993 65.6208C113.993 65.2852 114.265 65.0132 114.601 65.0132H118.246V61.3676C118.246 61.032 118.518 60.76 118.854 60.76Z" fill="white"/>
<path d="M138.063 60.841H139.458V67.4201C139.458 68.0152 139.341 68.5242 139.105 68.9471C138.872 69.37 138.545 69.6932 138.122 69.9167C137.699 70.1372 137.203 70.2475 136.635 70.2475C136.113 70.2475 135.643 70.1523 135.226 69.962C134.812 69.7717 134.485 69.4953 134.243 69.1328C134.004 68.7673 133.885 68.3233 133.885 67.8007H135.276C135.276 68.0575 135.335 68.2795 135.453 68.4668C135.574 68.654 135.738 68.8006 135.947 68.9063C136.158 69.009 136.4 69.0603 136.672 69.0603C136.968 69.0603 137.218 68.9984 137.424 68.8746C137.632 68.7477 137.791 68.5619 137.9 68.3172C138.008 68.0726 138.063 67.7735 138.063 67.4201V60.841ZM144.064 70.2611C143.411 70.2611 142.842 70.1115 142.356 69.8125C141.869 69.5134 141.492 69.0951 141.223 68.5574C140.954 68.0197 140.82 67.3914 140.82 66.6725C140.82 65.9505 140.954 65.3192 141.223 64.7785C141.492 64.2378 141.869 63.8179 142.356 63.5188C142.842 63.2198 143.411 63.0703 144.064 63.0703C144.716 63.0703 145.286 63.2198 145.772 63.5188C146.258 63.8179 146.636 64.2378 146.905 64.7785C147.174 65.3192 147.308 65.9505 147.308 66.6725C147.308 67.3914 147.174 68.0197 146.905 68.5574C146.636 69.0951 146.258 69.5134 145.772 69.8125C145.286 70.1115 144.716 70.2611 144.064 70.2611ZM144.068 69.1238C144.491 69.1238 144.842 69.012 145.12 68.7885C145.397 68.5649 145.603 68.2674 145.736 67.8958C145.872 67.5243 145.94 67.115 145.94 66.6679C145.94 66.2239 145.872 65.8161 145.736 65.4445C145.603 65.07 145.397 64.7694 145.12 64.5429C144.842 64.3163 144.491 64.203 144.068 64.203C143.642 64.203 143.289 64.3163 143.008 64.5429C142.73 64.7694 142.523 65.07 142.387 65.4445C142.254 65.8161 142.188 66.2239 142.188 66.6679C142.188 67.115 142.254 67.5243 142.387 67.8958C142.523 68.2674 142.73 68.5649 143.008 68.7885C143.289 69.012 143.642 69.1238 144.068 69.1238ZM148.565 70.1206V63.1609H149.92V70.1206H148.565ZM149.249 62.087C149.014 62.087 148.811 62.0085 148.642 61.8514C148.476 61.6913 148.393 61.501 148.393 61.2805C148.393 61.057 148.476 60.8666 148.642 60.7096C148.811 60.5495 149.014 60.4694 149.249 60.4694C149.485 60.4694 149.686 60.5495 149.852 60.7096C150.021 60.8666 150.106 61.057 150.106 61.2805C150.106 61.501 150.021 61.6913 149.852 61.8514C149.686 62.0085 149.485 62.087 149.249 62.087ZM152.842 65.9883V70.1206H151.487V63.1609H152.788V64.2936H152.874C153.034 63.9251 153.285 63.6291 153.626 63.4056C153.97 63.182 154.404 63.0703 154.926 63.0703C155.401 63.0703 155.816 63.1699 156.172 63.3693C156.529 63.5657 156.805 63.8587 157.002 64.2483C157.198 64.638 157.296 65.1198 157.296 65.6937V70.1206H155.941V65.8569C155.941 65.3524 155.81 64.9582 155.547 64.6743C155.284 64.3873 154.923 64.2438 154.464 64.2438C154.15 64.2438 153.871 64.3118 153.626 64.4477C153.384 64.5836 153.193 64.783 153.051 65.0458C152.912 65.3056 152.842 65.6197 152.842 65.9883ZM169.578 60.841V70.1206H168.291L163.574 63.3149H163.488V70.1206H162.088V60.841H163.384L168.106 67.6557H168.192V60.841H169.578ZM174.256 70.2611C173.57 70.2611 172.98 70.1146 172.485 69.8216C171.992 69.5255 171.612 69.1102 171.343 68.5755C171.077 68.0378 170.944 67.408 170.944 66.6861C170.944 65.9732 171.077 65.3449 171.343 64.8011C171.612 64.2574 171.986 63.833 172.466 63.5279C172.95 63.2228 173.515 63.0703 174.161 63.0703C174.554 63.0703 174.934 63.1352 175.303 63.2651C175.671 63.395 176.002 63.5989 176.295 63.8768C176.588 64.1547 176.819 64.5157 176.988 64.9597C177.158 65.4007 177.242 65.9369 177.242 66.5682V67.0485H171.71V66.0336H175.915C175.915 65.6771 175.842 65.3615 175.697 65.0866C175.552 64.8087 175.348 64.5897 175.085 64.4296C174.826 64.2695 174.52 64.1894 174.17 64.1894C173.789 64.1894 173.457 64.2831 173.173 64.4704C172.892 64.6546 172.675 64.8963 172.521 65.1953C172.37 65.4914 172.294 65.8131 172.294 66.1605V66.9534C172.294 67.4186 172.376 67.8143 172.539 68.1405C172.705 68.4668 172.936 68.716 173.232 68.8882C173.528 69.0573 173.874 69.1419 174.27 69.1419C174.527 69.1419 174.761 69.1056 174.972 69.0331C175.184 68.9576 175.366 68.8459 175.52 68.6978C175.674 68.5498 175.792 68.3671 175.874 68.1496L177.156 68.3807C177.053 68.7583 176.869 69.089 176.603 69.373C176.34 69.6539 176.01 69.8729 175.611 70.03C175.215 70.184 174.764 70.2611 174.256 70.2611ZM179.987 70.1206L177.938 63.1609H179.339L180.702 68.2719H180.77L182.139 63.1609H183.539L184.898 68.2493H184.966L186.321 63.1609H187.721L185.678 70.1206H184.296L182.882 65.0956H182.778L181.364 70.1206H179.987ZM199.689 63.8587H198.276C198.221 63.5566 198.12 63.2908 197.972 63.0612C197.824 62.8316 197.643 62.6368 197.428 62.4767C197.214 62.3166 196.974 62.1958 196.708 62.1142C196.445 62.0326 196.166 61.9919 195.87 61.9919C195.335 61.9919 194.856 62.1263 194.433 62.3951C194.013 62.664 193.681 63.0582 193.436 63.5777C193.195 64.0973 193.074 64.7317 193.074 65.4808C193.074 66.236 193.195 66.8733 193.436 67.3929C193.681 67.9125 194.015 68.3052 194.438 68.571C194.861 68.8368 195.336 68.9697 195.865 68.9697C196.158 68.9697 196.436 68.9304 196.699 68.8519C196.965 68.7703 197.205 68.651 197.419 68.494C197.634 68.3369 197.815 68.1451 197.963 67.9185C198.114 67.6889 198.218 67.4261 198.276 67.1301L199.689 67.1346C199.614 67.5908 199.467 68.0106 199.25 68.3943C199.035 68.7749 198.759 69.1041 198.421 69.382C198.085 69.6569 197.702 69.8699 197.27 70.0209C196.838 70.172 196.366 70.2475 195.856 70.2475C195.052 70.2475 194.337 70.0572 193.708 69.6766C193.08 69.2929 192.585 68.7447 192.222 68.0318C191.863 67.3189 191.683 66.4686 191.683 65.4808C191.683 64.49 191.864 63.6397 192.227 62.9298C192.589 62.2169 193.084 61.6702 193.713 61.2895C194.341 60.9059 195.055 60.7141 195.856 60.7141C196.348 60.7141 196.807 60.7851 197.233 60.9271C197.662 61.066 198.047 61.2714 198.389 61.5433C198.73 61.8121 199.013 62.1414 199.236 62.5311C199.46 62.9177 199.611 63.3602 199.689 63.8587ZM202.355 60.841V70.1206H201.001V60.841H202.355ZM205.948 70.2747C205.507 70.2747 205.109 70.1931 204.752 70.03C204.396 69.8638 204.113 69.6237 203.905 69.3095C203.699 68.9954 203.597 68.6102 203.597 68.1541C203.597 67.7614 203.672 67.4382 203.823 67.1845C203.974 66.9307 204.178 66.7299 204.435 66.5818C204.692 66.4338 204.979 66.3221 205.296 66.2465C205.613 66.171 205.936 66.1136 206.265 66.0744C206.682 66.026 207.021 65.9868 207.28 65.9566C207.54 65.9233 207.729 65.8705 207.847 65.798C207.965 65.7255 208.024 65.6077 208.024 65.4445V65.4128C208.024 65.0171 207.912 64.7105 207.688 64.493C207.468 64.2755 207.138 64.1668 206.7 64.1668C206.244 64.1668 205.885 64.268 205.622 64.4704C205.362 64.6697 205.183 64.8918 205.083 65.1364L203.81 64.8464C203.961 64.4235 204.181 64.0822 204.471 63.8224C204.764 63.5596 205.101 63.3693 205.482 63.2515C205.862 63.1307 206.262 63.0703 206.682 63.0703C206.96 63.0703 207.255 63.1035 207.566 63.1699C207.88 63.2334 208.173 63.3512 208.445 63.5234C208.72 63.6955 208.945 63.9417 209.12 64.2619C209.295 64.5791 209.383 64.9914 209.383 65.4989V70.1206H208.06V69.1691H208.005C207.918 69.3443 207.786 69.5165 207.611 69.6856C207.436 69.8548 207.211 69.9952 206.936 70.107C206.661 70.2188 206.332 70.2747 205.948 70.2747ZM206.243 69.1872C206.617 69.1872 206.938 69.1132 207.203 68.9652C207.472 68.8172 207.676 68.6238 207.815 68.3852C207.957 68.1435 208.028 67.8853 208.028 67.6104V66.7132C207.98 66.7616 207.886 66.8069 207.747 66.8492C207.611 66.8884 207.456 66.9232 207.28 66.9534C207.105 66.9806 206.935 67.0062 206.768 67.0304C206.602 67.0516 206.463 67.0697 206.352 67.0848C206.089 67.118 205.849 67.1739 205.631 67.2524C205.417 67.331 205.244 67.4443 205.115 67.5923C204.988 67.7373 204.924 67.9306 204.924 68.1722C204.924 68.5075 205.048 68.7613 205.296 68.9335C205.544 69.1026 205.859 69.1872 206.243 69.1872ZM216.147 64.86L214.919 65.0775C214.868 64.9204 214.787 64.7709 214.675 64.6289C214.566 64.487 214.418 64.3707 214.231 64.2801C214.043 64.1894 213.809 64.1441 213.528 64.1441C213.145 64.1441 212.825 64.2302 212.568 64.4024C212.311 64.5716 212.183 64.7906 212.183 65.0594C212.183 65.292 212.269 65.4793 212.441 65.6213C212.613 65.7632 212.891 65.8795 213.275 65.9701L214.38 66.2239C215.021 66.3719 215.498 66.6 215.812 66.9081C216.126 67.2162 216.283 67.6164 216.283 68.1088C216.283 68.5257 216.163 68.8972 215.921 69.2235C215.682 69.5467 215.348 69.8004 214.919 69.9847C214.494 70.1689 214 70.2611 213.438 70.2611C212.658 70.2611 212.023 70.0949 211.53 69.7627C211.038 69.4274 210.736 68.9516 210.624 68.3354L211.934 68.136C212.015 68.4773 212.183 68.7356 212.436 68.9108C212.69 69.083 213.021 69.1691 213.429 69.1691C213.873 69.1691 214.228 69.0769 214.494 68.8927C214.759 68.7054 214.892 68.4773 214.892 68.2085C214.892 67.991 214.811 67.8082 214.648 67.6602C214.488 67.5122 214.241 67.4005 213.909 67.3249L212.731 67.0667C212.082 66.9186 211.601 66.683 211.29 66.3598C210.982 66.0366 210.828 65.6273 210.828 65.1319C210.828 64.7211 210.943 64.3616 211.172 64.0535C211.402 63.7454 211.719 63.5052 212.124 63.3331C212.529 63.1579 212.992 63.0703 213.515 63.0703C214.267 63.0703 214.859 63.2334 215.291 63.5596C215.723 63.8828 216.008 64.3163 216.147 64.86ZM222.733 64.86L221.505 65.0775C221.454 64.9204 221.372 64.7709 221.26 64.6289C221.152 64.487 221.004 64.3707 220.816 64.2801C220.629 64.1894 220.395 64.1441 220.114 64.1441C219.73 64.1441 219.41 64.2302 219.153 64.4024C218.897 64.5716 218.768 64.7906 218.768 65.0594C218.768 65.292 218.854 65.4793 219.027 65.6213C219.199 65.7632 219.477 65.8795 219.86 65.9701L220.966 66.2239C221.606 66.3719 222.084 66.6 222.398 66.9081C222.712 67.2162 222.869 67.6164 222.869 68.1088C222.869 68.5257 222.748 68.8972 222.506 69.2235C222.268 69.5467 221.934 69.8004 221.505 69.9847C221.079 70.1689 220.585 70.2611 220.023 70.2611C219.244 70.2611 218.608 70.0949 218.116 69.7627C217.623 69.4274 217.321 68.9516 217.21 68.3354L218.519 68.136C218.601 68.4773 218.768 68.7356 219.022 68.9108C219.276 69.083 219.607 69.1691 220.014 69.1691C220.458 69.1691 220.813 69.0769 221.079 68.8927C221.345 68.7054 221.478 68.4773 221.478 68.2085C221.478 67.991 221.396 67.8082 221.233 67.6602C221.073 67.5122 220.827 67.4005 220.495 67.3249L219.317 67.0667C218.667 66.9186 218.187 66.683 217.876 66.3598C217.568 66.0366 217.414 65.6273 217.414 65.1319C217.414 64.7211 217.528 64.3616 217.758 64.0535C217.987 63.7454 218.305 63.5052 218.709 63.3331C219.114 63.1579 219.578 63.0703 220.1 63.0703C220.853 63.0703 221.445 63.2334 221.877 63.5596C222.309 63.8828 222.594 64.3163 222.733 64.86Z" fill="white"/>
</g>
<path d="M42.2275 96.7446H293.771C297.723 96.7446 300.927 99.9477 300.927 103.899V122.899C300.927 126.85 297.723 130.053 293.771 130.053H42.2275C38.2763 130.053 35.0732 126.85 35.0732 122.899V103.899C35.0733 99.9477 38.2764 96.7447 42.2275 96.7446Z" fill="#E6F0FF"/>
<path d="M42.2275 96.7446H293.771C297.723 96.7446 300.927 99.9477 300.927 103.899V122.899C300.927 126.85 297.723 130.053 293.771 130.053H42.2275C38.2763 130.053 35.0732 126.85 35.0732 122.899V103.899C35.0733 99.9477 38.2764 96.7447 42.2275 96.7446Z" stroke="#6BA6FF" stroke-width="0.273418"/>
<path fill-rule="evenodd" clip-rule="evenodd" d="M55.4792 105.614C54.7968 105.614 54.2278 105.614 53.776 105.675C53.2992 105.739 52.8687 105.88 52.5228 106.226C52.1769 106.572 52.0359 107.002 51.9718 107.479C51.911 107.931 51.911 108.5 51.9111 109.182V109.261C51.911 109.944 51.911 110.513 51.9718 110.964C52.0359 111.441 52.1769 111.872 52.5228 112.218C52.8687 112.564 53.2992 112.705 53.776 112.769C54.2278 112.829 54.7968 112.829 55.4792 112.829H55.5582C56.2405 112.829 56.8096 112.829 57.2613 112.769C57.7381 112.705 58.1686 112.564 58.5145 112.218C58.8605 111.872 59.0015 111.441 59.0656 110.964C59.1263 110.513 59.1263 109.944 59.1263 109.261V109.182C59.1263 108.5 59.1263 107.931 59.0656 107.479C59.0015 107.002 58.8605 106.572 58.5145 106.226C58.1686 105.88 57.7381 105.739 57.2613 105.675C56.8096 105.614 56.2406 105.614 55.5582 105.614H55.4792ZM53.3284 107.032C53.4274 106.933 53.5773 106.851 53.9278 106.804C54.2947 106.755 54.7865 106.754 55.5187 106.754C56.2508 106.754 56.7426 106.755 57.1095 106.804C57.46 106.851 57.61 106.933 57.709 107.032C57.8079 107.131 57.8894 107.281 57.9365 107.631C57.9858 107.998 57.987 108.49 57.987 109.222C57.987 109.954 57.9858 110.446 57.9365 110.813C57.8894 111.163 57.8079 111.313 57.709 111.412C57.61 111.511 57.46 111.593 57.1095 111.64C56.7426 111.689 56.2508 111.69 55.5187 111.69C54.7865 111.69 54.2947 111.689 53.9278 111.64C53.5773 111.593 53.4274 111.511 53.3284 111.412C53.2294 111.313 53.148 111.163 53.1008 110.813C53.0515 110.446 53.0503 109.954 53.0503 109.222C53.0503 108.49 53.0515 107.998 53.1008 107.631C53.148 107.281 53.2294 107.131 53.3284 107.032Z" fill="#0065FF"/>
<path fill-rule="evenodd" clip-rule="evenodd" d="M47.1247 113.969C46.4424 113.969 45.8733 113.969 45.4216 114.029C44.9448 114.093 44.5143 114.235 44.1684 114.58C43.8225 114.926 43.6814 115.357 43.6173 115.834C43.5566 116.285 43.5566 116.854 43.5566 117.537V117.616C43.5566 118.298 43.5566 118.867 43.6173 119.319C43.6814 119.796 43.8225 120.226 44.1684 120.572C44.5143 120.918 44.9448 121.059 45.4216 121.123C45.8733 121.184 46.4424 121.184 47.1247 121.184H47.2037C47.8861 121.184 48.4551 121.184 48.9069 121.123C49.3837 121.059 49.8142 120.918 50.1601 120.572C50.506 120.226 50.647 119.796 50.7111 119.319C50.7719 118.867 50.7719 118.298 50.7718 117.616V117.537C50.7719 116.854 50.7719 116.285 50.7111 115.834C50.647 115.357 50.506 114.926 50.1601 114.58C49.8142 114.235 49.3837 114.093 48.9069 114.029C48.4552 113.969 47.8861 113.969 47.2038 113.969H47.1247ZM44.9739 115.386C45.0729 115.287 45.2229 115.206 45.5734 115.158C45.9403 115.109 46.4321 115.108 47.1642 115.108C47.8964 115.108 48.3882 115.109 48.7551 115.158C49.1056 115.206 49.2556 115.287 49.3545 115.386C49.4535 115.485 49.5349 115.635 49.5821 115.985C49.6314 116.352 49.6326 116.844 49.6326 117.576C49.6326 118.308 49.6314 118.8 49.5821 119.167C49.5349 119.518 49.4535 119.668 49.3545 119.767C49.2556 119.866 49.1056 119.947 48.7551 119.994C48.3882 120.043 47.8964 120.045 47.1642 120.045C46.4321 120.045 45.9403 120.043 45.5734 119.994C45.2229 119.947 45.0729 119.866 44.9739 119.767C44.875 119.668 44.7935 119.518 44.7464 119.167C44.6971 118.8 44.6959 118.308 44.6959 117.576C44.6959 116.844 44.6971 116.352 44.7464 115.985C44.7935 115.635 44.875 115.485 44.9739 115.386Z" fill="#0065FF"/>
<path fill-rule="evenodd" clip-rule="evenodd" d="M43.5566 109.222C43.5566 107.229 45.1718 105.614 47.1642 105.614C49.1567 105.614 50.7718 107.229 50.7718 109.222C50.7718 111.214 49.1567 112.829 47.1642 112.829C45.1718 112.829 43.5566 111.214 43.5566 109.222ZM47.1642 106.754C45.801 106.754 44.6959 107.859 44.6959 109.222C44.6959 110.585 45.801 111.69 47.1642 111.69C48.5275 111.69 49.6326 110.585 49.6326 109.222C49.6326 107.859 48.5275 106.754 47.1642 106.754Z" fill="#0065FF"/>
<path fill-rule="evenodd" clip-rule="evenodd" d="M51.9111 117.576C51.9111 115.584 53.5262 113.969 55.5187 113.969C57.5111 113.969 59.1263 115.584 59.1263 117.576C59.1263 119.569 57.5111 121.184 55.5187 121.184C53.5262 121.184 51.9111 119.569 51.9111 117.576ZM55.5187 115.108C54.1554 115.108 53.0503 116.213 53.0503 117.576C53.0503 118.94 54.1554 120.045 55.5187 120.045C56.8819 120.045 57.987 118.94 57.987 117.576C57.987 116.213 56.8819 115.108 55.5187 115.108Z" fill="#0065FF"/>
<path d="M71.7702 117.899H68.7661V108.62H71.8653C72.7746 108.62 73.5554 108.805 74.2079 109.177C74.8604 109.545 75.3603 110.076 75.7077 110.767C76.0581 111.456 76.2333 112.282 76.2333 113.246C76.2333 114.212 76.0566 115.043 75.7031 115.738C75.3527 116.433 74.8453 116.967 74.1807 117.342C73.5161 117.713 72.7126 117.899 71.7702 117.899ZM70.1662 116.676H71.6931C72.4 116.676 72.9875 116.543 73.4557 116.277C73.9239 116.008 74.2743 115.62 74.5069 115.113C74.7395 114.602 74.8558 113.98 74.8558 113.246C74.8558 112.518 74.7395 111.9 74.5069 111.393C74.2774 110.885 73.9345 110.5 73.4784 110.237C73.0223 109.974 72.4559 109.843 71.7792 109.843H70.1662V116.676ZM79.6358 118.053C79.1948 118.053 78.796 117.972 78.4396 117.809C78.0831 117.642 77.8007 117.402 77.5923 117.088C77.3869 116.774 77.2842 116.389 77.2842 115.933C77.2842 115.54 77.3597 115.217 77.5107 114.963C77.6618 114.709 77.8657 114.508 78.1224 114.36C78.3792 114.212 78.6661 114.101 78.9833 114.025C79.3005 113.95 79.6237 113.892 79.953 113.853C80.3698 113.805 80.7081 113.765 80.9679 113.735C81.2277 113.702 81.4165 113.649 81.5343 113.577C81.6521 113.504 81.711 113.386 81.711 113.223V113.191C81.711 112.796 81.5993 112.489 81.3757 112.272C81.1552 112.054 80.826 111.945 80.388 111.945C79.9318 111.945 79.5724 112.047 79.3096 112.249C79.0498 112.448 78.87 112.67 78.7704 112.915L77.4971 112.625C77.6482 112.202 77.8687 111.861 78.1587 111.601C78.4517 111.338 78.7885 111.148 79.1691 111.03C79.5497 110.909 79.9499 110.849 80.3698 110.849C80.6477 110.849 80.9423 110.882 81.2534 110.949C81.5675 111.012 81.8605 111.13 82.1324 111.302C82.4073 111.474 82.6323 111.72 82.8075 112.04C82.9827 112.358 83.0703 112.77 83.0703 113.277V117.899H81.7473V116.948H81.6929C81.6053 117.123 81.4739 117.295 81.2987 117.464C81.1235 117.633 80.8985 117.774 80.6236 117.886C80.3487 117.997 80.0194 118.053 79.6358 118.053ZM79.9303 116.966C80.3049 116.966 80.6251 116.892 80.8909 116.744C81.1597 116.596 81.3636 116.402 81.5026 116.164C81.6446 115.922 81.7156 115.664 81.7156 115.389V114.492C81.6672 114.54 81.5736 114.585 81.4346 114.628C81.2987 114.667 81.1431 114.702 80.9679 114.732C80.7927 114.759 80.6221 114.785 80.4559 114.809C80.2898 114.83 80.1508 114.848 80.0391 114.863C79.7763 114.897 79.5361 114.952 79.3186 115.031C79.1041 115.11 78.932 115.223 78.8021 115.371C78.6752 115.516 78.6118 115.709 78.6118 115.951C78.6118 116.286 78.7356 116.54 78.9833 116.712C79.231 116.881 79.5467 116.966 79.9303 116.966ZM89.8349 112.639L88.607 112.856C88.5556 112.699 88.4741 112.549 88.3623 112.408C88.2536 112.266 88.1056 112.149 87.9183 112.059C87.731 111.968 87.4969 111.923 87.216 111.923C86.8323 111.923 86.5121 112.009 86.2554 112.181C85.9986 112.35 85.8702 112.569 85.8702 112.838C85.8702 113.071 85.9563 113.258 86.1285 113.4C86.3007 113.542 86.5786 113.658 86.9622 113.749L88.0678 114.002C88.7082 114.15 89.1855 114.379 89.4996 114.687C89.8138 114.995 89.9708 115.395 89.9708 115.887C89.9708 116.304 89.85 116.676 89.6084 117.002C89.3697 117.325 89.0359 117.579 88.607 117.763C88.1811 117.948 87.6872 118.04 87.1253 118.04C86.346 118.04 85.7101 117.873 85.2178 117.541C84.7254 117.206 84.4233 116.73 84.3115 116.114L85.621 115.915C85.7026 116.256 85.8702 116.514 86.124 116.689C86.3777 116.862 86.7085 116.948 87.1163 116.948C87.5603 116.948 87.9153 116.856 88.1811 116.671C88.4469 116.484 88.5798 116.256 88.5798 115.987C88.5798 115.77 88.4982 115.587 88.3351 115.439C88.175 115.291 87.9288 115.179 87.5966 115.103L86.4185 114.845C85.769 114.697 85.2887 114.462 84.9776 114.138C84.6695 113.815 84.5154 113.406 84.5154 112.91C84.5154 112.5 84.6302 112.14 84.8598 111.832C85.0894 111.524 85.4065 111.284 85.8113 111.112C86.2161 110.936 86.6798 110.849 87.2024 110.849C87.9545 110.849 88.5466 111.012 88.9785 111.338C89.4105 111.661 89.696 112.095 89.8349 112.639ZM92.56 113.767V117.899H91.2052V108.62H92.5419V112.072H92.628C92.7911 111.698 93.0403 111.4 93.3756 111.18C93.7109 110.959 94.1489 110.849 94.6896 110.849C95.1669 110.849 95.5838 110.947 95.9402 111.143C96.2997 111.34 96.5776 111.633 96.7739 112.022C96.9733 112.409 97.073 112.892 97.073 113.472V117.899H95.7182V113.635C95.7182 113.125 95.5868 112.729 95.324 112.448C95.0612 112.164 94.6957 112.022 94.2275 112.022C93.9073 112.022 93.6203 112.09 93.3666 112.226C93.1158 112.362 92.918 112.562 92.773 112.824C92.631 113.084 92.56 113.398 92.56 113.767ZM98.7344 117.899V108.62H100.089V112.068H100.171C100.249 111.923 100.363 111.755 100.511 111.565C100.659 111.374 100.864 111.208 101.127 111.066C101.39 110.921 101.737 110.849 102.169 110.849C102.731 110.849 103.232 110.991 103.673 111.275C104.114 111.559 104.46 111.968 104.711 112.503C104.965 113.037 105.092 113.681 105.092 114.433C105.092 115.185 104.966 115.83 104.715 116.368C104.465 116.902 104.12 117.315 103.682 117.605C103.244 117.892 102.744 118.035 102.183 118.035C101.76 118.035 101.414 117.964 101.145 117.822C100.879 117.68 100.671 117.514 100.52 117.324C100.369 117.133 100.252 116.964 100.171 116.816H100.058V117.899H98.7344ZM100.062 114.419C100.062 114.909 100.133 115.338 100.275 115.706C100.417 116.075 100.622 116.363 100.891 116.572C101.16 116.777 101.489 116.88 101.879 116.88C102.284 116.88 102.622 116.772 102.894 116.558C103.166 116.34 103.371 116.046 103.51 115.674C103.652 115.303 103.723 114.884 103.723 114.419C103.723 113.96 103.654 113.548 103.515 113.182C103.379 112.817 103.173 112.528 102.898 112.317C102.627 112.105 102.287 112 101.879 112C101.486 112 101.154 112.101 100.882 112.303C100.613 112.506 100.409 112.788 100.27 113.151C100.132 113.513 100.062 113.936 100.062 114.419ZM109.289 118.04C108.637 118.04 108.067 117.89 107.581 117.591C107.095 117.292 106.717 116.874 106.448 116.336C106.179 115.798 106.045 115.17 106.045 114.451C106.045 113.729 106.179 113.098 106.448 112.557C106.717 112.016 107.095 111.596 107.581 111.297C108.067 110.998 108.637 110.849 109.289 110.849C109.942 110.849 110.511 110.998 110.997 111.297C111.484 111.596 111.861 112.016 112.13 112.557C112.399 113.098 112.533 113.729 112.533 114.451C112.533 115.17 112.399 115.798 112.13 116.336C111.861 116.874 111.484 117.292 110.997 117.591C110.511 117.89 109.942 118.04 109.289 118.04ZM109.294 116.902C109.717 116.902 110.067 116.791 110.345 116.567C110.623 116.344 110.828 116.046 110.961 115.674C111.097 115.303 111.165 114.894 111.165 114.446C111.165 114.002 111.097 113.595 110.961 113.223C110.828 112.849 110.623 112.548 110.345 112.321C110.067 112.095 109.717 111.982 109.294 111.982C108.868 111.982 108.514 112.095 108.234 112.321C107.956 112.548 107.749 112.849 107.613 113.223C107.48 113.595 107.413 114.002 107.413 114.446C107.413 114.894 107.48 115.303 107.613 115.674C107.749 116.046 107.956 116.344 108.234 116.567C108.514 116.791 108.868 116.902 109.294 116.902ZM115.816 118.053C115.375 118.053 114.976 117.972 114.62 117.809C114.263 117.642 113.981 117.402 113.772 117.088C113.567 116.774 113.464 116.389 113.464 115.933C113.464 115.54 113.54 115.217 113.691 114.963C113.842 114.709 114.046 114.508 114.303 114.36C114.559 114.212 114.846 114.101 115.163 114.025C115.481 113.95 115.804 113.892 116.133 113.853C116.55 113.805 116.888 113.765 117.148 113.735C117.408 113.702 117.597 113.649 117.714 113.577C117.832 113.504 117.891 113.386 117.891 113.223V113.191C117.891 112.796 117.779 112.489 117.556 112.272C117.335 112.054 117.006 111.945 116.568 111.945C116.112 111.945 115.753 112.047 115.49 112.249C115.23 112.448 115.05 112.67 114.951 112.915L113.677 112.625C113.828 112.202 114.049 111.861 114.339 111.601C114.632 111.338 114.969 111.148 115.349 111.03C115.73 110.909 116.13 110.849 116.55 110.849C116.828 110.849 117.122 110.882 117.434 110.949C117.748 111.012 118.041 111.13 118.313 111.302C118.587 111.474 118.812 111.72 118.988 112.04C119.163 112.358 119.25 112.77 119.25 113.277V117.899H117.927V116.948H117.873C117.785 117.123 117.654 117.295 117.479 117.464C117.304 117.633 117.079 117.774 116.804 117.886C116.529 117.997 116.2 118.053 115.816 118.053ZM116.11 116.966C116.485 116.966 116.805 116.892 117.071 116.744C117.34 116.596 117.544 116.402 117.683 116.164C117.825 115.922 117.896 115.664 117.896 115.389V114.492C117.847 114.54 117.754 114.585 117.615 114.628C117.479 114.667 117.323 114.702 117.148 114.732C116.973 114.759 116.802 114.785 116.636 114.809C116.47 114.83 116.331 114.848 116.219 114.863C115.956 114.897 115.716 114.952 115.499 115.031C115.284 115.11 115.112 115.223 114.982 115.371C114.855 115.516 114.792 115.709 114.792 115.951C114.792 116.286 114.916 116.54 115.163 116.712C115.411 116.881 115.727 116.966 116.11 116.966ZM120.8 117.899V110.939H122.109V112.045H122.182C122.309 111.67 122.532 111.376 122.852 111.161C123.176 110.944 123.541 110.835 123.949 110.835C124.033 110.835 124.133 110.838 124.248 110.844C124.366 110.85 124.458 110.858 124.524 110.867V112.163C124.47 112.148 124.373 112.131 124.234 112.113C124.095 112.092 123.956 112.081 123.817 112.081C123.497 112.081 123.212 112.149 122.961 112.285C122.713 112.418 122.517 112.604 122.372 112.842C122.227 113.078 122.155 113.347 122.155 113.649V117.899H120.8ZM127.798 118.035C127.236 118.035 126.734 117.892 126.293 117.605C125.855 117.315 125.511 116.902 125.26 116.368C125.013 115.83 124.889 115.185 124.889 114.433C124.889 113.681 125.014 113.037 125.265 112.503C125.519 111.968 125.866 111.559 126.307 111.275C126.748 110.991 127.248 110.849 127.807 110.849C128.239 110.849 128.586 110.921 128.849 111.066C129.115 111.208 129.32 111.374 129.465 111.565C129.613 111.755 129.728 111.923 129.81 112.068H129.891V108.62H131.246V117.899H129.923V116.816H129.81C129.728 116.964 129.61 117.133 129.456 117.324C129.305 117.514 129.097 117.68 128.831 117.822C128.565 117.964 128.221 118.035 127.798 118.035ZM128.097 116.88C128.486 116.88 128.816 116.777 129.085 116.572C129.356 116.363 129.562 116.075 129.701 115.706C129.843 115.338 129.914 114.909 129.914 114.419C129.914 113.936 129.844 113.513 129.705 113.151C129.566 112.788 129.362 112.506 129.094 112.303C128.825 112.101 128.492 112 128.097 112C127.689 112 127.349 112.105 127.077 112.317C126.805 112.528 126.6 112.817 126.461 113.182C126.325 113.548 126.257 113.96 126.257 114.419C126.257 114.884 126.327 115.303 126.466 115.674C126.605 116.046 126.81 116.34 127.082 116.558C127.357 116.772 127.695 116.88 128.097 116.88Z" fill="#0065FF"/>
<path d="M51.8787 147.519C51.5821 147.815 51.1012 147.815 50.8046 147.519C50.508 147.222 50.508 146.741 50.8046 146.444C51.1012 146.148 51.5821 146.148 51.8787 146.444C52.1753 146.741 52.1753 147.222 51.8787 147.519Z" fill="#2B2B2B"/>
<path d="M49.7305 144.296C49.4339 144.593 48.953 144.593 48.6564 144.296C48.3598 144 48.3598 143.519 48.6564 143.222C48.953 142.926 49.4339 142.926 49.7305 143.222C50.0271 143.519 50.0271 144 49.7305 144.296Z" fill="#2B2B2B"/>
<path d="M55.1009 149.667C54.8043 149.963 54.3235 149.963 54.0269 149.667C53.7303 149.37 53.7303 148.889 54.0269 148.593C54.3235 148.296 54.8043 148.296 55.1009 148.593C55.3975 148.889 55.3975 149.37 55.1009 149.667Z" fill="#2B2B2B"/>
<path fill-rule="evenodd" clip-rule="evenodd" d="M48.3828 141.146C47.6608 141.023 47.2302 141.158 47.0044 141.383C46.835 141.553 46.7178 141.831 46.7208 142.271C46.7237 142.714 46.8503 143.275 47.1165 143.922C47.6477 145.214 48.6903 146.747 50.1334 148.19C51.5764 149.633 53.1088 150.675 54.4011 151.207C55.0485 151.473 55.6086 151.599 56.0517 151.602C56.492 151.605 56.7703 151.488 56.9397 151.319C57.1655 151.093 57.3003 150.662 57.1769 149.94C57.0808 149.378 56.8369 148.709 56.4482 147.978C56.2916 148.059 56.0959 148.109 55.8702 148.069C55.3228 147.97 54.293 147.516 52.55 145.773C50.807 144.03 50.3526 143 50.2543 142.453C50.2138 142.227 50.2637 142.032 50.3448 141.875C49.6139 141.486 48.9447 141.242 48.3828 141.146ZM51.2169 141.055C50.29 140.524 49.3839 140.162 48.5748 140.023C47.689 139.872 46.8026 139.974 46.1988 140.578C45.7493 141.027 45.5773 141.639 45.5815 142.279C45.5858 142.916 45.7627 143.625 46.0628 144.355C46.664 145.818 47.8048 147.472 49.3278 148.995C50.8508 150.518 52.5053 151.659 53.968 152.26C54.6981 152.56 55.4074 152.737 56.0441 152.742C56.6837 152.746 57.2957 152.574 57.7452 152.124C58.349 151.52 58.4512 150.634 58.2998 149.748C58.1615 148.939 57.7994 148.033 57.2676 147.106C58.3219 145.493 58.1405 143.308 56.7235 141.891L56.4321 141.6C55.0151 140.183 52.8304 140.001 51.2169 141.055ZM51.402 142.357C51.499 142.676 51.881 143.493 53.3556 144.968C54.8302 146.442 55.647 146.824 55.9658 146.921C57.0978 145.738 57.0819 143.86 55.9179 142.697L55.6266 142.405C54.4626 141.241 52.5854 141.225 51.402 142.357ZM45.8369 146.042C46.0594 146.264 46.0594 146.625 45.837 146.847L44.2258 148.458C44.0034 148.681 43.6427 148.681 43.4203 148.458C43.1978 148.236 43.1978 147.875 43.4203 147.653L45.0314 146.042C45.2538 145.819 45.6145 145.819 45.8369 146.042ZM48.5222 149.801C48.7446 150.023 48.7446 150.384 48.5222 150.606L45.392 153.737C45.1696 153.959 44.8089 153.959 44.5865 153.737C44.364 153.514 44.364 153.154 44.5865 152.931L47.7166 149.801C47.9391 149.578 48.2997 149.578 48.5222 149.801ZM52.2815 152.486C52.5039 152.709 52.5039 153.069 52.2815 153.292L50.6703 154.903C50.4479 155.125 50.0872 155.125 49.8648 154.903C49.6423 154.68 49.6423 154.32 49.8648 154.097L51.4759 152.486C51.6984 152.264 52.059 152.264 52.2815 152.486Z" fill="#2B2B2B"/>
<path d="M68.7661 151.481V142.202H70.1662V150.276H74.371V151.481H68.7661ZM78.6038 151.622C77.9181 151.622 77.3276 151.475 76.8322 151.182C76.3398 150.886 75.9592 150.471 75.6904 149.936C75.4245 149.399 75.2916 148.769 75.2916 148.047C75.2916 147.334 75.4245 146.706 75.6904 146.162C75.9592 145.618 76.3338 145.194 76.8141 144.889C77.2974 144.584 77.8623 144.431 78.5087 144.431C78.9014 144.431 79.282 144.496 79.6505 144.626C80.019 144.756 80.3498 144.96 80.6428 145.238C80.9358 145.516 81.1669 145.877 81.3361 146.321C81.5052 146.762 81.5898 147.298 81.5898 147.929V148.409H76.0574V147.394H80.2622C80.2622 147.038 80.1897 146.722 80.0447 146.447C79.8997 146.17 79.6958 145.951 79.433 145.79C79.1732 145.63 78.8682 145.55 78.5178 145.55C78.1371 145.55 77.8049 145.644 77.5209 145.831C77.24 146.015 77.0225 146.257 76.8684 146.556C76.7174 146.852 76.6419 147.174 76.6419 147.521V148.314C76.6419 148.779 76.7234 149.175 76.8866 149.501C77.0527 149.828 77.2838 150.077 77.5798 150.249C77.8758 150.418 78.2217 150.503 78.6174 150.503C78.8742 150.503 79.1083 150.466 79.3198 150.394C79.5312 150.318 79.714 150.207 79.868 150.059C80.0221 149.911 80.1399 149.728 80.2214 149.51L81.5037 149.742C81.401 150.119 81.2168 150.45 80.9509 150.734C80.6881 151.015 80.3574 151.234 79.9586 151.391C79.5629 151.545 79.1113 151.622 78.6038 151.622ZM84.8632 151.636C84.4222 151.636 84.0234 151.554 83.667 151.391C83.3106 151.225 83.0281 150.985 82.8197 150.67C82.6143 150.356 82.5116 149.971 82.5116 149.515C82.5116 149.122 82.5871 148.799 82.7381 148.545C82.8892 148.292 83.0931 148.091 83.3498 147.943C83.6066 147.795 83.8935 147.683 84.2107 147.607C84.5279 147.532 84.8511 147.474 85.1804 147.435C85.5972 147.387 85.9356 147.348 86.1953 147.317C86.4551 147.284 86.6439 147.231 86.7617 147.159C86.8795 147.086 86.9384 146.968 86.9384 146.805V146.774C86.9384 146.378 86.8267 146.071 86.6031 145.854C86.3826 145.636 86.0534 145.528 85.6154 145.528C85.1592 145.528 84.7998 145.629 84.537 145.831C84.2772 146.031 84.0974 146.253 83.9978 146.497L82.7245 146.207C82.8756 145.784 83.0961 145.443 83.3861 145.183C83.6791 144.92 84.0159 144.73 84.3965 144.612C84.7771 144.492 85.1774 144.431 85.5972 144.431C85.8751 144.431 86.1697 144.464 86.4808 144.531C86.7949 144.594 87.088 144.712 87.3598 144.884C87.6347 145.056 87.8597 145.303 88.0349 145.623C88.2101 145.94 88.2977 146.352 88.2977 146.86V151.481H86.9747V150.53H86.9203C86.8327 150.705 86.7013 150.877 86.5261 151.046C86.3509 151.216 86.1259 151.356 85.851 151.468C85.5761 151.58 85.2468 151.636 84.8632 151.636ZM85.1577 150.548C85.5323 150.548 85.8525 150.474 86.1183 150.326C86.3871 150.178 86.591 149.985 86.73 149.746C86.872 149.504 86.943 149.246 86.943 148.971V148.074C86.8946 148.122 86.801 148.168 86.662 148.21C86.5261 148.249 86.3705 148.284 86.1953 148.314C86.0201 148.341 85.8495 148.367 85.6833 148.391C85.5172 148.412 85.3782 148.431 85.2665 148.446C85.0037 148.479 84.7635 148.535 84.546 148.613C84.3316 148.692 84.1594 148.805 84.0295 148.953C83.9026 149.098 83.8392 149.291 83.8392 149.533C83.8392 149.868 83.963 150.122 84.2107 150.294C84.4584 150.463 84.7741 150.548 85.1577 150.548ZM89.8471 151.481V144.522H91.1565V145.627H91.229C91.3559 145.253 91.5794 144.958 91.8996 144.744C92.2229 144.526 92.5884 144.418 92.9962 144.418C93.0807 144.418 93.1804 144.421 93.2952 144.427C93.413 144.433 93.5051 144.44 93.5716 144.449V145.745C93.5172 145.73 93.4206 145.713 93.2816 145.695C93.1427 145.674 93.0037 145.664 92.8648 145.664C92.5446 145.664 92.2591 145.732 92.0084 145.867C91.7607 146 91.5643 146.186 91.4193 146.425C91.2743 146.66 91.2018 146.929 91.2018 147.231V151.481H89.8471ZM95.8436 147.349V151.481H94.4888V144.522H95.7892V145.654H95.8753C96.0354 145.286 96.2861 144.99 96.6275 144.766C96.9718 144.543 97.4053 144.431 97.9279 144.431C98.4022 144.431 98.8175 144.531 99.1739 144.73C99.5304 144.926 99.8068 145.22 100.003 145.609C100.199 145.999 100.298 146.481 100.298 147.055V151.481H98.9429V147.218C98.9429 146.713 98.8115 146.319 98.5487 146.035C98.2859 145.748 97.9249 145.605 97.4657 145.605C97.1516 145.605 96.8722 145.673 96.6275 145.809C96.3858 145.944 96.194 146.144 96.052 146.407C95.9131 146.666 95.8436 146.981 95.8436 147.349ZM101.859 151.481V144.522H103.214V151.481H101.859ZM102.544 143.448C102.308 143.448 102.106 143.369 101.936 143.212C101.77 143.052 101.687 142.862 101.687 142.641C101.687 142.418 101.77 142.227 101.936 142.07C102.106 141.91 102.308 141.83 102.544 141.83C102.779 141.83 102.98 141.91 103.146 142.07C103.315 142.227 103.4 142.418 103.4 142.641C103.4 142.862 103.315 143.052 103.146 143.212C102.98 143.369 102.779 143.448 102.544 143.448ZM106.136 147.349V151.481H104.782V144.522H106.082V145.654H106.168C106.328 145.286 106.579 144.99 106.92 144.766C107.265 144.543 107.698 144.431 108.221 144.431C108.695 144.431 109.11 144.531 109.467 144.73C109.823 144.926 110.1 145.22 110.296 145.609C110.492 145.999 110.59 146.481 110.59 147.055V151.481H109.236V147.218C109.236 146.713 109.104 146.319 108.841 146.035C108.579 145.748 108.218 145.605 107.759 145.605C107.444 145.605 107.165 145.673 106.92 145.809C106.679 145.944 106.487 146.144 106.345 146.407C106.206 146.666 106.136 146.981 106.136 147.349ZM115.07 154.236C114.517 154.236 114.042 154.164 113.643 154.019C113.247 153.874 112.924 153.682 112.673 153.443C112.423 153.205 112.235 152.943 112.111 152.66L113.276 152.179C113.358 152.312 113.466 152.453 113.602 152.601C113.741 152.752 113.928 152.88 114.164 152.986C114.403 153.091 114.709 153.144 115.084 153.144C115.597 153.144 116.022 153.019 116.357 152.768C116.692 152.521 116.86 152.125 116.86 151.581V150.213H116.774C116.692 150.361 116.575 150.525 116.421 150.707C116.269 150.888 116.061 151.045 115.795 151.178C115.529 151.311 115.184 151.377 114.758 151.377C114.208 151.377 113.712 151.249 113.271 150.992C112.833 150.732 112.486 150.35 112.229 149.846C111.976 149.338 111.849 148.714 111.849 147.974C111.849 147.234 111.974 146.6 112.225 146.071C112.478 145.543 112.826 145.138 113.267 144.857C113.708 144.573 114.208 144.431 114.767 144.431C115.199 144.431 115.548 144.504 115.813 144.649C116.079 144.791 116.286 144.957 116.434 145.147C116.585 145.337 116.701 145.505 116.783 145.65H116.883V144.522H118.21V151.636C118.21 152.234 118.071 152.724 117.793 153.108C117.516 153.492 117.139 153.776 116.665 153.96C116.194 154.144 115.662 154.236 115.07 154.236ZM115.057 150.254C115.446 150.254 115.776 150.163 116.044 149.982C116.316 149.797 116.522 149.535 116.661 149.193C116.803 148.849 116.874 148.437 116.874 147.956C116.874 147.488 116.804 147.076 116.665 146.719C116.526 146.363 116.322 146.085 116.053 145.886C115.785 145.683 115.452 145.582 115.057 145.582C114.649 145.582 114.309 145.688 114.037 145.899C113.765 146.108 113.56 146.392 113.421 146.751C113.285 147.11 113.217 147.512 113.217 147.956C113.217 148.412 113.287 148.813 113.425 149.157C113.564 149.501 113.77 149.77 114.042 149.964C114.317 150.157 114.655 150.254 115.057 150.254ZM123.002 151.481V142.202H126.31C127.032 142.202 127.63 142.333 128.104 142.596C128.579 142.859 128.934 143.218 129.169 143.674C129.405 144.128 129.523 144.638 129.523 145.206C129.523 145.777 129.403 146.29 129.165 146.746C128.929 147.2 128.573 147.559 128.095 147.825C127.621 148.088 127.024 148.219 126.306 148.219H124.031V147.032H126.179C126.635 147.032 127.005 146.953 127.289 146.796C127.573 146.636 127.781 146.419 127.914 146.144C128.047 145.869 128.113 145.556 128.113 145.206C128.113 144.856 128.047 144.544 127.914 144.273C127.781 144.001 127.571 143.788 127.284 143.634C127 143.48 126.626 143.403 126.161 143.403H124.402V151.481H123.002ZM132.763 151.636C132.322 151.636 131.923 151.554 131.567 151.391C131.21 151.225 130.928 150.985 130.72 150.67C130.514 150.356 130.412 149.971 130.412 149.515C130.412 149.122 130.487 148.799 130.638 148.545C130.789 148.292 130.993 148.091 131.25 147.943C131.507 147.795 131.793 147.683 132.111 147.607C132.428 147.532 132.751 147.474 133.08 147.435C133.497 147.387 133.835 147.348 134.095 147.317C134.355 147.284 134.544 147.231 134.662 147.159C134.779 147.086 134.838 146.968 134.838 146.805V146.774C134.838 146.378 134.727 146.071 134.503 145.854C134.283 145.636 133.953 145.528 133.515 145.528C133.059 145.528 132.7 145.629 132.437 145.831C132.177 146.031 131.997 146.253 131.898 146.497L130.624 146.207C130.776 145.784 130.996 145.443 131.286 145.183C131.579 144.92 131.916 144.73 132.296 144.612C132.677 144.492 133.077 144.431 133.497 144.431C133.775 144.431 134.07 144.464 134.381 144.531C134.695 144.594 134.988 144.712 135.26 144.884C135.535 145.056 135.76 145.303 135.935 145.623C136.11 145.94 136.198 146.352 136.198 146.86V151.481H134.875V150.53H134.82C134.733 150.705 134.601 150.877 134.426 151.046C134.251 151.216 134.026 151.356 133.751 151.468C133.476 151.58 133.147 151.636 132.763 151.636ZM133.058 150.548C133.432 150.548 133.752 150.474 134.018 150.326C134.287 150.178 134.491 149.985 134.63 149.746C134.772 149.504 134.843 149.246 134.843 148.971V148.074C134.795 148.122 134.701 148.168 134.562 148.21C134.426 148.249 134.27 148.284 134.095 148.314C133.92 148.341 133.749 148.367 133.583 148.391C133.417 148.412 133.278 148.431 133.166 148.446C132.904 148.479 132.663 148.535 132.446 148.613C132.231 148.692 132.059 148.805 131.929 148.953C131.803 149.098 131.739 149.291 131.739 149.533C131.739 149.868 131.863 150.122 132.111 150.294C132.358 150.463 132.674 150.548 133.058 150.548ZM140.996 144.522V145.609H137.194V144.522H140.996ZM138.214 142.854H139.568V149.438C139.568 149.701 139.608 149.899 139.686 150.032C139.765 150.161 139.866 150.251 139.99 150.299C140.117 150.344 140.254 150.367 140.402 150.367C140.511 150.367 140.606 150.359 140.688 150.344C140.769 150.329 140.833 150.317 140.878 150.308L141.123 151.427C141.044 151.457 140.932 151.487 140.787 151.518C140.642 151.551 140.461 151.569 140.244 151.572C139.887 151.578 139.555 151.515 139.247 151.382C138.939 151.249 138.689 151.043 138.499 150.766C138.309 150.488 138.214 150.139 138.214 149.719V142.854ZM143.744 147.349V151.481H142.389V142.202H143.725V145.654H143.812C143.975 145.28 144.224 144.982 144.559 144.762C144.894 144.541 145.332 144.431 145.873 144.431C146.35 144.431 146.767 144.529 147.124 144.726C147.483 144.922 147.761 145.215 147.957 145.605C148.157 145.991 148.256 146.475 148.256 147.055V151.481H146.902V147.218C146.902 146.707 146.77 146.311 146.508 146.031C146.245 145.747 145.879 145.605 145.411 145.605C145.091 145.605 144.804 145.673 144.55 145.809C144.299 145.944 144.102 146.144 143.957 146.407C143.815 146.666 143.744 146.981 143.744 147.349ZM151.318 151.481L149.27 144.522H150.67L152.034 149.633H152.102L153.47 144.522H154.87L156.23 149.61H156.298L157.652 144.522H159.053L157.009 151.481H155.627L154.213 146.456H154.109L152.695 151.481H151.318ZM162.108 151.636C161.667 151.636 161.269 151.554 160.912 151.391C160.556 151.225 160.273 150.985 160.065 150.67C159.86 150.356 159.757 149.971 159.757 149.515C159.757 149.122 159.832 148.799 159.983 148.545C160.134 148.292 160.338 148.091 160.595 147.943C160.852 147.795 161.139 147.683 161.456 147.607C161.773 147.532 162.096 147.474 162.426 147.435C162.843 147.387 163.181 147.348 163.441 147.317C163.7 147.284 163.889 147.231 164.007 147.159C164.125 147.086 164.184 146.968 164.184 146.805V146.774C164.184 146.378 164.072 146.071 163.848 145.854C163.628 145.636 163.299 145.528 162.861 145.528C162.405 145.528 162.045 145.629 161.782 145.831C161.522 146.031 161.343 146.253 161.243 146.497L159.97 146.207C160.121 145.784 160.341 145.443 160.631 145.183C160.924 144.92 161.261 144.73 161.642 144.612C162.022 144.492 162.423 144.431 162.843 144.431C163.12 144.431 163.415 144.464 163.726 144.531C164.04 144.594 164.333 144.712 164.605 144.884C164.88 145.056 165.105 145.303 165.28 145.623C165.455 145.94 165.543 146.352 165.543 146.86V151.481H164.22V150.53H164.166C164.078 150.705 163.947 150.877 163.771 151.046C163.596 151.216 163.371 151.356 163.096 151.468C162.821 151.58 162.492 151.636 162.108 151.636ZM162.403 150.548C162.778 150.548 163.098 150.474 163.364 150.326C163.632 150.178 163.836 149.985 163.975 149.746C164.117 149.504 164.188 149.246 164.188 148.971V148.074C164.14 148.122 164.046 148.168 163.907 148.21C163.771 148.249 163.616 148.284 163.441 148.314C163.265 148.341 163.095 148.367 162.929 148.391C162.762 148.412 162.624 148.431 162.512 148.446C162.249 148.479 162.009 148.535 161.791 148.613C161.577 148.692 161.405 148.805 161.275 148.953C161.148 149.098 161.084 149.291 161.084 149.533C161.084 149.868 161.208 150.122 161.456 150.294C161.704 150.463 162.019 150.548 162.403 150.548ZM167.699 154.091C167.497 154.091 167.313 154.075 167.147 154.041C166.981 154.011 166.857 153.978 166.775 153.942L167.101 152.832C167.349 152.898 167.57 152.927 167.763 152.918C167.956 152.909 168.127 152.836 168.275 152.7C168.426 152.564 168.559 152.342 168.674 152.034L168.841 151.572L166.295 144.522H167.745L169.507 149.923H169.58L171.342 144.522H172.797L169.929 152.41C169.796 152.773 169.627 153.079 169.421 153.33C169.216 153.584 168.971 153.774 168.687 153.901C168.403 154.028 168.074 154.091 167.699 154.091Z" fill="#2B2B2B"/>
<path fill-rule="evenodd" clip-rule="evenodd" d="M49.0212 172.399H53.6615C54.7001 172.399 55.5374 172.399 56.1958 172.488C56.8794 172.58 57.455 172.776 57.9122 173.233C58.3693 173.691 58.566 174.266 58.6579 174.95C58.7464 175.608 58.7464 176.445 58.7464 177.484V183.643C58.7464 184.682 58.7464 185.519 58.6579 186.178C58.566 186.861 58.3693 187.437 57.9122 187.894C57.455 188.351 56.8794 188.548 56.1958 188.64C55.5374 188.728 54.7001 188.728 53.6615 188.728H49.0212C48.783 188.728 48.5555 188.728 48.3383 188.727C48.3267 188.728 48.3151 188.728 48.3033 188.728C48.2894 188.728 48.2756 188.728 48.262 188.727C47.5652 188.722 46.9765 188.706 46.4868 188.64C45.8032 188.548 45.2276 188.351 44.7704 187.894C44.3133 187.437 44.1167 186.861 44.0247 186.178C43.9517 185.635 43.939 184.97 43.9367 184.171H43.7464C43.4318 184.171 43.1768 183.916 43.1768 183.602C43.1768 183.287 43.4318 183.032 43.7464 183.032H43.9363V181.133H43.7464C43.4318 181.133 43.1768 180.878 43.1768 180.564C43.1768 180.249 43.4318 179.994 43.7464 179.994H43.9363V178.095H43.7464C43.4318 178.095 43.1768 177.84 43.1768 177.526C43.1768 177.211 43.4318 176.956 43.7464 176.956H43.9367C43.939 176.157 43.9517 175.493 44.0247 174.95C44.1167 174.266 44.3133 173.691 44.7704 173.233C45.2276 172.776 45.8032 172.58 46.4868 172.488C47.1453 172.399 47.9825 172.399 49.0212 172.399ZM45.0755 178.095H45.2654C45.58 178.095 45.835 177.84 45.835 177.526C45.835 177.211 45.58 176.956 45.2654 176.956H45.0761C45.0785 176.162 45.0909 175.57 45.1538 175.102C45.2288 174.544 45.3658 174.249 45.576 174.039C45.7862 173.829 46.0813 173.692 46.6386 173.617C46.9437 173.576 47.3015 173.556 47.7337 173.547V187.581C47.3015 187.571 46.9437 187.552 46.6386 187.511C46.0813 187.436 45.7862 187.299 45.576 187.089C45.3658 186.878 45.2288 186.583 45.1538 186.026C45.0909 185.558 45.0785 184.966 45.0761 184.171H45.2654C45.58 184.171 45.835 183.916 45.835 183.602C45.835 183.287 45.58 183.032 45.2654 183.032H45.0755V181.133H45.2654C45.58 181.133 45.835 180.878 45.835 180.564C45.835 180.249 45.58 179.994 45.2654 179.994H45.0755V178.095ZM48.873 187.589C48.9351 187.589 48.9984 187.589 49.0628 187.589H53.6198C54.71 187.589 55.4703 187.588 56.044 187.511C56.6013 187.436 56.8964 187.299 57.1066 187.089C57.3168 186.878 57.4539 186.583 57.5288 186.026C57.6059 185.452 57.6071 184.692 57.6071 183.602V177.526C57.6071 176.436 57.6059 175.675 57.5288 175.102C57.4539 174.544 57.3168 174.249 57.1066 174.039C56.8964 173.829 56.6013 173.692 56.044 173.617C55.4703 173.54 54.71 173.538 53.6198 173.538H49.0628C48.9984 173.538 48.9351 173.538 48.873 173.538V187.589ZM50.3919 176.387C50.3919 176.072 50.647 175.817 50.9616 175.817H54.759C55.0736 175.817 55.3287 176.072 55.3287 176.387C55.3287 176.701 55.0736 176.956 54.759 176.956H50.9616C50.647 176.956 50.3919 176.701 50.3919 176.387ZM50.3919 179.045C50.3919 178.73 50.647 178.475 50.9616 178.475H54.759C55.0736 178.475 55.3287 178.73 55.3287 179.045C55.3287 179.359 55.0736 179.614 54.759 179.614H50.9616C50.647 179.614 50.3919 179.359 50.3919 179.045Z" fill="#2B2B2B"/>
<path d="M68.7661 175.784H70.4652L73.4195 182.998H73.5282L76.4825 175.784H78.1816V185.064H76.8495V178.349H76.7634L74.0266 185.05H72.9211L70.1843 178.344H70.0982V185.064H68.7661V175.784ZM80.7097 187.674C80.5073 187.674 80.323 187.657 80.1569 187.624C79.9907 187.594 79.8669 187.56 79.7853 187.524L80.1116 186.414C80.3593 186.48 80.5798 186.509 80.7731 186.5C80.9664 186.491 81.1371 186.419 81.2851 186.283C81.4361 186.147 81.569 185.925 81.6838 185.617L81.8515 185.154L79.305 178.104H80.755L82.5176 183.505H82.5901L84.3526 178.104H85.8071L82.9389 185.993C82.806 186.355 82.6369 186.662 82.4315 186.912C82.2261 187.166 81.9814 187.356 81.6974 187.483C81.4135 187.61 81.0842 187.674 80.7097 187.674ZM95.1167 178.222C95.0684 177.793 94.869 177.461 94.5186 177.225C94.1682 176.986 93.7272 176.867 93.1955 176.867C92.8149 176.867 92.4857 176.927 92.2077 177.048C91.9298 177.166 91.7139 177.329 91.5598 177.538C91.4088 177.743 91.3333 177.977 91.3333 178.24C91.3333 178.46 91.3846 178.651 91.4873 178.811C91.593 178.971 91.7305 179.105 91.8996 179.214C92.0718 179.32 92.2561 179.409 92.4524 179.481C92.6488 179.551 92.8376 179.608 93.0188 179.654L93.925 179.889C94.2211 179.962 94.5246 180.06 94.8358 180.184C95.1469 180.308 95.4354 180.471 95.7012 180.673C95.967 180.876 96.1815 181.126 96.3446 181.425C96.5108 181.724 96.5938 182.082 96.5938 182.499C96.5938 183.025 96.4579 183.491 96.186 183.899C95.9172 184.307 95.526 184.629 95.0125 184.864C94.502 185.1 93.8842 185.218 93.1593 185.218C92.4645 185.218 91.8634 185.108 91.3559 184.887C90.8484 184.666 90.4512 184.354 90.1642 183.949C89.8773 183.541 89.7187 183.058 89.6885 182.499H91.0931C91.1203 182.834 91.229 183.114 91.4193 183.337C91.6127 183.558 91.8589 183.723 92.1579 183.831C92.46 183.937 92.7907 183.99 93.1502 183.99C93.5459 183.99 93.8978 183.928 94.2059 183.804C94.5171 183.677 94.7618 183.502 94.94 183.278C95.1182 183.052 95.2073 182.788 95.2073 182.486C95.2073 182.211 95.1288 181.986 94.9717 181.81C94.8176 181.635 94.6077 181.49 94.3419 181.375C94.0791 181.261 93.7815 181.159 93.4493 181.072L92.3527 180.773C91.6096 180.57 91.0206 180.273 90.5856 179.88C90.1537 179.487 89.9377 178.968 89.9377 178.321C89.9377 177.787 90.0827 177.32 90.3727 176.921C90.6627 176.523 91.0553 176.213 91.5507 175.993C92.0461 175.769 92.605 175.657 93.2272 175.657C93.8555 175.657 94.4098 175.767 94.8901 175.988C95.3735 176.208 95.7541 176.512 96.032 176.899C96.3099 177.282 96.4549 177.723 96.467 178.222H95.1167ZM101.152 178.104V179.191H97.3502V178.104H101.152ZM98.3697 176.437H99.7245V183.02C99.7245 183.283 99.7637 183.481 99.8423 183.614C99.9208 183.744 100.022 183.833 100.146 183.881C100.273 183.926 100.41 183.949 100.558 183.949C100.667 183.949 100.762 183.942 100.844 183.926C100.925 183.911 100.989 183.899 101.034 183.89L101.279 185.009C101.2 185.04 101.088 185.07 100.943 185.1C100.798 185.133 100.617 185.151 100.4 185.154C100.043 185.16 99.7109 185.097 99.4028 184.964C99.0947 184.831 98.8454 184.626 98.6551 184.348C98.4648 184.07 98.3697 183.721 98.3697 183.301V176.437ZM106.804 182.177V178.104H108.163V185.064H106.831V183.858H106.759C106.599 184.23 106.342 184.54 105.988 184.787C105.638 185.032 105.201 185.154 104.679 185.154C104.232 185.154 103.836 185.056 103.492 184.86C103.15 184.66 102.882 184.366 102.685 183.976C102.492 183.587 102.395 183.105 102.395 182.531V178.104H103.75V182.368C103.75 182.842 103.881 183.22 104.144 183.501C104.407 183.781 104.748 183.922 105.168 183.922C105.422 183.922 105.674 183.858 105.925 183.732C106.179 183.605 106.389 183.413 106.555 183.156C106.724 182.899 106.807 182.573 106.804 182.177ZM112.334 185.2C111.772 185.2 111.271 185.056 110.829 184.769C110.391 184.479 110.047 184.067 109.796 183.532C109.549 182.995 109.425 182.35 109.425 181.597C109.425 180.845 109.55 180.202 109.801 179.667C110.055 179.133 110.402 178.723 110.843 178.439C111.284 178.155 111.784 178.013 112.343 178.013C112.775 178.013 113.122 178.086 113.385 178.231C113.651 178.373 113.856 178.539 114.001 178.729C114.149 178.92 114.264 179.087 114.346 179.232H114.427V175.784H115.782V185.064H114.459V183.981H114.346C114.264 184.129 114.146 184.298 113.992 184.488C113.841 184.679 113.633 184.845 113.367 184.987C113.101 185.129 112.757 185.2 112.334 185.2ZM112.633 184.044C113.023 184.044 113.352 183.942 113.621 183.736C113.892 183.528 114.098 183.239 114.237 182.871C114.379 182.502 114.45 182.073 114.45 181.584C114.45 181.101 114.38 180.678 114.241 180.315C114.102 179.953 113.899 179.67 113.63 179.468C113.361 179.265 113.029 179.164 112.633 179.164C112.225 179.164 111.885 179.27 111.613 179.481C111.342 179.693 111.136 179.981 110.997 180.347C110.861 180.712 110.793 181.125 110.793 181.584C110.793 182.049 110.863 182.467 111.002 182.839C111.141 183.211 111.346 183.505 111.618 183.723C111.893 183.937 112.231 184.044 112.633 184.044ZM118.317 187.674C118.114 187.674 117.93 187.657 117.764 187.624C117.598 187.594 117.474 187.56 117.392 187.524L117.719 186.414C117.966 186.48 118.187 186.509 118.38 186.5C118.574 186.491 118.744 186.419 118.892 186.283C119.043 186.147 119.176 185.925 119.291 185.617L119.459 185.154L116.912 178.104H118.362L120.125 183.505H120.197L121.96 178.104H123.414L120.546 185.993C120.413 186.355 120.244 186.662 120.039 186.912C119.833 187.166 119.588 187.356 119.305 187.483C119.021 187.61 118.691 187.674 118.317 187.674Z" fill="#2B2B2B"/>
<g clip-path="url(#clip0_29241_1576)">
<path fill-rule="evenodd" clip-rule="evenodd" d="M51.2977 205.981H51.3849C53.1381 205.981 54.5121 205.981 55.5841 206.126C56.6813 206.273 57.5472 206.581 58.2268 207.261C58.9064 207.94 59.2142 208.806 59.3618 209.903C59.5059 210.975 59.5059 212.349 59.5059 214.102V214.19C59.5059 215.943 59.5059 217.317 59.3618 218.389C59.2142 219.486 58.9064 220.352 58.2268 221.031C57.5472 221.711 56.6813 222.019 55.5841 222.166C54.5121 222.311 53.1381 222.311 51.3849 222.311H51.2977C49.5445 222.311 48.1706 222.311 47.0986 222.166C46.0013 222.019 45.1355 221.711 44.4558 221.031C43.7762 220.352 43.4684 219.486 43.3209 218.389C43.1767 217.317 43.1767 215.943 43.1768 214.19V214.102C43.1767 212.349 43.1767 210.975 43.3209 209.903C43.4684 208.806 43.7762 207.94 44.4558 207.261C45.1355 206.581 46.0013 206.273 47.0986 206.126C48.1706 205.981 49.5445 205.981 51.2977 205.981ZM47.2504 207.255C46.2794 207.385 45.6941 207.633 45.2614 208.066C44.8288 208.499 44.5805 209.084 44.45 210.055C44.3172 211.042 44.316 212.34 44.316 214.146C44.316 215.952 44.3172 217.25 44.45 218.237C44.54 218.907 44.686 219.393 44.9098 219.772L56.9672 207.715C56.588 207.491 56.1018 207.345 55.4323 207.255C54.4449 207.122 53.1476 207.121 51.3413 207.121C49.5351 207.121 48.2377 207.122 47.2504 207.255ZM57.7728 208.52L45.7154 220.577C46.0946 220.801 46.5808 220.947 47.2504 221.037C48.2377 221.17 49.5351 221.171 51.3413 221.171C53.1476 221.171 54.4449 221.17 55.4323 221.037C56.4032 220.907 56.9886 220.659 57.4212 220.226C57.8539 219.793 58.1021 219.208 58.2327 218.237C58.3654 217.25 58.3666 215.952 58.3666 214.146C58.3666 212.34 58.3654 211.042 58.2327 210.055C58.1427 209.385 57.9966 208.899 57.7728 208.52ZM48.3033 208.64C48.6179 208.64 48.873 208.895 48.873 209.209L48.873 210.538H50.2021C50.5167 210.538 50.7717 210.793 50.7717 211.108C50.7717 211.423 50.5167 211.678 50.2021 211.678H48.873L48.873 213.007C48.873 213.321 48.6179 213.576 48.3033 213.576C47.9887 213.576 47.7337 213.321 47.7337 213.007L47.7337 211.678L46.4046 211.678C46.09 211.678 45.835 211.423 45.835 211.108C45.835 210.793 46.09 210.538 46.4046 210.538L47.7337 210.538L47.7337 209.209C47.7337 208.895 47.9887 208.64 48.3033 208.64ZM51.5312 217.943C51.5312 217.629 51.7862 217.374 52.1008 217.374H55.8983C56.2129 217.374 56.4679 217.629 56.4679 217.943C56.4679 218.258 56.2129 218.513 55.8983 218.513H52.1008C51.7862 218.513 51.5312 218.258 51.5312 217.943Z" fill="#2B2B2B"/>
</g>
<path d="M68.7661 218.646V209.366H74.584V210.572H70.1662V213.399H74.2804V214.6H70.1662V217.441H74.6383V218.646H68.7661ZM77.1596 211.686L78.6956 214.396L80.2452 211.686H81.7269L79.5565 215.166L81.745 218.646H80.2633L78.6956 216.045L77.1324 218.646H75.6462L77.812 215.166L75.6734 211.686H77.1596ZM84.8757 218.8C84.4346 218.8 84.0359 218.718 83.6795 218.555C83.323 218.389 83.0406 218.149 82.8321 217.835C82.6267 217.521 82.524 217.136 82.524 216.68C82.524 216.287 82.5996 215.964 82.7506 215.71C82.9016 215.456 83.1055 215.255 83.3623 215.107C83.619 214.959 83.906 214.847 84.2232 214.772C84.5404 214.696 84.8636 214.639 85.1928 214.6C85.6097 214.551 85.948 214.512 86.2078 214.482C86.4676 214.449 86.6564 214.396 86.7742 214.323C86.892 214.251 86.9509 214.133 86.9509 213.97V213.938C86.9509 213.543 86.8391 213.236 86.6156 213.018C86.3951 212.801 86.0658 212.692 85.6278 212.692C85.1717 212.692 84.8122 212.793 84.5494 212.996C84.2896 213.195 84.1099 213.417 84.0102 213.662L82.737 213.372C82.888 212.949 83.1085 212.608 83.3985 212.348C83.6915 212.085 84.0283 211.895 84.409 211.777C84.7896 211.656 85.1898 211.596 85.6097 211.596C85.8876 211.596 86.1821 211.629 86.4933 211.695C86.8074 211.759 87.1004 211.877 87.3723 212.049C87.6472 212.221 87.8722 212.467 88.0474 212.787C88.2226 213.104 88.3102 213.517 88.3102 214.024V218.646H86.9871V217.694H86.9328C86.8452 217.87 86.7138 218.042 86.5386 218.211C86.3634 218.38 86.1383 218.521 85.8634 218.632C85.5885 218.744 85.2593 218.8 84.8757 218.8ZM85.1702 217.713C85.5447 217.713 85.8649 217.639 86.1308 217.491C86.3996 217.343 86.6035 217.149 86.7425 216.911C86.8844 216.669 86.9554 216.411 86.9554 216.136V215.239C86.9071 215.287 86.8134 215.332 86.6745 215.375C86.5386 215.414 86.383 215.449 86.2078 215.479C86.0326 215.506 85.8619 215.532 85.6958 215.556C85.5296 215.577 85.3907 215.595 85.2789 215.61C85.0161 215.643 84.776 215.699 84.5585 215.778C84.344 215.856 84.1718 215.97 84.0419 216.118C83.9151 216.263 83.8516 216.456 83.8516 216.698C83.8516 217.033 83.9755 217.287 84.2232 217.459C84.4709 217.628 84.7865 217.713 85.1702 217.713ZM89.8595 218.646V211.686H91.1599V212.819H91.246C91.391 212.435 91.6281 212.136 91.9574 211.922C92.2867 211.704 92.6809 211.596 93.14 211.596C93.6052 211.596 93.9949 211.704 94.309 211.922C94.6262 212.139 94.8603 212.438 95.0113 212.819H95.0838C95.25 212.447 95.5143 212.151 95.8768 211.931C96.2393 211.707 96.6712 211.596 97.1727 211.596C97.804 211.596 98.319 211.794 98.7178 212.189C99.1195 212.585 99.3204 213.182 99.3204 213.979V218.646H97.9656V214.106C97.9656 213.635 97.8372 213.293 97.5805 213.082C97.3237 212.87 97.0171 212.765 96.6607 212.765C96.2196 212.765 95.8768 212.901 95.6321 213.172C95.3874 213.441 95.2651 213.787 95.2651 214.21V218.646H93.9148V214.02C93.9148 213.642 93.797 213.339 93.5614 213.109C93.3258 212.879 93.0192 212.765 92.6416 212.765C92.3848 212.765 92.1477 212.833 91.9302 212.969C91.7157 213.101 91.5421 213.287 91.4091 213.526C91.2793 213.765 91.2143 214.041 91.2143 214.355V218.646H89.8595ZM106.096 213.385L104.868 213.603C104.817 213.446 104.735 213.296 104.624 213.154C104.515 213.012 104.367 212.896 104.18 212.805C103.992 212.715 103.758 212.67 103.477 212.67C103.094 212.67 102.774 212.756 102.517 212.928C102.26 213.097 102.132 213.316 102.132 213.585C102.132 213.817 102.218 214.005 102.39 214.147C102.562 214.289 102.84 214.405 103.224 214.496L104.329 214.749C104.97 214.897 105.447 215.125 105.761 215.433C106.075 215.742 106.232 216.142 106.232 216.634C106.232 217.051 106.111 217.423 105.87 217.749C105.631 218.072 105.297 218.326 104.868 218.51C104.442 218.694 103.949 218.786 103.387 218.786C102.607 218.786 101.972 218.62 101.479 218.288C100.987 217.953 100.685 217.477 100.573 216.861L101.882 216.661C101.964 217.003 102.132 217.261 102.385 217.436C102.639 217.608 102.97 217.694 103.378 217.694C103.822 217.694 104.177 217.602 104.442 217.418C104.708 217.231 104.841 217.003 104.841 216.734C104.841 216.516 104.76 216.334 104.597 216.186C104.436 216.038 104.19 215.926 103.858 215.85L102.68 215.592C102.03 215.444 101.55 215.208 101.239 214.885C100.931 214.562 100.777 214.153 100.777 213.657C100.777 213.246 100.892 212.887 101.121 212.579C101.351 212.271 101.668 212.031 102.073 211.858C102.477 211.683 102.941 211.596 103.464 211.596C104.216 211.596 104.808 211.759 105.24 212.085C105.672 212.408 105.957 212.842 106.096 213.385Z" fill="#2B2B2B"/>
<path d="M56.5196 244.897C56.8248 244.821 57.1341 245.006 57.2104 245.312C57.2867 245.617 57.1011 245.926 56.7959 246.002L53.7579 246.762C53.4527 246.838 53.1435 246.653 53.0672 246.347C52.9909 246.042 53.1764 245.733 53.4816 245.657L56.5196 244.897Z" fill="#2B2B2B"/>
<path d="M56.5196 247.935C56.8248 247.859 57.1341 248.044 57.2104 248.35C57.2867 248.655 57.1011 248.964 56.7959 249.04L53.7579 249.8C53.4527 249.876 53.1435 249.691 53.0672 249.385C52.9909 249.08 53.1764 248.771 53.4816 248.695L56.5196 247.935Z" fill="#2B2B2B"/>
<path d="M45.4722 245.312C45.5485 245.006 45.8578 244.821 46.163 244.897L49.201 245.657C49.5062 245.733 49.6917 246.042 49.6154 246.347C49.5391 246.653 49.2299 246.838 48.9247 246.762L45.8867 246.002C45.5815 245.926 45.3959 245.617 45.4722 245.312Z" fill="#2B2B2B"/>
<path d="M45.4722 248.35C45.5485 248.044 45.8578 247.859 46.163 247.935L49.201 248.695C49.5062 248.771 49.6917 249.08 49.6154 249.385C49.5391 249.691 49.2299 249.876 48.9247 249.8L45.8867 249.04C45.5815 248.964 45.3959 248.655 45.4722 248.35Z" fill="#2B2B2B"/>
<path fill-rule="evenodd" clip-rule="evenodd" d="M59.5059 242.361C59.5059 241.25 58.6208 240.296 57.4597 240.337C56.5951 240.367 55.465 240.457 54.5957 240.717C53.8399 240.943 52.9899 241.385 52.3273 241.769C51.7059 242.128 50.9324 242.146 50.303 241.814C49.5469 241.414 48.5522 240.94 47.6892 240.712C46.9595 240.52 46.0364 240.427 45.2869 240.381C44.1035 240.308 43.1768 241.271 43.1768 242.41V250.875C43.1768 252.042 44.1214 252.953 45.2411 253.023C45.9693 253.068 46.7887 253.156 47.3985 253.317C48.1524 253.516 49.0846 253.958 49.8372 254.359C50.7739 254.859 51.9087 254.859 52.8454 254.359C53.5981 253.958 54.5303 253.516 55.2841 253.317C55.894 253.156 56.7134 253.068 57.4415 253.023C58.5612 252.953 59.5059 252.042 59.5059 250.875V242.361ZM57.4994 241.475C57.9663 241.459 58.3666 241.843 58.3666 242.361V250.875C58.3666 251.396 57.935 251.851 57.3704 251.886C56.6261 251.932 55.7153 252.025 54.9934 252.215C54.1046 252.45 53.075 252.946 52.3095 253.354C52.1817 253.422 52.048 253.476 51.9109 253.515V243.127C52.2545 243.058 52.5885 242.934 52.8979 242.755C53.5438 242.381 54.2994 241.995 54.9224 241.809C55.6433 241.593 56.6496 241.505 57.4994 241.475ZM50.7717 243.152C50.4261 243.098 50.0874 242.988 49.7704 242.821C49.0285 242.428 48.1292 242.007 47.3985 241.814C46.7816 241.651 45.9507 241.563 45.2171 241.518C44.7356 241.489 44.316 241.881 44.316 242.41V250.875C44.316 251.396 44.7476 251.851 45.3122 251.886C46.0566 251.932 46.9673 252.025 47.6892 252.215C48.5781 252.45 49.6076 252.946 50.3731 253.354C50.5009 253.422 50.6346 253.476 50.7717 253.515V243.152Z" fill="#2B2B2B"/>
<path d="M72.178 249.22H73.5554L74.5251 250.484L74.9827 251.046L76.5278 253.062H75.096L74.0629 251.716L73.7095 251.227L72.178 249.22ZM76.8268 247.588C76.8268 248.579 76.6456 249.431 76.2831 250.144C75.9206 250.854 75.4237 251.401 74.7924 251.784C74.1641 252.165 73.4497 252.355 72.6492 252.355C71.8457 252.355 71.1283 252.165 70.4969 251.784C69.8686 251.401 69.3732 250.852 69.0108 250.139C68.6483 249.427 68.467 248.576 68.467 247.588C68.467 246.598 68.6483 245.747 69.0108 245.037C69.3732 244.325 69.8686 243.778 70.4969 243.397C71.1283 243.014 71.8457 242.822 72.6492 242.822C73.4497 242.822 74.1641 243.014 74.7924 243.397C75.4237 243.778 75.9206 244.325 76.2831 245.037C76.6456 245.747 76.8268 246.598 76.8268 247.588ZM75.4403 247.588C75.4403 246.833 75.318 246.197 75.0733 245.681C74.8317 245.161 74.4994 244.769 74.0765 244.503C73.6566 244.234 73.1808 244.1 72.6492 244.1C72.1145 244.1 71.6373 244.234 71.2174 244.503C70.7975 244.769 70.4652 245.161 70.2205 245.681C69.9789 246.197 69.8581 246.833 69.8581 247.588C69.8581 248.344 69.9789 248.981 70.2205 249.501C70.4652 250.017 70.7975 250.41 71.2174 250.679C71.6373 250.944 72.1145 251.077 72.6492 251.077C73.1808 251.077 73.6566 250.944 74.0765 250.679C74.4994 250.41 74.8317 250.017 75.0733 249.501C75.318 248.981 75.4403 248.344 75.4403 247.588ZM82.6172 249.342V245.269H83.9766V252.228H82.6444V251.023H82.5719C82.4118 251.395 82.1551 251.704 81.8016 251.952C81.4512 252.197 81.0147 252.319 80.4922 252.319C80.0451 252.319 79.6494 252.221 79.305 252.024C78.9637 251.825 78.6948 251.53 78.4985 251.141C78.3052 250.751 78.2085 250.269 78.2085 249.695V245.269H79.5633V249.532C79.5633 250.007 79.6947 250.384 79.9575 250.665C80.2203 250.946 80.5616 251.086 80.9815 251.086C81.2353 251.086 81.4875 251.023 81.7382 250.896C81.9919 250.769 82.2019 250.577 82.368 250.321C82.5372 250.064 82.6203 249.738 82.6172 249.342ZM88.5413 252.369C87.8556 252.369 87.265 252.222 86.7696 251.929C86.2773 251.633 85.8967 251.218 85.6278 250.683C85.362 250.145 85.2291 249.516 85.2291 248.794C85.2291 248.081 85.362 247.453 85.6278 246.909C85.8967 246.365 86.2712 245.941 86.7515 245.636C87.2348 245.33 87.7997 245.178 88.4461 245.178C88.8388 245.178 89.2194 245.243 89.588 245.373C89.9565 245.503 90.2873 245.707 90.5803 245.984C90.8733 246.262 91.1044 246.623 91.2735 247.067C91.4427 247.508 91.5273 248.045 91.5273 248.676V249.156H85.9948V248.141H90.1997C90.1997 247.785 90.1272 247.469 89.9822 247.194C89.8372 246.916 89.6333 246.697 89.3705 246.537C89.1107 246.377 88.8056 246.297 88.4552 246.297C88.0746 246.297 87.7423 246.391 87.4584 246.578C87.1774 246.762 86.96 247.004 86.8059 247.303C86.6549 247.599 86.5793 247.921 86.5793 248.268V249.061C86.5793 249.526 86.6609 249.922 86.824 250.248C86.9902 250.574 87.2212 250.824 87.5173 250.996C87.8133 251.165 88.1592 251.25 88.5549 251.25C88.8116 251.25 89.0458 251.213 89.2572 251.141C89.4687 251.065 89.6514 250.954 89.8055 250.806C89.9595 250.658 90.0773 250.475 90.1589 250.257L91.4412 250.488C91.3385 250.866 91.1542 251.197 90.8884 251.481C90.6256 251.762 90.2948 251.981 89.8961 252.138C89.5004 252.292 89.0488 252.369 88.5413 252.369ZM97.9905 246.968L96.7626 247.185C96.7113 247.028 96.6297 246.879 96.5179 246.737C96.4092 246.595 96.2612 246.478 96.0739 246.388C95.8866 246.297 95.6525 246.252 95.3716 246.252C94.9879 246.252 94.6677 246.338 94.411 246.51C94.1542 246.679 94.0258 246.898 94.0258 247.167C94.0258 247.4 94.1119 247.587 94.2841 247.729C94.4563 247.871 94.7342 247.987 95.1178 248.078L96.2234 248.332C96.8638 248.48 97.3411 248.708 97.6552 249.016C97.9694 249.324 98.1265 249.724 98.1265 250.216C98.1265 250.633 98.0056 251.005 97.764 251.331C97.5253 251.654 97.1915 251.908 96.7626 252.092C96.3367 252.277 95.8428 252.369 95.2809 252.369C94.5016 252.369 93.8657 252.203 93.3734 251.87C92.881 251.535 92.5789 251.059 92.4671 250.443L93.7766 250.244C93.8582 250.585 94.0258 250.843 94.2796 251.018C94.5333 251.191 94.8641 251.277 95.2719 251.277C95.7159 251.277 96.0709 251.185 96.3367 251C96.6025 250.813 96.7354 250.585 96.7354 250.316C96.7354 250.099 96.6539 249.916 96.4907 249.768C96.3306 249.62 96.0845 249.508 95.7522 249.433L94.5741 249.174C93.9246 249.026 93.4444 248.791 93.1332 248.467C92.8251 248.144 92.671 247.735 92.671 247.24C92.671 246.829 92.7858 246.469 93.0154 246.161C93.245 245.853 93.5622 245.613 93.9669 245.441C94.3717 245.266 94.8354 245.178 95.358 245.178C96.1101 245.178 96.7022 245.341 97.1342 245.667C97.5661 245.99 97.8516 246.424 97.9905 246.968ZM102.61 245.269V246.356H98.8081V245.269H102.61ZM99.8276 243.601H101.182V250.185C101.182 250.448 101.222 250.645 101.3 250.778C101.379 250.908 101.48 250.997 101.604 251.046C101.731 251.091 101.868 251.114 102.016 251.114C102.125 251.114 102.22 251.106 102.302 251.091C102.383 251.076 102.447 251.064 102.492 251.055L102.737 252.174C102.658 252.204 102.546 252.234 102.401 252.265C102.256 252.298 102.075 252.316 101.857 252.319C101.501 252.325 101.169 252.261 100.861 252.129C100.553 251.996 100.303 251.79 100.113 251.512C99.9227 251.234 99.8276 250.886 99.8276 250.466V243.601ZM103.853 252.228V245.269H105.208V252.228H103.853ZM104.537 244.195C104.302 244.195 104.099 244.116 103.93 243.959C103.764 243.799 103.681 243.609 103.681 243.388C103.681 243.165 103.764 242.974 103.93 242.817C104.099 242.657 104.302 242.577 104.537 242.577C104.773 242.577 104.974 242.657 105.14 242.817C105.309 242.974 105.394 243.165 105.394 243.388C105.394 243.609 105.309 243.799 105.14 243.959C104.974 244.116 104.773 244.195 104.537 244.195ZM109.707 252.369C109.054 252.369 108.485 252.219 107.999 251.92C107.512 251.621 107.135 251.203 106.866 250.665C106.597 250.127 106.463 249.499 106.463 248.78C106.463 248.058 106.597 247.427 106.866 246.886C107.135 246.345 107.512 245.926 107.999 245.627C108.485 245.327 109.054 245.178 109.707 245.178C110.359 245.178 110.929 245.327 111.415 245.627C111.901 245.926 112.279 246.345 112.548 246.886C112.817 247.427 112.951 248.058 112.951 248.78C112.951 249.499 112.817 250.127 112.548 250.665C112.279 251.203 111.901 251.621 111.415 251.92C110.929 252.219 110.359 252.369 109.707 252.369ZM109.711 251.231C110.134 251.231 110.485 251.12 110.763 250.896C111.041 250.673 111.246 250.375 111.379 250.004C111.515 249.632 111.583 249.223 111.583 248.776C111.583 248.332 111.515 247.924 111.379 247.552C111.246 247.178 111.041 246.877 110.763 246.651C110.485 246.424 110.134 246.311 109.711 246.311C109.286 246.311 108.932 246.424 108.651 246.651C108.373 246.877 108.166 247.178 108.03 247.552C107.898 247.924 107.831 248.332 107.831 248.776C107.831 249.223 107.898 249.632 108.03 250.004C108.166 250.375 108.373 250.673 108.651 250.896C108.932 251.12 109.286 251.231 109.711 251.231ZM115.563 248.096V252.228H114.208V245.269H115.509V246.401H115.595C115.755 246.033 116.006 245.737 116.347 245.513C116.691 245.29 117.125 245.178 117.647 245.178C118.122 245.178 118.537 245.278 118.893 245.477C119.25 245.673 119.526 245.966 119.723 246.356C119.919 246.746 120.017 247.227 120.017 247.801V252.228H118.662V247.965C118.662 247.46 118.531 247.066 118.268 246.782C118.005 246.495 117.644 246.351 117.185 246.351C116.871 246.351 116.592 246.419 116.347 246.555C116.105 246.691 115.913 246.891 115.771 247.153C115.632 247.413 115.563 247.727 115.563 248.096ZM124.809 252.228V242.949H128.207C128.866 242.949 129.411 243.057 129.843 243.275C130.275 243.489 130.598 243.781 130.813 244.149C131.027 244.515 131.135 244.927 131.135 245.386C131.135 245.773 131.064 246.099 130.922 246.365C130.78 246.628 130.589 246.839 130.351 246.999C130.115 247.156 129.855 247.271 129.571 247.344V247.434C129.879 247.45 130.18 247.549 130.473 247.733C130.769 247.915 131.014 248.173 131.207 248.508C131.4 248.844 131.497 249.251 131.497 249.732C131.497 250.206 131.385 250.632 131.162 251.009C130.941 251.384 130.6 251.682 130.138 251.902C129.676 252.12 129.085 252.228 128.366 252.228H124.809ZM126.209 251.028H128.23C128.901 251.028 129.381 250.898 129.671 250.638C129.961 250.378 130.106 250.053 130.106 249.664C130.106 249.371 130.032 249.102 129.884 248.857C129.736 248.612 129.524 248.418 129.25 248.273C128.978 248.128 128.655 248.055 128.28 248.055H126.209V251.028ZM126.209 246.963H128.085C128.399 246.963 128.682 246.903 128.932 246.782C129.186 246.661 129.387 246.492 129.535 246.274C129.686 246.054 129.762 245.794 129.762 245.495C129.762 245.111 129.627 244.79 129.358 244.53C129.09 244.27 128.677 244.14 128.121 244.14H126.209V246.963ZM134.819 252.382C134.378 252.382 133.979 252.301 133.623 252.138C133.266 251.972 132.984 251.731 132.776 251.417C132.57 251.103 132.467 250.718 132.467 250.262C132.467 249.869 132.543 249.546 132.694 249.292C132.845 249.038 133.049 248.838 133.306 248.69C133.562 248.541 133.849 248.43 134.167 248.354C134.484 248.279 134.807 248.221 135.136 248.182C135.553 248.134 135.891 248.094 136.151 248.064C136.411 248.031 136.6 247.978 136.718 247.906C136.835 247.833 136.894 247.715 136.894 247.552V247.52C136.894 247.125 136.783 246.818 136.559 246.601C136.339 246.383 136.009 246.274 135.571 246.274C135.115 246.274 134.756 246.376 134.493 246.578C134.233 246.777 134.053 246.999 133.954 247.244L132.68 246.954C132.831 246.531 133.052 246.19 133.342 245.93C133.635 245.667 133.972 245.477 134.352 245.359C134.733 245.238 135.133 245.178 135.553 245.178C135.831 245.178 136.126 245.211 136.437 245.278C136.751 245.341 137.044 245.459 137.316 245.631C137.591 245.803 137.816 246.049 137.991 246.37C138.166 246.687 138.254 247.099 138.254 247.607V252.228H136.931V251.277H136.876C136.789 251.452 136.657 251.624 136.482 251.793C136.307 251.962 136.082 252.103 135.807 252.215C135.532 252.326 135.203 252.382 134.819 252.382ZM135.114 251.295C135.488 251.295 135.808 251.221 136.074 251.073C136.343 250.925 136.547 250.732 136.686 250.493C136.828 250.251 136.899 249.993 136.899 249.718V248.821C136.851 248.869 136.757 248.915 136.618 248.957C136.482 248.996 136.326 249.031 136.151 249.061C135.976 249.088 135.805 249.114 135.639 249.138C135.473 249.159 135.334 249.177 135.222 249.192C134.96 249.226 134.719 249.282 134.502 249.36C134.287 249.439 134.115 249.552 133.985 249.7C133.859 249.845 133.795 250.038 133.795 250.28C133.795 250.615 133.919 250.869 134.167 251.041C134.414 251.21 134.73 251.295 135.114 251.295ZM141.158 248.096V252.228H139.803V245.269H141.103V246.401H141.189C141.35 246.033 141.6 245.737 141.942 245.513C142.286 245.29 142.719 245.178 143.242 245.178C143.716 245.178 144.132 245.278 144.488 245.477C144.845 245.673 145.121 245.966 145.317 246.356C145.514 246.746 145.612 247.227 145.612 247.801V252.228H144.257V247.965C144.257 247.46 144.126 247.066 143.863 246.782C143.6 246.495 143.239 246.351 142.78 246.351C142.466 246.351 142.186 246.419 141.942 246.555C141.7 246.691 141.508 246.891 141.366 247.153C141.227 247.413 141.158 247.727 141.158 248.096ZM148.42 249.868L148.411 248.214H148.646L151.419 245.269H153.041L149.879 248.622H149.666L148.42 249.868ZM147.174 252.228V242.949H148.528V252.228H147.174ZM151.569 252.228L149.077 248.921L150.01 247.974L153.232 252.228H151.569Z" fill="#2B2B2B"/>
</g>
<defs>
<filter id="filter0_d_29241_1576" x="-43.4429" y="-5.72205e-06" width="422.886" height="382.886" filterUnits="userSpaceOnUse" color-interpolation-filters="sRGB">
<feFlood flood-opacity="0" result="BackgroundImageFix"/>
<feColorMatrix in="SourceAlpha" type="matrix" values="0 0 0 0 0 0 0 0 0 0 0 0 0 0 0 0 0 0 127 0" result="hardAlpha"/>
<feOffset dy="29.1646"/>
<feGaussianBlur stdDeviation="29.1646"/>
<feComposite in2="hardAlpha" operator="out"/>
<feColorMatrix type="matrix" values="0 0 0 0 0 0 0 0 0 0 0 0 0 0 0 0 0 0 0.1 0"/>
<feBlend mode="normal" in2="BackgroundImageFix" result="effect1_dropShadow_29241_1576"/>
<feBlend mode="normal" in="SourceGraphic" in2="effect1_dropShadow_29241_1576" result="shape"/>
</filter>
<filter id="filter1_dii_29241_1576" x="32.2023" y="47.8485" width="271.595" height="38.2784" filterUnits="userSpaceOnUse" color-interpolation-filters="sRGB">
<feFlood flood-opacity="0" result="BackgroundImageFix"/>
<feColorMatrix in="SourceAlpha" type="matrix" values="0 0 0 0 0 0 0 0 0 0 0 0 0 0 0 0 0 0 127 0" result="hardAlpha"/>
<feMorphology radius="0.911392" operator="erode" in="SourceAlpha" result="effect1_dropShadow_29241_1576"/>
<feOffset dy="1.36709"/>
<feGaussianBlur stdDeviation="1.82278"/>
<feComposite in2="hardAlpha" operator="out"/>
<feColorMatrix type="matrix" values="0 0 0 0 0.0392157 0 0 0 0 0.0352941 0 0 0 0 0.0431373 0 0 0 0.07 0"/>
<feBlend mode="normal" in2="BackgroundImageFix" result="effect1_dropShadow_29241_1576"/>
<feBlend mode="normal" in="SourceGraphic" in2="effect1_dropShadow_29241_1576" result="shape"/>
<feColorMatrix in="SourceAlpha" type="matrix" values="0 0 0 0 0 0 0 0 0 0 0 0 0 0 0 0 0 0 127 0" result="hardAlpha"/>
<feOffset dx="-0.911392" dy="-0.911392"/>
<feGaussianBlur stdDeviation="0.455696"/>
<feComposite in2="hardAlpha" operator="arithmetic" k2="-1" k3="1"/>
<feColorMatrix type="matrix" values="0 0 0 0 0 0 0 0 0 0 0 0 0 0 0 0 0 0 0.15 0"/>
<feBlend mode="normal" in2="shape" result="effect2_innerShadow_29241_1576"/>
<feColorMatrix in="SourceAlpha" type="matrix" values="0 0 0 0 0 0 0 0 0 0 0 0 0 0 0 0 0 0 127 0" result="hardAlpha"/>
<feOffset dx="0.911392" dy="0.911392"/>
<feGaussianBlur stdDeviation="0.455696"/>
<feComposite in2="hardAlpha" operator="arithmetic" k2="-1" k3="1"/>
<feColorMatrix type="matrix" values="0 0 0 0 1 0 0 0 0 1 0 0 0 0 1 0 0 0 0.25 0"/>
<feBlend mode="normal" in2="effect2_innerShadow_29241_1576" result="effect3_innerShadow_29241_1576"/>
</filter>
<clipPath id="clip0_29241_1576">
<rect width="18.2278" height="18.2278" fill="white" transform="translate(42.2275 205.032)"/>
</clipPath>
</defs>
</svg>
