<svg width="541" height="346" viewBox="0 0 541 346" fill="none" xmlns="http://www.w3.org/2000/svg">
<g filter="url(#filter0_d_29182_850)">
<path d="M86.2319 59.6447C86.2319 49.3475 94.5795 41 104.877 41H435.381C445.679 41 454.026 49.3475 454.026 59.6448V346H86.2319V59.6447Z" fill="white" shape-rendering="crispEdges"/>
<path d="M435.381 35.1738C448.896 35.1738 459.853 46.1296 459.853 59.6445V351.826H80.4058V59.6445C80.4059 46.1296 91.3616 35.1739 104.876 35.1738H435.381Z" stroke="white" stroke-opacity="0.16" stroke-width="11.653" shape-rendering="crispEdges"/>
<g filter="url(#filter1_dii_29182_850)">
<path d="M99.9956 61.9752C99.9956 58.1137 103.126 54.9834 106.987 54.9834H433.271C437.132 54.9834 440.262 58.1137 440.262 61.9752V89.9423C440.262 93.8038 437.132 96.9341 433.271 96.9341H106.987C103.126 96.9341 99.9956 93.8038 99.9956 89.9423V61.9752Z" fill="#0065FF"/>
<path fill-rule="evenodd" clip-rule="evenodd" d="M207.468 69.7437C207.897 69.7437 208.245 70.0915 208.245 70.5205V75.1817H212.906C213.335 75.1817 213.683 75.5295 213.683 75.9586C213.683 76.3876 213.335 76.7354 212.906 76.7354H208.245V81.3966C208.245 81.8257 207.897 82.1735 207.468 82.1735C207.039 82.1735 206.691 81.8257 206.691 81.3966V76.7354H202.03C201.601 76.7354 201.253 76.3876 201.253 75.9586C201.253 75.5295 201.601 75.1817 202.03 75.1817H206.691V70.5205C206.691 70.0915 207.039 69.7437 207.468 69.7437Z" fill="white"/>
<path d="M232.027 70.0941H233.812V78.5061C233.812 79.267 233.661 79.9178 233.36 80.4585C233.062 80.9992 232.643 81.4125 232.103 81.6983C231.562 81.9802 230.929 82.1212 230.202 82.1212C229.534 82.1212 228.934 81.9995 228.401 81.7562C227.872 81.5129 227.453 81.1595 227.144 80.696C226.838 80.2287 226.686 79.6609 226.686 78.9928H228.464C228.464 79.3211 228.54 79.6049 228.69 79.8444C228.845 80.0839 229.055 80.2712 229.322 80.4064C229.592 80.5377 229.901 80.6033 230.249 80.6033C230.627 80.6033 230.948 80.5242 231.21 80.3658C231.477 80.2036 231.68 79.9661 231.819 79.6532C231.958 79.3404 232.027 78.958 232.027 78.5061V70.0941ZM239.7 82.1386C238.866 82.1386 238.138 81.9474 237.516 81.565C236.894 81.1827 236.412 80.6477 236.068 79.9603C235.724 79.2728 235.552 78.4694 235.552 77.5502C235.552 76.6271 235.724 75.8199 236.068 75.1286C236.412 74.4372 236.894 73.9004 237.516 73.518C238.138 73.1357 238.866 72.9445 239.7 72.9445C240.535 72.9445 241.263 73.1357 241.884 73.518C242.506 73.9004 242.989 74.4372 243.333 75.1286C243.676 75.8199 243.848 76.6271 243.848 77.5502C243.848 78.4694 243.676 79.2728 243.333 79.9603C242.989 80.6477 242.506 81.1827 241.884 81.565C241.263 81.9474 240.535 82.1386 239.7 82.1386ZM239.706 80.6844C240.247 80.6844 240.695 80.5415 241.05 80.2557C241.405 79.9699 241.668 79.5895 241.838 79.1144C242.012 78.6394 242.099 78.116 242.099 77.5444C242.099 76.9767 242.012 76.4553 241.838 75.9802C241.668 75.5013 241.405 75.117 241.05 74.8273C240.695 74.5377 240.247 74.3928 239.706 74.3928C239.161 74.3928 238.71 74.5377 238.35 74.8273C237.995 75.117 237.731 75.5013 237.557 75.9802C237.387 76.4553 237.302 76.9767 237.302 77.5444C237.302 78.116 237.387 78.6394 237.557 79.1144C237.731 79.5895 237.995 79.9699 238.35 80.2557C238.71 80.5415 239.161 80.6844 239.706 80.6844ZM245.456 81.959V73.0604H247.188V81.959H245.456ZM246.33 71.6873C246.029 71.6873 245.77 71.5869 245.554 71.3861C245.342 71.1814 245.235 70.938 245.235 70.6561C245.235 70.3703 245.342 70.127 245.554 69.9261C245.77 69.7214 246.029 69.6191 246.33 69.6191C246.632 69.6191 246.888 69.7214 247.101 69.9261C247.317 70.127 247.425 70.3703 247.425 70.6561C247.425 70.938 247.317 71.1814 247.101 71.3861C246.888 71.5869 246.632 71.6873 246.33 71.6873ZM250.924 76.6754V81.959H249.192V73.0604H250.855V74.5087H250.965C251.169 74.0375 251.49 73.659 251.926 73.3732C252.367 73.0874 252.921 72.9445 253.589 72.9445C254.195 72.9445 254.727 73.0719 255.182 73.3268C255.638 73.5779 255.991 73.9525 256.242 74.4508C256.494 74.949 256.619 75.565 256.619 76.2989V81.959H254.887V76.5074C254.887 75.8624 254.719 75.3584 254.383 74.9953C254.047 74.6284 253.585 74.445 252.998 74.445C252.596 74.445 252.239 74.5319 251.926 74.7057C251.617 74.8795 251.372 75.1344 251.191 75.4704C251.013 75.8026 250.924 76.2042 250.924 76.6754ZM272.323 70.0941V81.959H270.677L264.646 73.2573H264.536V81.959H262.746V70.0941H264.403L270.44 78.8074H270.55V70.0941H272.323ZM278.304 82.1386C277.427 82.1386 276.672 81.9513 276.039 81.5766C275.409 81.1981 274.922 80.6671 274.579 79.9834C274.239 79.296 274.069 78.4907 274.069 77.5676C274.069 76.6561 274.239 75.8528 274.579 75.1576C274.922 74.4624 275.401 73.9197 276.015 73.5296C276.633 73.1395 277.356 72.9445 278.182 72.9445C278.684 72.9445 279.171 73.0275 279.642 73.1936C280.113 73.3597 280.536 73.6204 280.911 73.9757C281.286 74.331 281.581 74.7926 281.797 75.3603C282.014 75.9242 282.122 76.6098 282.122 77.417V78.0311H275.048V76.7334H280.424C280.424 76.2776 280.332 75.874 280.146 75.5225C279.961 75.1672 279.7 74.8872 279.364 74.6825C279.032 74.4778 278.642 74.3755 278.194 74.3755C277.707 74.3755 277.282 74.4952 276.919 74.7346C276.56 74.9702 276.282 75.2792 276.085 75.6616C275.892 76.0401 275.795 76.4514 275.795 76.8956V77.9094C275.795 78.5042 275.9 79.0102 276.108 79.4273C276.321 79.8444 276.616 80.163 276.995 80.3832C277.373 80.5995 277.815 80.7076 278.321 80.7076C278.65 80.7076 278.949 80.6613 279.219 80.5686C279.49 80.472 279.723 80.3291 279.92 80.1399C280.117 79.9506 280.268 79.7169 280.372 79.4389L282.012 79.7343C281.88 80.2171 281.645 80.64 281.305 81.0031C280.969 81.3623 280.546 81.6423 280.036 81.8431C279.53 82.0401 278.953 82.1386 278.304 82.1386ZM285.631 81.959L283.012 73.0604H284.802L286.546 79.5953H286.633L288.383 73.0604H290.173L291.911 79.5663H291.998L293.73 73.0604H295.52L292.907 81.959H291.14L289.333 75.5341H289.199L287.392 81.959H285.631ZM310.822 73.9525H309.015C308.945 73.5663 308.816 73.2264 308.627 72.9329C308.437 72.6394 308.206 72.3903 307.931 72.1856C307.657 71.9809 307.35 71.8264 307.01 71.7221C306.674 71.6178 306.317 71.5657 305.939 71.5657C305.255 71.5657 304.643 71.7375 304.102 72.0813C303.565 72.425 303.14 72.929 302.827 73.5933C302.519 74.2577 302.364 75.0687 302.364 76.0266C302.364 76.9921 302.519 77.8071 302.827 78.4714C303.14 79.1357 303.567 79.6378 304.108 79.9776C304.649 80.3175 305.257 80.4875 305.933 80.4875C306.307 80.4875 306.663 80.4373 306.999 80.3368C307.339 80.2326 307.646 80.08 307.92 79.8792C308.194 79.6783 308.426 79.4331 308.615 79.1434C308.808 78.8499 308.941 78.5139 309.015 78.1354L310.822 78.1411C310.726 78.7243 310.538 79.2612 310.26 79.7517C309.986 80.2384 309.633 80.6593 309.2 81.0147C308.771 81.3661 308.281 81.6384 307.729 81.8315C307.176 82.0246 306.574 82.1212 305.921 82.1212C304.894 82.1212 303.978 81.8779 303.175 81.3912C302.372 80.9007 301.738 80.1997 301.275 79.2882C300.815 78.3767 300.585 77.2895 300.585 76.0266C300.585 74.7597 300.817 73.6725 301.281 72.7649C301.744 71.8534 302.378 71.1543 303.181 70.6677C303.984 70.1772 304.898 69.9319 305.921 69.9319C306.551 69.9319 307.138 70.0227 307.682 70.2042C308.231 70.3819 308.723 70.6445 309.16 70.9921C309.596 71.3359 309.957 71.7568 310.243 72.2551C310.529 72.7494 310.722 73.3153 310.822 73.9525ZM314.231 70.0941V81.959H312.499V70.0941H314.231ZM318.825 82.156C318.261 82.156 317.751 82.0517 317.296 81.8431C316.84 81.6307 316.479 81.3236 316.212 80.922C315.95 80.5203 315.818 80.0279 315.818 79.4447C315.818 78.9426 315.915 78.5293 316.108 78.2049C316.301 77.8804 316.562 77.6236 316.89 77.4344C317.218 77.2451 317.585 77.1022 317.991 77.0056C318.396 76.9091 318.81 76.8357 319.231 76.7855C319.764 76.7237 320.196 76.6735 320.528 76.6349C320.861 76.5924 321.102 76.5248 321.253 76.4321C321.403 76.3394 321.478 76.1888 321.478 75.9802V75.9397C321.478 75.4337 321.336 75.0417 321.05 74.7636C320.768 74.4855 320.347 74.3465 319.787 74.3465C319.204 74.3465 318.744 74.4759 318.408 74.7346C318.076 74.9895 317.846 75.2734 317.719 75.5863L316.091 75.2155C316.284 74.6748 316.566 74.2383 316.936 73.9062C317.311 73.5702 317.742 73.3268 318.228 73.1762C318.715 73.0217 319.227 72.9445 319.764 72.9445C320.119 72.9445 320.496 72.987 320.893 73.0719C321.295 73.153 321.67 73.3037 322.017 73.5238C322.369 73.744 322.656 74.0587 322.88 74.4681C323.104 74.8737 323.216 75.4009 323.216 76.0497V81.959H321.525V80.7424H321.455C321.343 80.9664 321.175 81.1865 320.951 81.4028C320.727 81.6191 320.44 81.7987 320.088 81.9416C319.737 82.0845 319.316 82.156 318.825 82.156ZM319.202 80.7655C319.681 80.7655 320.09 80.6709 320.43 80.4817C320.774 80.2924 321.034 80.0452 321.212 79.7401C321.393 79.4311 321.484 79.1009 321.484 78.7495V77.6024C321.422 77.6642 321.303 77.7221 321.125 77.7762C320.951 77.8264 320.752 77.8708 320.528 77.9094C320.304 77.9442 320.086 77.977 319.874 78.0079C319.661 78.0349 319.484 78.0581 319.341 78.0774C319.005 78.1199 318.698 78.1914 318.42 78.2918C318.145 78.3922 317.925 78.537 317.759 78.7263C317.597 78.9117 317.516 79.1589 317.516 79.4678C317.516 79.8965 317.674 80.221 317.991 80.4411C318.308 80.6574 318.711 80.7655 319.202 80.7655ZM331.866 75.2329L330.296 75.511C330.23 75.3101 330.126 75.1189 329.983 74.9374C329.844 74.7559 329.654 74.6072 329.415 74.4913C329.176 74.3754 328.876 74.3175 328.517 74.3175C328.027 74.3175 327.617 74.4276 327.289 74.6477C326.961 74.864 326.796 75.144 326.796 75.4878C326.796 75.7852 326.906 76.0246 327.127 76.2062C327.347 76.3877 327.702 76.5364 328.193 76.6522L329.606 76.9767C330.425 77.1659 331.035 77.4575 331.437 77.8515C331.839 78.2454 332.039 78.7572 332.039 79.3867C332.039 79.9197 331.885 80.3948 331.576 80.8119C331.271 81.2252 330.844 81.5496 330.296 81.7852C329.751 82.0208 329.12 82.1386 328.401 82.1386C327.405 82.1386 326.592 81.9262 325.962 81.5013C325.333 81.0726 324.946 80.4643 324.803 79.6764L326.478 79.4215C326.582 79.8579 326.796 80.1881 327.121 80.4122C327.445 80.6323 327.868 80.7424 328.39 80.7424C328.957 80.7424 329.411 80.6246 329.751 80.389C330.091 80.1495 330.261 79.8579 330.261 79.5142C330.261 79.2361 330.157 79.0024 329.948 78.8132C329.743 78.6239 329.429 78.481 329.004 78.3845L327.497 78.0542C326.667 77.865 326.053 77.5637 325.655 77.1505C325.261 76.7372 325.064 76.2139 325.064 75.5805C325.064 75.0552 325.211 74.5956 325.504 74.2016C325.798 73.8077 326.204 73.5006 326.721 73.2805C327.239 73.0565 327.831 72.9445 328.5 72.9445C329.461 72.9445 330.218 73.153 330.771 73.5702C331.323 73.9834 331.688 74.5377 331.866 75.2329ZM340.286 75.2329L338.716 75.511C338.65 75.3101 338.546 75.1189 338.403 74.9374C338.264 74.7559 338.075 74.6072 337.835 74.4913C337.596 74.3754 337.296 74.3175 336.937 74.3175C336.447 74.3175 336.037 74.4276 335.709 74.6477C335.381 74.864 335.217 75.144 335.217 75.4878C335.217 75.7852 335.327 76.0246 335.547 76.2062C335.767 76.3877 336.122 76.5364 336.613 76.6522L338.026 76.9767C338.845 77.1659 339.455 77.4575 339.857 77.8515C340.259 78.2454 340.46 78.7572 340.46 79.3867C340.46 79.9197 340.305 80.3948 339.996 80.8119C339.691 81.2252 339.264 81.5496 338.716 81.7852C338.171 82.0208 337.54 82.1386 336.821 82.1386C335.825 82.1386 335.012 81.9262 334.382 81.5013C333.753 81.0726 333.367 80.4643 333.224 79.6764L334.898 79.4215C335.002 79.8579 335.217 80.1881 335.541 80.4122C335.866 80.6323 336.288 80.7424 336.81 80.7424C337.378 80.7424 337.831 80.6246 338.171 80.389C338.511 80.1495 338.681 79.8579 338.681 79.5142C338.681 79.2361 338.577 79.0024 338.368 78.8132C338.164 78.6239 337.849 78.481 337.424 78.3845L335.918 78.0542C335.087 77.865 334.473 77.5637 334.075 77.1505C333.681 76.7372 333.484 76.2139 333.484 75.5805C333.484 75.0552 333.631 74.5956 333.925 74.2016C334.218 73.8077 334.624 73.5006 335.141 73.2805C335.659 73.0565 336.252 72.9445 336.92 72.9445C337.882 72.9445 338.639 73.153 339.191 73.5702C339.743 73.9834 340.108 74.5377 340.286 75.2329Z" fill="white"/>
</g>
<path d="M109.318 115.754H430.94C435.992 115.754 440.087 119.849 440.087 124.901V148.901C440.087 153.953 435.992 158.049 430.94 158.049H109.318C104.266 158.049 100.17 153.953 100.17 148.901V124.901C100.17 119.849 104.266 115.754 109.318 115.754Z" fill="#E6F0FF"/>
<path d="M109.318 115.754H430.94C435.992 115.754 440.087 119.849 440.087 124.901V148.901C440.087 153.953 435.992 158.049 430.94 158.049H109.318C104.266 158.049 100.17 153.953 100.17 148.901V124.901C100.17 119.849 104.266 115.754 109.318 115.754Z" stroke="#6BA6FF" stroke-width="0.349589"/>
<path fill-rule="evenodd" clip-rule="evenodd" d="M126.261 126.948C125.389 126.948 124.661 126.948 124.083 127.025C123.474 127.107 122.923 127.288 122.481 127.73C122.039 128.172 121.859 128.723 121.777 129.332C121.699 129.91 121.699 130.637 121.699 131.51V131.611C121.699 132.483 121.699 133.211 121.777 133.789C121.859 134.398 122.039 134.949 122.481 135.391C122.923 135.833 123.474 136.013 124.083 136.095C124.661 136.173 125.389 136.173 126.261 136.173H126.362C127.235 136.173 127.962 136.173 128.54 136.095C129.149 136.013 129.7 135.833 130.142 135.391C130.584 134.949 130.765 134.398 130.847 133.789C130.924 133.211 130.924 132.483 130.924 131.611V131.51C130.924 130.637 130.924 129.91 130.847 129.332C130.765 128.723 130.584 128.172 130.142 127.73C129.7 127.288 129.149 127.107 128.54 127.025C127.962 126.948 127.235 126.948 126.362 126.948H126.261ZM123.511 128.76C123.638 128.633 123.829 128.529 124.278 128.469C124.747 128.406 125.375 128.404 126.312 128.404C127.248 128.404 127.877 128.406 128.346 128.469C128.794 128.529 128.986 128.633 129.112 128.76C129.239 128.886 129.343 129.078 129.403 129.526C129.466 129.995 129.468 130.624 129.468 131.56C129.468 132.497 129.466 133.125 129.403 133.594C129.343 134.043 129.239 134.234 129.112 134.361C128.986 134.487 128.794 134.592 128.346 134.652C127.877 134.715 127.248 134.716 126.312 134.716C125.375 134.716 124.747 134.715 124.278 134.652C123.829 134.592 123.638 134.487 123.511 134.361C123.385 134.234 123.28 134.043 123.22 133.594C123.157 133.125 123.156 132.497 123.156 131.56C123.156 130.624 123.157 129.995 123.22 129.526C123.28 129.078 123.385 128.886 123.511 128.76Z" fill="#0065FF"/>
<path fill-rule="evenodd" clip-rule="evenodd" d="M115.579 137.63C114.707 137.63 113.979 137.63 113.402 137.707C112.792 137.789 112.242 137.97 111.799 138.412C111.357 138.854 111.177 139.405 111.095 140.014C111.017 140.592 111.017 141.319 111.017 142.192V142.293C111.017 143.165 111.017 143.893 111.095 144.47C111.177 145.08 111.357 145.63 111.799 146.073C112.242 146.515 112.792 146.695 113.402 146.777C113.979 146.855 114.707 146.855 115.579 146.855H115.68C116.553 146.855 117.28 146.855 117.858 146.777C118.467 146.695 119.018 146.515 119.46 146.073C119.902 145.63 120.083 145.08 120.165 144.47C120.242 143.893 120.242 143.165 120.242 142.293V142.192C120.242 141.319 120.242 140.592 120.165 140.014C120.083 139.405 119.902 138.854 119.46 138.412C119.018 137.97 118.467 137.789 117.858 137.707C117.28 137.63 116.553 137.63 115.68 137.63H115.579ZM112.829 139.442C112.956 139.315 113.148 139.211 113.596 139.151C114.065 139.088 114.694 139.086 115.63 139.086C116.566 139.086 117.195 139.088 117.664 139.151C118.112 139.211 118.304 139.315 118.43 139.442C118.557 139.568 118.661 139.76 118.721 140.208C118.784 140.677 118.786 141.306 118.786 142.242C118.786 143.178 118.784 143.807 118.721 144.276C118.661 144.724 118.557 144.916 118.43 145.043C118.304 145.169 118.112 145.273 117.664 145.334C117.195 145.397 116.566 145.398 115.63 145.398C114.694 145.398 114.065 145.397 113.596 145.334C113.148 145.273 112.956 145.169 112.829 145.043C112.703 144.916 112.599 144.724 112.538 144.276C112.475 143.807 112.474 143.178 112.474 142.242C112.474 141.306 112.475 140.677 112.538 140.208C112.599 139.76 112.703 139.568 112.829 139.442Z" fill="#0065FF"/>
<path fill-rule="evenodd" clip-rule="evenodd" d="M111.017 131.56C111.017 129.013 113.082 126.948 115.63 126.948C118.177 126.948 120.242 129.013 120.242 131.56C120.242 134.108 118.177 136.173 115.63 136.173C113.082 136.173 111.017 134.108 111.017 131.56ZM115.63 128.404C113.887 128.404 112.474 129.817 112.474 131.56C112.474 133.303 113.887 134.716 115.63 134.716C117.373 134.716 118.786 133.303 118.786 131.56C118.786 129.817 117.373 128.404 115.63 128.404Z" fill="#0065FF"/>
<path fill-rule="evenodd" clip-rule="evenodd" d="M121.699 142.242C121.699 139.695 123.764 137.63 126.312 137.63C128.859 137.63 130.924 139.695 130.924 142.242C130.924 144.79 128.859 146.855 126.312 146.855C123.764 146.855 121.699 144.79 121.699 142.242ZM126.312 139.086C124.569 139.086 123.156 140.499 123.156 142.242C123.156 143.985 124.569 145.398 126.312 145.398C128.055 145.398 129.468 143.985 129.468 142.242C129.468 140.499 128.055 139.086 126.312 139.086Z" fill="#0065FF"/>
<path d="M147.091 142.901H143.25V131.037H147.212C148.375 131.037 149.373 131.274 150.208 131.749C151.042 132.22 151.681 132.898 152.125 133.783C152.573 134.663 152.797 135.72 152.797 136.952C152.797 138.187 152.571 139.25 152.119 140.138C151.671 141.026 151.023 141.71 150.173 142.189C149.323 142.664 148.296 142.901 147.091 142.901ZM145.04 141.337H146.992C147.896 141.337 148.647 141.167 149.246 140.827C149.845 140.484 150.293 139.987 150.59 139.338C150.887 138.686 151.036 137.89 151.036 136.952C151.036 136.021 150.887 135.231 150.59 134.582C150.296 133.933 149.858 133.441 149.275 133.105C148.692 132.769 147.968 132.601 147.102 132.601H145.04V141.337ZM157.148 143.098C156.584 143.098 156.074 142.994 155.618 142.785C155.163 142.573 154.801 142.266 154.535 141.864C154.272 141.463 154.141 140.97 154.141 140.387C154.141 139.885 154.238 139.472 154.431 139.147C154.624 138.823 154.884 138.566 155.213 138.377C155.541 138.187 155.908 138.045 156.313 137.948C156.719 137.851 157.132 137.778 157.553 137.728C158.086 137.666 158.519 137.616 158.851 137.577C159.183 137.535 159.425 137.467 159.575 137.374C159.726 137.282 159.801 137.131 159.801 136.923V136.882C159.801 136.376 159.658 135.984 159.372 135.706C159.09 135.428 158.669 135.289 158.109 135.289C157.526 135.289 157.067 135.418 156.731 135.677C156.398 135.932 156.169 136.216 156.041 136.529L154.413 136.158C154.606 135.617 154.888 135.181 155.259 134.849C155.634 134.513 156.064 134.269 156.551 134.119C157.038 133.964 157.549 133.887 158.086 133.887C158.442 133.887 158.818 133.929 159.216 134.014C159.618 134.095 159.992 134.246 160.34 134.466C160.691 134.686 160.979 135.001 161.203 135.411C161.427 135.816 161.539 136.343 161.539 136.992V142.901H159.847V141.685H159.778C159.666 141.909 159.498 142.129 159.274 142.345C159.05 142.561 158.762 142.741 158.411 142.884C158.059 143.027 157.638 143.098 157.148 143.098ZM157.524 141.708C158.003 141.708 158.413 141.613 158.752 141.424C159.096 141.235 159.357 140.988 159.535 140.683C159.716 140.374 159.807 140.043 159.807 139.692V138.545C159.745 138.607 159.625 138.664 159.448 138.719C159.274 138.769 159.075 138.813 158.851 138.852C158.627 138.887 158.409 138.919 158.196 138.95C157.984 138.977 157.806 139 157.663 139.02C157.327 139.062 157.02 139.134 156.742 139.234C156.468 139.335 156.248 139.479 156.082 139.669C155.92 139.854 155.838 140.101 155.838 140.41C155.838 140.839 155.997 141.163 156.313 141.384C156.63 141.6 157.034 141.708 157.524 141.708ZM170.188 136.175L168.618 136.453C168.553 136.252 168.448 136.061 168.305 135.88C168.166 135.698 167.977 135.55 167.738 135.434C167.498 135.318 167.199 135.26 166.84 135.26C166.349 135.26 165.94 135.37 165.611 135.59C165.283 135.806 165.119 136.086 165.119 136.43C165.119 136.728 165.229 136.967 165.449 137.149C165.669 137.33 166.025 137.479 166.515 137.595L167.929 137.919C168.748 138.108 169.358 138.4 169.759 138.794C170.161 139.188 170.362 139.7 170.362 140.329C170.362 140.862 170.208 141.337 169.899 141.754C169.593 142.168 169.167 142.492 168.618 142.728C168.074 142.963 167.442 143.081 166.724 143.081C165.727 143.081 164.914 142.869 164.285 142.444C163.655 142.015 163.269 141.407 163.126 140.619L164.8 140.364C164.905 140.8 165.119 141.131 165.443 141.355C165.768 141.575 166.191 141.685 166.712 141.685C167.28 141.685 167.734 141.567 168.074 141.331C168.413 141.092 168.583 140.8 168.583 140.457C168.583 140.178 168.479 139.945 168.271 139.756C168.066 139.566 167.751 139.423 167.326 139.327L165.82 138.997C164.99 138.807 164.376 138.506 163.978 138.093C163.584 137.68 163.387 137.156 163.387 136.523C163.387 135.998 163.534 135.538 163.827 135.144C164.121 134.75 164.526 134.443 165.044 134.223C165.561 133.999 166.154 133.887 166.822 133.887C167.784 133.887 168.541 134.095 169.093 134.513C169.646 134.926 170.011 135.48 170.188 136.175ZM173.673 137.618V142.901H171.94V131.037H173.649V135.451H173.759C173.968 134.972 174.287 134.592 174.715 134.31C175.144 134.028 175.704 133.887 176.395 133.887C177.006 133.887 177.539 134.012 177.994 134.263C178.454 134.514 178.809 134.889 179.06 135.387C179.315 135.882 179.443 136.5 179.443 137.241V142.901H177.711V137.45C177.711 136.797 177.542 136.291 177.206 135.932C176.87 135.569 176.403 135.387 175.804 135.387C175.395 135.387 175.028 135.474 174.704 135.648C174.383 135.822 174.13 136.077 173.945 136.413C173.763 136.745 173.673 137.147 173.673 137.618ZM181.567 142.901V131.037H183.299V135.445H183.404C183.504 135.26 183.649 135.046 183.838 134.802C184.027 134.559 184.29 134.346 184.626 134.165C184.962 133.98 185.406 133.887 185.958 133.887C186.677 133.887 187.318 134.068 187.882 134.431C188.446 134.794 188.888 135.318 189.209 136.001C189.533 136.685 189.695 137.508 189.695 138.469C189.695 139.431 189.535 140.256 189.214 140.943C188.894 141.627 188.453 142.154 187.893 142.525C187.333 142.892 186.694 143.075 185.976 143.075C185.435 143.075 184.993 142.984 184.649 142.803C184.309 142.621 184.043 142.409 183.85 142.166C183.657 141.922 183.508 141.706 183.404 141.517H183.259V142.901H181.567ZM183.265 138.452C183.265 139.078 183.355 139.626 183.537 140.097C183.718 140.569 183.981 140.937 184.325 141.204C184.668 141.467 185.089 141.598 185.588 141.598C186.105 141.598 186.538 141.461 186.885 141.187C187.233 140.908 187.496 140.532 187.673 140.057C187.855 139.582 187.946 139.047 187.946 138.452C187.946 137.865 187.857 137.338 187.679 136.87C187.505 136.403 187.243 136.034 186.891 135.764C186.544 135.494 186.109 135.358 185.588 135.358C185.086 135.358 184.661 135.488 184.313 135.747C183.969 136.005 183.709 136.366 183.531 136.83C183.353 137.293 183.265 137.834 183.265 138.452ZM195.062 143.081C194.228 143.081 193.5 142.89 192.878 142.507C192.256 142.125 191.774 141.59 191.43 140.903C191.086 140.215 190.914 139.412 190.914 138.493C190.914 137.57 191.086 136.762 191.43 136.071C191.774 135.38 192.256 134.843 192.878 134.46C193.5 134.078 194.228 133.887 195.062 133.887C195.897 133.887 196.625 134.078 197.246 134.46C197.868 134.843 198.351 135.38 198.695 136.071C199.039 136.762 199.21 137.57 199.21 138.493C199.21 139.412 199.039 140.215 198.695 140.903C198.351 141.59 197.868 142.125 197.246 142.507C196.625 142.89 195.897 143.081 195.062 143.081ZM195.068 141.627C195.609 141.627 196.057 141.484 196.412 141.198C196.767 140.912 197.03 140.532 197.2 140.057C197.374 139.582 197.461 139.058 197.461 138.487C197.461 137.919 197.374 137.398 197.2 136.923C197.03 136.444 196.767 136.059 196.412 135.77C196.057 135.48 195.609 135.335 195.068 135.335C194.524 135.335 194.072 135.48 193.712 135.77C193.357 136.059 193.093 136.444 192.919 136.923C192.749 137.398 192.664 137.919 192.664 138.487C192.664 139.058 192.749 139.582 192.919 140.057C193.093 140.532 193.357 140.912 193.712 141.198C194.072 141.484 194.524 141.627 195.068 141.627ZM203.407 143.098C202.843 143.098 202.334 142.994 201.878 142.785C201.422 142.573 201.061 142.266 200.794 141.864C200.532 141.463 200.401 140.97 200.401 140.387C200.401 139.885 200.497 139.472 200.69 139.147C200.883 138.823 201.144 138.566 201.472 138.377C201.801 138.187 202.167 138.045 202.573 137.948C202.979 137.851 203.392 137.778 203.813 137.728C204.346 137.666 204.778 137.616 205.111 137.577C205.443 137.535 205.684 137.467 205.835 137.374C205.985 137.282 206.061 137.131 206.061 136.923V136.882C206.061 136.376 205.918 135.984 205.632 135.706C205.35 135.428 204.929 135.289 204.369 135.289C203.786 135.289 203.326 135.418 202.99 135.677C202.658 135.932 202.428 136.216 202.301 136.529L200.673 136.158C200.866 135.617 201.148 135.181 201.519 134.849C201.893 134.513 202.324 134.269 202.811 134.119C203.297 133.964 203.809 133.887 204.346 133.887C204.701 133.887 205.078 133.929 205.476 134.014C205.877 134.095 206.252 134.246 206.599 134.466C206.951 134.686 207.239 135.001 207.463 135.411C207.687 135.816 207.799 136.343 207.799 136.992V142.901H206.107V141.685H206.037C205.925 141.909 205.757 142.129 205.533 142.345C205.309 142.561 205.022 142.741 204.67 142.884C204.319 143.027 203.898 143.098 203.407 143.098ZM203.784 141.708C204.263 141.708 204.672 141.613 205.012 141.424C205.356 141.235 205.616 140.988 205.794 140.683C205.976 140.374 206.066 140.043 206.066 139.692V138.545C206.005 138.607 205.885 138.664 205.707 138.719C205.533 138.769 205.335 138.813 205.111 138.852C204.887 138.887 204.668 138.919 204.456 138.95C204.243 138.977 204.066 139 203.923 139.02C203.587 139.062 203.28 139.134 203.002 139.234C202.728 139.335 202.507 139.479 202.341 139.669C202.179 139.854 202.098 140.101 202.098 140.41C202.098 140.839 202.256 141.163 202.573 141.384C202.89 141.6 203.293 141.708 203.784 141.708ZM209.78 142.901V134.003H211.454V135.416H211.547C211.709 134.937 211.995 134.561 212.404 134.287C212.817 134.009 213.285 133.869 213.806 133.869C213.914 133.869 214.042 133.873 214.188 133.881C214.339 133.889 214.457 133.898 214.542 133.91V135.567C214.472 135.548 214.349 135.526 214.171 135.503C213.993 135.476 213.816 135.463 213.638 135.463C213.229 135.463 212.864 135.55 212.543 135.723C212.226 135.893 211.975 136.131 211.79 136.436C211.604 136.737 211.512 137.081 211.512 137.467V142.901H209.78ZM218.727 143.075C218.009 143.075 217.368 142.892 216.804 142.525C216.244 142.154 215.803 141.627 215.483 140.943C215.166 140.256 215.008 139.431 215.008 138.469C215.008 137.508 215.168 136.685 215.489 136.001C215.813 135.318 216.257 134.794 216.821 134.431C217.385 134.068 218.024 133.887 218.739 133.887C219.291 133.887 219.735 133.98 220.071 134.165C220.411 134.346 220.674 134.559 220.859 134.802C221.048 135.046 221.195 135.26 221.299 135.445H221.404V131.037H223.136V142.901H221.444V141.517H221.299C221.195 141.706 221.044 141.922 220.847 142.166C220.654 142.409 220.388 142.621 220.048 142.803C219.708 142.984 219.268 143.075 218.727 143.075ZM219.109 141.598C219.608 141.598 220.029 141.467 220.372 141.204C220.72 140.937 220.983 140.569 221.16 140.097C221.342 139.626 221.433 139.078 221.433 138.452C221.433 137.834 221.344 137.293 221.166 136.83C220.988 136.366 220.728 136.005 220.384 135.747C220.04 135.488 219.615 135.358 219.109 135.358C218.588 135.358 218.154 135.494 217.806 135.764C217.458 136.034 217.196 136.403 217.018 136.87C216.844 137.338 216.757 137.865 216.757 138.452C216.757 139.047 216.846 139.582 217.024 140.057C217.201 140.532 217.464 140.908 217.812 141.187C218.163 141.461 218.596 141.598 219.109 141.598Z" fill="#0065FF"/>
<path d="M121.658 180.233C121.278 180.613 120.663 180.613 120.284 180.233C119.905 179.854 119.905 179.239 120.284 178.86C120.663 178.481 121.278 178.481 121.658 178.86C122.037 179.239 122.037 179.854 121.658 180.233Z" fill="#2B2B2B"/>
<path d="M118.911 176.113C118.532 176.493 117.917 176.493 117.538 176.113C117.158 175.734 117.158 175.119 117.538 174.74C117.917 174.361 118.532 174.361 118.911 174.74C119.29 175.119 119.29 175.734 118.911 176.113Z" fill="#2B2B2B"/>
<path d="M125.778 182.98C125.398 183.359 124.783 183.359 124.404 182.98C124.025 182.601 124.025 181.986 124.404 181.607C124.783 181.227 125.398 181.227 125.778 181.607C126.157 181.986 126.157 182.601 125.778 182.98Z" fill="#2B2B2B"/>
<path fill-rule="evenodd" clip-rule="evenodd" d="M117.188 172.086C116.265 171.928 115.714 172.1 115.425 172.389C115.209 172.606 115.059 172.961 115.063 173.524C115.066 174.091 115.228 174.807 115.569 175.635C116.248 177.287 117.581 179.247 119.426 181.092C121.271 182.937 123.23 184.27 124.883 184.949C125.71 185.289 126.427 185.451 126.993 185.455C127.556 185.459 127.912 185.309 128.128 185.092C128.417 184.804 128.59 184.253 128.432 183.33C128.309 182.611 127.997 181.756 127.5 180.821C127.3 180.925 127.05 180.989 126.761 180.937C126.061 180.811 124.744 180.23 122.516 178.002C120.287 175.773 119.706 174.456 119.581 173.756C119.529 173.468 119.593 173.218 119.696 173.018C118.762 172.521 117.906 172.209 117.188 172.086ZM120.811 171.97C119.626 171.29 118.468 170.827 117.433 170.65C116.301 170.456 115.167 170.587 114.395 171.359C113.821 171.934 113.601 172.716 113.606 173.534C113.612 174.348 113.838 175.255 114.221 176.189C114.99 178.059 116.449 180.174 118.396 182.122C120.343 184.069 122.459 185.527 124.329 186.296C125.262 186.68 126.169 186.906 126.983 186.911C127.801 186.917 128.584 186.697 129.158 186.122C129.93 185.35 130.061 184.217 129.868 183.084C129.691 182.05 129.228 180.891 128.548 179.706C129.896 177.643 129.664 174.85 127.852 173.038L127.48 172.666C125.668 170.854 122.874 170.622 120.811 171.97ZM121.048 173.634C121.172 174.042 121.66 175.086 123.546 176.972C125.431 178.857 126.476 179.346 126.883 179.47C128.331 177.956 128.31 175.556 126.822 174.068L126.45 173.696C124.961 172.207 122.561 172.187 121.048 173.634ZM113.933 178.345C114.217 178.629 114.217 179.091 113.933 179.375L111.873 181.435C111.588 181.719 111.127 181.719 110.843 181.435C110.558 181.151 110.558 180.689 110.843 180.405L112.903 178.345C113.187 178.061 113.648 178.061 113.933 178.345ZM117.366 183.152C117.65 183.436 117.65 183.897 117.366 184.182L113.364 188.184C113.079 188.468 112.618 188.468 112.334 188.184C112.049 187.899 112.049 187.438 112.334 187.154L116.336 183.152C116.62 182.867 117.082 182.867 117.366 183.152ZM122.173 186.585C122.457 186.869 122.457 187.33 122.173 187.615L120.113 189.675C119.828 189.959 119.367 189.959 119.083 189.675C118.798 189.39 118.798 188.929 119.083 188.645L121.143 186.585C121.427 186.3 121.888 186.3 122.173 186.585Z" fill="#2B2B2B"/>
<path d="M143.25 185.546V173.682H145.04V184.005H150.416V185.546H143.25ZM155.828 185.726C154.952 185.726 154.196 185.539 153.563 185.164C152.934 184.786 152.447 184.254 152.103 183.571C151.763 182.883 151.593 182.078 151.593 181.155C151.593 180.244 151.763 179.44 152.103 178.745C152.447 178.05 152.926 177.507 153.54 177.117C154.158 176.727 154.88 176.532 155.707 176.532C156.209 176.532 156.695 176.615 157.167 176.781C157.638 176.947 158.061 177.208 158.435 177.563C158.81 177.918 159.105 178.38 159.322 178.948C159.538 179.512 159.646 180.197 159.646 181.004V181.618H152.572V180.321H157.949C157.949 179.865 157.856 179.461 157.671 179.11C157.485 178.755 157.224 178.475 156.888 178.27C156.556 178.065 156.166 177.963 155.718 177.963C155.232 177.963 154.807 178.083 154.444 178.322C154.084 178.558 153.806 178.867 153.609 179.249C153.416 179.627 153.32 180.039 153.32 180.483V181.497C153.32 182.092 153.424 182.598 153.633 183.015C153.845 183.432 154.14 183.75 154.519 183.971C154.897 184.187 155.34 184.295 155.846 184.295C156.174 184.295 156.473 184.249 156.744 184.156C157.014 184.059 157.248 183.917 157.445 183.727C157.642 183.538 157.792 183.304 157.897 183.026L159.536 183.322C159.405 183.805 159.169 184.227 158.829 184.59C158.493 184.95 158.07 185.23 157.56 185.431C157.055 185.627 156.477 185.726 155.828 185.726ZM163.831 185.743C163.268 185.743 162.758 185.639 162.302 185.431C161.846 185.218 161.485 184.911 161.219 184.509C160.956 184.108 160.825 183.615 160.825 183.032C160.825 182.53 160.921 182.117 161.114 181.792C161.307 181.468 161.568 181.211 161.896 181.022C162.225 180.833 162.592 180.69 162.997 180.593C163.403 180.496 163.816 180.423 164.237 180.373C164.77 180.311 165.203 180.261 165.535 180.222C165.867 180.18 166.108 180.112 166.259 180.02C166.409 179.927 166.485 179.776 166.485 179.568V179.527C166.485 179.021 166.342 178.629 166.056 178.351C165.774 178.073 165.353 177.934 164.793 177.934C164.21 177.934 163.75 178.063 163.414 178.322C163.082 178.577 162.852 178.861 162.725 179.174L161.097 178.803C161.29 178.262 161.572 177.826 161.943 177.494C162.317 177.158 162.748 176.914 163.235 176.764C163.721 176.609 164.233 176.532 164.77 176.532C165.125 176.532 165.502 176.574 165.9 176.659C166.301 176.74 166.676 176.891 167.024 177.111C167.375 177.331 167.663 177.646 167.887 178.056C168.111 178.461 168.223 178.988 168.223 179.637V185.546H166.531V184.33H166.462C166.35 184.554 166.182 184.774 165.958 184.99C165.734 185.207 165.446 185.386 165.094 185.529C164.743 185.672 164.322 185.743 163.831 185.743ZM164.208 184.353C164.687 184.353 165.096 184.258 165.436 184.069C165.78 183.88 166.041 183.633 166.218 183.328C166.4 183.019 166.491 182.688 166.491 182.337V181.19C166.429 181.252 166.309 181.309 166.131 181.364C165.958 181.414 165.759 181.458 165.535 181.497C165.311 181.532 165.092 181.564 164.88 181.595C164.668 181.622 164.49 181.646 164.347 181.665C164.011 181.707 163.704 181.779 163.426 181.879C163.152 181.98 162.932 182.124 162.765 182.314C162.603 182.499 162.522 182.746 162.522 183.055C162.522 183.484 162.68 183.808 162.997 184.029C163.314 184.245 163.717 184.353 164.208 184.353ZM170.204 185.546V176.648H171.878V178.061H171.971C172.133 177.582 172.419 177.206 172.828 176.932C173.241 176.654 173.709 176.515 174.23 176.515C174.338 176.515 174.466 176.518 174.612 176.526C174.763 176.534 174.881 176.543 174.966 176.555V178.212C174.896 178.193 174.773 178.171 174.595 178.148C174.417 178.121 174.24 178.108 174.062 178.108C173.653 178.108 173.288 178.195 172.967 178.368C172.65 178.538 172.399 178.776 172.214 179.081C172.029 179.382 171.936 179.726 171.936 180.112V185.546H170.204ZM177.871 180.263V185.546H176.139V176.648H177.801V178.096H177.911C178.116 177.625 178.437 177.246 178.873 176.961C179.313 176.675 179.868 176.532 180.536 176.532C181.142 176.532 181.673 176.659 182.129 176.914C182.585 177.165 182.938 177.54 183.189 178.038C183.44 178.536 183.566 179.152 183.566 179.886V185.546H181.834V180.095C181.834 179.45 181.666 178.946 181.33 178.583C180.993 178.216 180.532 178.032 179.945 178.032C179.543 178.032 179.186 178.119 178.873 178.293C178.564 178.467 178.319 178.722 178.137 179.058C177.96 179.39 177.871 179.792 177.871 180.263ZM185.563 185.546V176.648H187.295V185.546H185.563ZM186.437 175.275C186.136 175.275 185.877 175.174 185.661 174.973C185.449 174.769 185.342 174.525 185.342 174.244C185.342 173.958 185.449 173.714 185.661 173.514C185.877 173.309 186.136 173.206 186.437 173.206C186.739 173.206 186.996 173.309 187.208 173.514C187.424 173.714 187.532 173.958 187.532 174.244C187.532 174.525 187.424 174.769 187.208 174.973C186.996 175.174 186.739 175.275 186.437 175.275ZM191.031 180.263V185.546H189.299V176.648H190.962V178.096H191.072C191.276 177.625 191.597 177.246 192.033 176.961C192.474 176.675 193.028 176.532 193.696 176.532C194.302 176.532 194.834 176.659 195.289 176.914C195.745 177.165 196.098 177.54 196.349 178.038C196.601 178.536 196.726 179.152 196.726 179.886V185.546H194.994V180.095C194.994 179.45 194.826 178.946 194.49 178.583C194.154 178.216 193.692 178.032 193.105 178.032C192.704 178.032 192.346 178.119 192.033 178.293C191.724 178.467 191.479 178.722 191.298 179.058C191.12 179.39 191.031 179.792 191.031 180.263ZM202.454 189.069C201.747 189.069 201.139 188.976 200.629 188.791C200.123 188.605 199.71 188.36 199.389 188.055C199.069 187.75 198.829 187.416 198.671 187.053L200.16 186.439C200.264 186.609 200.403 186.788 200.577 186.977C200.754 187.17 200.994 187.335 201.295 187.47C201.6 187.605 201.992 187.673 202.471 187.673C203.128 187.673 203.67 187.512 204.099 187.192C204.528 186.875 204.742 186.369 204.742 185.674V183.924H204.632C204.528 184.113 204.377 184.324 204.18 184.556C203.987 184.787 203.721 184.988 203.381 185.158C203.041 185.328 202.599 185.413 202.054 185.413C201.351 185.413 200.718 185.249 200.154 184.921C199.594 184.589 199.15 184.1 198.821 183.455C198.497 182.806 198.335 182.009 198.335 181.062C198.335 180.116 198.495 179.305 198.816 178.629C199.14 177.953 199.584 177.436 200.148 177.076C200.712 176.713 201.351 176.532 202.066 176.532C202.618 176.532 203.064 176.625 203.404 176.81C203.744 176.991 204.008 177.204 204.198 177.447C204.391 177.691 204.539 177.905 204.644 178.09H204.771V176.648H206.469V185.743C206.469 186.508 206.291 187.136 205.936 187.626C205.58 188.117 205.099 188.48 204.493 188.715C203.891 188.951 203.211 189.069 202.454 189.069ZM202.436 183.976C202.935 183.976 203.356 183.861 203.699 183.629C204.047 183.393 204.31 183.057 204.487 182.621C204.669 182.18 204.76 181.653 204.76 181.039C204.76 180.44 204.671 179.913 204.493 179.458C204.315 179.002 204.055 178.646 203.711 178.392C203.367 178.133 202.942 178.003 202.436 178.003C201.915 178.003 201.481 178.139 201.133 178.409C200.785 178.675 200.523 179.038 200.345 179.498C200.171 179.958 200.084 180.471 200.084 181.039C200.084 181.622 200.173 182.134 200.351 182.574C200.529 183.015 200.791 183.358 201.139 183.606C201.49 183.853 201.923 183.976 202.436 183.976ZM212.596 185.546V173.682H216.825C217.748 173.682 218.513 173.85 219.119 174.186C219.726 174.522 220.179 174.981 220.481 175.564C220.782 176.144 220.932 176.796 220.932 177.523C220.932 178.253 220.78 178.909 220.475 179.492C220.174 180.072 219.718 180.531 219.108 180.871C218.501 181.207 217.738 181.375 216.819 181.375H213.911V179.857H216.657C217.24 179.857 217.713 179.757 218.076 179.556C218.439 179.351 218.706 179.073 218.876 178.722C219.046 178.37 219.131 177.971 219.131 177.523C219.131 177.075 219.046 176.677 218.876 176.329C218.706 175.982 218.437 175.709 218.071 175.512C217.707 175.315 217.229 175.217 216.634 175.217H214.386V185.546H212.596ZM225.076 185.743C224.512 185.743 224.002 185.639 223.546 185.431C223.091 185.218 222.729 184.911 222.463 184.509C222.2 184.108 222.069 183.615 222.069 183.032C222.069 182.53 222.166 182.117 222.359 181.792C222.552 181.468 222.813 181.211 223.141 181.022C223.469 180.833 223.836 180.69 224.242 180.593C224.647 180.496 225.06 180.423 225.481 180.373C226.014 180.311 226.447 180.261 226.779 180.222C227.111 180.18 227.353 180.112 227.503 180.02C227.654 179.927 227.729 179.776 227.729 179.568V179.527C227.729 179.021 227.586 178.629 227.3 178.351C227.019 178.073 226.598 177.934 226.037 177.934C225.454 177.934 224.995 178.063 224.659 178.322C224.327 178.577 224.097 178.861 223.969 179.174L222.341 178.803C222.534 178.262 222.816 177.826 223.187 177.494C223.562 177.158 223.992 176.914 224.479 176.764C224.966 176.609 225.477 176.532 226.014 176.532C226.37 176.532 226.746 176.574 227.144 176.659C227.546 176.74 227.92 176.891 228.268 177.111C228.619 177.331 228.907 177.646 229.131 178.056C229.355 178.461 229.467 178.988 229.467 179.637V185.546H227.776V184.33H227.706C227.594 184.554 227.426 184.774 227.202 184.99C226.978 185.207 226.69 185.386 226.339 185.529C225.987 185.672 225.566 185.743 225.076 185.743ZM225.452 184.353C225.931 184.353 226.341 184.258 226.681 184.069C227.024 183.88 227.285 183.633 227.463 183.328C227.644 183.019 227.735 182.688 227.735 182.337V181.19C227.673 181.252 227.553 181.309 227.376 181.364C227.202 181.414 227.003 181.458 226.779 181.497C226.555 181.532 226.337 181.564 226.124 181.595C225.912 181.622 225.734 181.646 225.591 181.665C225.255 181.707 224.948 181.779 224.67 181.879C224.396 181.98 224.176 182.124 224.01 182.314C223.848 182.499 223.766 182.746 223.766 183.055C223.766 183.484 223.925 183.808 224.242 184.029C224.558 184.245 224.962 184.353 225.452 184.353ZM235.602 176.648V178.038H230.741V176.648H235.602ZM232.045 174.516H233.777V182.934C233.777 183.27 233.827 183.523 233.928 183.693C234.028 183.859 234.157 183.973 234.316 184.034C234.478 184.092 234.654 184.121 234.843 184.121C234.982 184.121 235.104 184.112 235.208 184.092C235.312 184.073 235.393 184.057 235.451 184.046L235.764 185.477C235.664 185.515 235.521 185.554 235.335 185.593C235.15 185.635 234.918 185.658 234.64 185.662C234.185 185.67 233.76 185.589 233.366 185.419C232.972 185.249 232.653 184.986 232.41 184.631C232.166 184.276 232.045 183.83 232.045 183.293V174.516ZM239.115 180.263V185.546H237.383V173.682H239.092V178.096H239.202C239.411 177.617 239.729 177.237 240.158 176.955C240.587 176.673 241.147 176.532 241.838 176.532C242.448 176.532 242.981 176.657 243.437 176.908C243.897 177.16 244.252 177.534 244.503 178.032C244.758 178.527 244.885 179.145 244.885 179.886V185.546H243.153V180.095C243.153 179.442 242.985 178.936 242.649 178.577C242.313 178.214 241.846 178.032 241.247 178.032C240.838 178.032 240.471 178.119 240.146 178.293C239.826 178.467 239.573 178.722 239.388 179.058C239.206 179.39 239.115 179.792 239.115 180.263ZM248.8 185.546L246.181 176.648H247.971L249.715 183.183H249.802L251.552 176.648H253.342L255.08 183.154H255.167L256.899 176.648H258.689L256.076 185.546H254.309L252.502 179.122H252.369L250.561 185.546H248.8ZM262.596 185.743C262.033 185.743 261.523 185.639 261.067 185.431C260.611 185.218 260.25 184.911 259.984 184.509C259.721 184.108 259.59 183.615 259.59 183.032C259.59 182.53 259.686 182.117 259.879 181.792C260.072 181.468 260.333 181.211 260.661 181.022C260.99 180.833 261.357 180.69 261.762 180.593C262.168 180.496 262.581 180.423 263.002 180.373C263.535 180.311 263.968 180.261 264.3 180.222C264.632 180.18 264.873 180.112 265.024 180.02C265.174 179.927 265.25 179.776 265.25 179.568V179.527C265.25 179.021 265.107 178.629 264.821 178.351C264.539 178.073 264.118 177.934 263.558 177.934C262.975 177.934 262.515 178.063 262.179 178.322C261.847 178.577 261.617 178.861 261.49 179.174L259.862 178.803C260.055 178.262 260.337 177.826 260.708 177.494C261.082 177.158 261.513 176.914 262 176.764C262.486 176.609 262.998 176.532 263.535 176.532C263.89 176.532 264.267 176.574 264.665 176.659C265.066 176.74 265.441 176.891 265.789 177.111C266.14 177.331 266.428 177.646 266.652 178.056C266.876 178.461 266.988 178.988 266.988 179.637V185.546H265.296V184.33H265.227C265.115 184.554 264.947 184.774 264.723 184.99C264.499 185.207 264.211 185.386 263.859 185.529C263.508 185.672 263.087 185.743 262.596 185.743ZM262.973 184.353C263.452 184.353 263.861 184.258 264.201 184.069C264.545 183.88 264.806 183.633 264.983 183.328C265.165 183.019 265.256 182.688 265.256 182.337V181.19C265.194 181.252 265.074 181.309 264.896 181.364C264.723 181.414 264.524 181.458 264.3 181.497C264.076 181.532 263.857 181.564 263.645 181.595C263.433 181.622 263.255 181.646 263.112 181.665C262.776 181.707 262.469 181.779 262.191 181.879C261.917 181.98 261.697 182.124 261.53 182.314C261.368 182.499 261.287 182.746 261.287 183.055C261.287 183.484 261.445 183.808 261.762 184.029C262.079 184.245 262.483 184.353 262.973 184.353ZM269.745 188.883C269.486 188.883 269.251 188.862 269.038 188.82C268.826 188.781 268.667 188.739 268.563 188.692L268.98 187.273C269.297 187.358 269.579 187.394 269.826 187.383C270.073 187.371 270.292 187.279 270.481 187.105C270.674 186.931 270.844 186.647 270.991 186.253L271.205 185.662L267.949 176.648H269.803L272.057 183.553H272.149L274.403 176.648H276.263L272.595 186.734C272.425 187.198 272.209 187.59 271.947 187.91C271.684 188.235 271.371 188.478 271.008 188.64C270.645 188.802 270.224 188.883 269.745 188.883Z" fill="#2B2B2B"/>
<path fill-rule="evenodd" clip-rule="evenodd" d="M118.004 211.752H123.937C125.265 211.752 126.336 211.752 127.178 211.865C128.052 211.983 128.788 212.234 129.372 212.819C129.957 213.403 130.208 214.139 130.326 215.013C130.439 215.855 130.439 216.925 130.439 218.253V226.129C130.439 227.457 130.439 228.527 130.326 229.369C130.208 230.243 129.957 230.979 129.372 231.564C128.788 232.148 128.052 232.4 127.178 232.517C126.336 232.63 125.265 232.63 123.937 232.63H118.004C117.7 232.63 117.409 232.63 117.131 232.629C117.116 232.63 117.102 232.63 117.087 232.63C117.069 232.63 117.051 232.63 117.034 232.628C116.143 232.623 115.39 232.601 114.764 232.517C113.89 232.4 113.154 232.148 112.569 231.564C111.985 230.979 111.733 230.243 111.616 229.369C111.523 228.675 111.506 227.825 111.503 226.804H111.26C110.858 226.804 110.532 226.478 110.532 226.075C110.532 225.673 110.858 225.347 111.26 225.347H111.503V222.919H111.26C110.858 222.919 110.532 222.593 110.532 222.191C110.532 221.789 110.858 221.463 111.26 221.463H111.503V219.035H111.26C110.858 219.035 110.532 218.709 110.532 218.307C110.532 217.905 110.858 217.578 111.26 217.578H111.503C111.506 216.557 111.523 215.707 111.616 215.013C111.733 214.139 111.985 213.403 112.569 212.819C113.154 212.234 113.89 211.983 114.764 211.865C115.606 211.752 116.676 211.752 118.004 211.752ZM112.959 219.035H113.202C113.604 219.035 113.931 218.709 113.931 218.307C113.931 217.905 113.604 217.578 113.202 217.578H112.96C112.963 216.563 112.979 215.806 113.06 215.207C113.155 214.495 113.331 214.117 113.599 213.849C113.868 213.58 114.245 213.405 114.958 213.309C115.348 213.256 115.806 213.231 116.358 213.219V231.163C115.806 231.151 115.348 231.126 114.958 231.073C114.245 230.978 113.868 230.802 113.599 230.534C113.331 230.265 113.155 229.888 113.06 229.175C112.979 228.577 112.963 227.819 112.96 226.804H113.202C113.604 226.804 113.931 226.478 113.931 226.075C113.931 225.673 113.604 225.347 113.202 225.347H112.959V222.919H113.202C113.604 222.919 113.931 222.593 113.931 222.191C113.931 221.789 113.604 221.463 113.202 221.463H112.959V219.035ZM117.815 231.174C117.894 231.174 117.975 231.174 118.058 231.174H123.884C125.278 231.174 126.25 231.172 126.984 231.073C127.696 230.978 128.074 230.802 128.342 230.534C128.611 230.265 128.786 229.888 128.882 229.175C128.981 228.441 128.982 227.469 128.982 226.075V218.307C128.982 216.913 128.981 215.941 128.882 215.207C128.786 214.495 128.611 214.117 128.342 213.849C128.074 213.58 127.696 213.405 126.984 213.309C126.25 213.21 125.278 213.209 123.884 213.209H118.058C117.975 213.209 117.894 213.209 117.815 213.209V231.174ZM119.757 216.85C119.757 216.448 120.083 216.122 120.485 216.122H125.341C125.743 216.122 126.069 216.448 126.069 216.85C126.069 217.252 125.743 217.578 125.341 217.578H120.485C120.083 217.578 119.757 217.252 119.757 216.85ZM119.757 220.249C119.757 219.847 120.083 219.521 120.485 219.521H125.341C125.743 219.521 126.069 219.847 126.069 220.249C126.069 220.651 125.743 220.977 125.341 220.977H120.485C120.083 220.977 119.757 220.651 119.757 220.249Z" fill="#2B2B2B"/>
<path d="M143.25 216.326H145.422L149.2 225.549H149.339L153.116 216.326H155.288V228.191H153.585V219.605H153.475L149.976 228.174H148.562L145.063 219.599H144.953V228.191H143.25V216.326ZM158.521 231.528C158.262 231.528 158.026 231.507 157.814 231.464C157.602 231.426 157.443 231.383 157.339 231.337L157.756 229.917C158.073 230.002 158.355 230.039 158.602 230.027C158.849 230.016 159.067 229.923 159.257 229.749C159.45 229.576 159.62 229.292 159.766 228.898L159.981 228.307L156.725 219.292H158.579L160.832 226.198H160.925L163.179 219.292H165.038L161.371 229.379C161.201 229.842 160.985 230.234 160.722 230.555C160.46 230.879 160.147 231.122 159.784 231.285C159.421 231.447 159 231.528 158.521 231.528ZM176.941 219.443C176.88 218.894 176.625 218.47 176.177 218.168C175.729 217.863 175.165 217.711 174.485 217.711C173.998 217.711 173.577 217.788 173.222 217.942C172.867 218.093 172.591 218.302 172.394 218.568C172.201 218.831 172.104 219.13 172.104 219.466C172.104 219.748 172.17 219.991 172.301 220.196C172.436 220.401 172.612 220.573 172.828 220.712C173.048 220.847 173.284 220.961 173.535 221.053C173.786 221.142 174.027 221.216 174.259 221.274L175.418 221.575C175.796 221.668 176.184 221.793 176.582 221.951C176.98 222.11 177.349 222.318 177.689 222.577C178.029 222.836 178.303 223.156 178.511 223.539C178.724 223.921 178.83 224.379 178.83 224.912C178.83 225.584 178.656 226.181 178.309 226.702C177.965 227.223 177.465 227.635 176.808 227.936C176.155 228.237 175.366 228.388 174.439 228.388C173.55 228.388 172.782 228.247 172.133 227.965C171.484 227.683 170.976 227.283 170.609 226.766C170.242 226.244 170.04 225.626 170.001 224.912H171.797C171.832 225.341 171.971 225.698 172.214 225.984C172.461 226.266 172.776 226.476 173.158 226.615C173.545 226.75 173.967 226.818 174.427 226.818C174.933 226.818 175.383 226.739 175.777 226.58C176.175 226.418 176.488 226.194 176.715 225.908C176.943 225.619 177.057 225.281 177.057 224.894C177.057 224.543 176.957 224.255 176.756 224.031C176.559 223.807 176.291 223.622 175.951 223.475C175.615 223.328 175.234 223.199 174.809 223.087L173.407 222.705C172.457 222.446 171.704 222.065 171.148 221.563C170.596 221.061 170.32 220.397 170.32 219.57C170.32 218.887 170.505 218.29 170.876 217.78C171.247 217.27 171.749 216.875 172.382 216.593C173.015 216.307 173.73 216.164 174.526 216.164C175.329 216.164 176.038 216.305 176.652 216.587C177.27 216.869 177.756 217.257 178.112 217.751C178.467 218.242 178.652 218.806 178.668 219.443H176.941ZM184.658 219.292V220.683H179.797V219.292H184.658ZM181.101 217.16H182.833V225.578C182.833 225.914 182.883 226.167 182.984 226.337C183.084 226.503 183.213 226.617 183.372 226.679C183.534 226.737 183.71 226.766 183.899 226.766C184.038 226.766 184.16 226.756 184.264 226.737C184.368 226.717 184.449 226.702 184.507 226.69L184.82 228.121C184.72 228.16 184.577 228.199 184.391 228.237C184.206 228.28 183.974 228.303 183.696 228.307C183.24 228.315 182.816 228.233 182.422 228.063C182.028 227.894 181.709 227.631 181.466 227.276C181.222 226.92 181.101 226.474 181.101 225.937V217.16ZM191.885 224.501V219.292H193.623V228.191H191.919V226.65H191.827C191.622 227.125 191.294 227.521 190.842 227.838C190.394 228.15 189.836 228.307 189.168 228.307C188.596 228.307 188.09 228.181 187.65 227.93C187.213 227.675 186.87 227.299 186.618 226.801C186.371 226.302 186.248 225.686 186.248 224.952V219.292H187.98V224.744C187.98 225.35 188.148 225.833 188.484 226.192C188.82 226.551 189.256 226.731 189.793 226.731C190.118 226.731 190.44 226.65 190.761 226.488C191.085 226.325 191.354 226.08 191.566 225.752C191.782 225.424 191.889 225.006 191.885 224.501ZM198.955 228.365C198.237 228.365 197.596 228.181 197.032 227.814C196.472 227.444 196.031 226.916 195.711 226.233C195.394 225.545 195.236 224.721 195.236 223.759C195.236 222.797 195.396 221.975 195.717 221.291C196.041 220.607 196.485 220.084 197.049 219.721C197.613 219.358 198.252 219.176 198.967 219.176C199.519 219.176 199.963 219.269 200.299 219.455C200.639 219.636 200.902 219.848 201.087 220.092C201.276 220.335 201.423 220.549 201.527 220.735H201.632V216.326H203.364V228.191H201.672V226.806H201.527C201.423 226.996 201.272 227.212 201.075 227.455C200.882 227.698 200.616 227.911 200.276 228.092C199.936 228.274 199.496 228.365 198.955 228.365ZM199.337 226.887C199.836 226.887 200.257 226.756 200.6 226.493C200.948 226.227 201.211 225.858 201.388 225.387C201.57 224.916 201.661 224.367 201.661 223.742C201.661 223.124 201.572 222.583 201.394 222.119C201.216 221.656 200.956 221.295 200.612 221.036C200.268 220.777 199.843 220.648 199.337 220.648C198.816 220.648 198.382 220.783 198.034 221.053C197.686 221.324 197.424 221.693 197.246 222.16C197.072 222.627 196.985 223.155 196.985 223.742C196.985 224.336 197.074 224.871 197.252 225.346C197.429 225.821 197.692 226.198 198.04 226.476C198.391 226.75 198.824 226.887 199.337 226.887ZM206.605 231.528C206.346 231.528 206.11 231.507 205.898 231.464C205.686 231.426 205.527 231.383 205.423 231.337L205.84 229.917C206.157 230.002 206.439 230.039 206.686 230.027C206.933 230.016 207.151 229.923 207.341 229.749C207.534 229.576 207.704 229.292 207.85 228.898L208.065 228.307L204.809 219.292H206.663L208.916 226.198H209.009L211.263 219.292H213.122L209.455 229.379C209.285 229.842 209.069 230.234 208.806 230.555C208.544 230.879 208.231 231.122 207.868 231.285C207.505 231.447 207.084 231.528 206.605 231.528Z" fill="#2B2B2B"/>
<path fill-rule="evenodd" clip-rule="evenodd" d="M120.915 254.397H121.027C123.268 254.397 125.025 254.397 126.396 254.581C127.799 254.77 128.906 255.163 129.775 256.032C130.643 256.901 131.037 258.008 131.226 259.411C131.41 260.782 131.41 262.539 131.41 264.78V264.892C131.41 267.133 131.41 268.89 131.226 270.261C131.037 271.664 130.643 272.771 129.775 273.64C128.906 274.509 127.799 274.902 126.396 275.091C125.025 275.275 123.268 275.275 121.027 275.275H120.915C118.674 275.275 116.917 275.275 115.546 275.091C114.143 274.902 113.036 274.509 112.167 273.64C111.298 272.771 110.905 271.664 110.716 270.261C110.532 268.89 110.532 267.133 110.532 264.892V264.78C110.532 262.539 110.532 260.782 110.716 259.411C110.905 258.008 111.298 256.901 112.167 256.032C113.036 255.163 114.143 254.77 115.546 254.581C116.917 254.397 118.674 254.397 120.915 254.397ZM115.74 256.025C114.499 256.192 113.75 256.509 113.197 257.062C112.644 257.616 112.327 258.364 112.16 259.605C111.99 260.868 111.988 262.527 111.988 264.836C111.988 267.146 111.99 268.804 112.16 270.067C112.275 270.923 112.461 271.544 112.748 272.029L128.164 256.613C127.679 256.327 127.058 256.14 126.202 256.025C124.939 255.855 123.28 255.854 120.971 255.854C118.661 255.854 117.003 255.855 115.74 256.025ZM129.194 257.643L113.778 273.059C114.262 273.346 114.884 273.532 115.74 273.647C117.003 273.817 118.661 273.819 120.971 273.819C123.28 273.819 124.939 273.817 126.202 273.647C127.443 273.48 128.191 273.163 128.745 272.61C129.298 272.057 129.615 271.308 129.782 270.067C129.952 268.804 129.953 267.146 129.953 264.836C129.953 262.527 129.952 260.868 129.782 259.605C129.667 258.749 129.48 258.128 129.194 257.643ZM117.087 257.796C117.489 257.796 117.815 258.122 117.815 258.524L117.815 260.223H119.514C119.916 260.223 120.243 260.55 120.243 260.952C120.243 261.354 119.916 261.68 119.514 261.68H117.815L117.815 263.379C117.815 263.782 117.489 264.108 117.087 264.108C116.684 264.108 116.358 263.782 116.358 263.379L116.358 261.68L114.659 261.68C114.257 261.68 113.931 261.354 113.931 260.952C113.931 260.55 114.257 260.223 114.659 260.223L116.358 260.223L116.358 258.524C116.358 258.122 116.684 257.796 117.087 257.796ZM121.214 269.691C121.214 269.289 121.54 268.963 121.942 268.963H126.797C127.2 268.963 127.526 269.289 127.526 269.691C127.526 270.094 127.2 270.42 126.797 270.42H121.942C121.54 270.42 121.214 270.094 121.214 269.691Z" fill="#2B2B2B"/>
<path d="M143.25 270.836V258.971H150.688V260.512H145.04V264.127H150.3V265.662H145.04V269.295H150.758V270.836H143.25ZM153.982 261.937L155.946 265.402L157.927 261.937H159.821L157.046 266.387L159.845 270.836H157.95L155.946 267.511L153.947 270.836H152.047L154.816 266.387L152.081 261.937H153.982ZM163.847 271.033C163.283 271.033 162.774 270.929 162.318 270.72C161.862 270.508 161.501 270.201 161.235 269.799C160.972 269.397 160.841 268.905 160.841 268.322C160.841 267.82 160.937 267.406 161.13 267.082C161.323 266.757 161.584 266.501 161.912 266.311C162.241 266.122 162.608 265.979 163.013 265.883C163.419 265.786 163.832 265.713 164.253 265.662C164.786 265.601 165.218 265.55 165.551 265.512C165.883 265.469 166.124 265.402 166.275 265.309C166.425 265.216 166.501 265.066 166.501 264.857V264.817C166.501 264.311 166.358 263.919 166.072 263.641C165.79 263.362 165.369 263.223 164.809 263.223C164.226 263.223 163.766 263.353 163.43 263.612C163.098 263.867 162.868 264.15 162.741 264.463L161.113 264.092C161.306 263.552 161.588 263.115 161.959 262.783C162.333 262.447 162.764 262.204 163.251 262.053C163.737 261.899 164.249 261.821 164.786 261.821C165.141 261.821 165.518 261.864 165.916 261.949C166.317 262.03 166.692 262.181 167.04 262.401C167.391 262.621 167.679 262.936 167.903 263.345C168.127 263.751 168.239 264.278 168.239 264.927V270.836H166.547V269.619H166.478C166.366 269.843 166.198 270.063 165.974 270.28C165.75 270.496 165.462 270.676 165.11 270.819C164.759 270.961 164.338 271.033 163.847 271.033ZM164.224 269.643C164.703 269.643 165.112 269.548 165.452 269.359C165.796 269.169 166.057 268.922 166.234 268.617C166.416 268.308 166.507 267.978 166.507 267.626V266.479C166.445 266.541 166.325 266.599 166.147 266.653C165.974 266.703 165.775 266.748 165.551 266.786C165.327 266.821 165.108 266.854 164.896 266.885C164.684 266.912 164.506 266.935 164.363 266.954C164.027 266.997 163.72 267.068 163.442 267.169C163.168 267.269 162.947 267.414 162.781 267.603C162.619 267.789 162.538 268.036 162.538 268.345C162.538 268.773 162.696 269.098 163.013 269.318C163.33 269.534 163.733 269.643 164.224 269.643ZM170.22 270.836V261.937H171.882V263.386H171.992C172.178 262.895 172.481 262.513 172.902 262.239C173.323 261.96 173.827 261.821 174.414 261.821C175.009 261.821 175.507 261.96 175.909 262.239C176.314 262.517 176.614 262.899 176.807 263.386H176.899C177.112 262.911 177.45 262.532 177.913 262.25C178.377 261.964 178.929 261.821 179.57 261.821C180.377 261.821 181.036 262.074 181.546 262.58C182.059 263.086 182.316 263.849 182.316 264.869V270.836H180.584V265.031C180.584 264.428 180.42 263.992 180.092 263.722C179.763 263.451 179.371 263.316 178.916 263.316C178.352 263.316 177.913 263.49 177.6 263.838C177.288 264.181 177.131 264.624 177.131 265.164V270.836H175.405V264.921C175.405 264.438 175.254 264.05 174.953 263.756C174.652 263.463 174.26 263.316 173.777 263.316C173.449 263.316 173.145 263.403 172.867 263.577C172.593 263.747 172.371 263.984 172.201 264.289C172.035 264.595 171.952 264.948 171.952 265.35V270.836H170.22ZM190.98 264.11L189.41 264.388C189.344 264.187 189.24 263.996 189.097 263.814C188.958 263.633 188.769 263.484 188.529 263.368C188.29 263.252 187.99 263.194 187.631 263.194C187.141 263.194 186.731 263.305 186.403 263.525C186.075 263.741 185.911 264.021 185.911 264.365C185.911 264.662 186.021 264.902 186.241 265.083C186.461 265.265 186.816 265.413 187.307 265.529L188.72 265.854C189.539 266.043 190.149 266.334 190.551 266.728C190.953 267.122 191.154 267.634 191.154 268.264C191.154 268.797 190.999 269.272 190.69 269.689C190.385 270.102 189.958 270.427 189.41 270.662C188.865 270.898 188.234 271.016 187.515 271.016C186.519 271.016 185.706 270.803 185.076 270.378C184.447 269.95 184.061 269.341 183.918 268.553L185.592 268.298C185.696 268.735 185.911 269.065 186.235 269.289C186.559 269.509 186.982 269.619 187.504 269.619C188.072 269.619 188.525 269.502 188.865 269.266C189.205 269.026 189.375 268.735 189.375 268.391C189.375 268.113 189.271 267.879 189.062 267.69C188.858 267.501 188.543 267.358 188.118 267.261L186.612 266.931C185.781 266.742 185.167 266.441 184.769 266.027C184.375 265.614 184.178 265.091 184.178 264.457C184.178 263.932 184.325 263.473 184.619 263.079C184.912 262.685 185.318 262.378 185.835 262.157C186.353 261.933 186.946 261.821 187.614 261.821C188.576 261.821 189.333 262.03 189.885 262.447C190.437 262.86 190.802 263.415 190.98 264.11Z" fill="#2B2B2B"/>
<path d="M127.592 303.861C127.982 303.763 128.377 304.001 128.475 304.391C128.573 304.781 128.335 305.177 127.945 305.274L124.061 306.245C123.671 306.343 123.275 306.105 123.178 305.715C123.08 305.325 123.317 304.93 123.707 304.832L127.592 303.861Z" fill="#2B2B2B"/>
<path d="M127.592 307.745C127.982 307.648 128.377 307.885 128.475 308.275C128.573 308.665 128.335 309.061 127.945 309.158L124.061 310.129C123.671 310.227 123.275 309.99 123.178 309.6C123.08 309.209 123.317 308.814 123.707 308.716L127.592 307.745Z" fill="#2B2B2B"/>
<path d="M113.467 304.391C113.564 304.001 113.96 303.763 114.35 303.861L118.234 304.832C118.624 304.93 118.862 305.325 118.764 305.715C118.667 306.105 118.271 306.343 117.881 306.245L113.997 305.274C113.606 305.177 113.369 304.781 113.467 304.391Z" fill="#2B2B2B"/>
<path d="M113.467 308.275C113.564 307.885 113.96 307.648 114.35 307.745L118.234 308.716C118.624 308.814 118.862 309.209 118.764 309.6C118.667 309.99 118.271 310.227 117.881 310.129L113.997 309.158C113.606 309.061 113.369 308.665 113.467 308.275Z" fill="#2B2B2B"/>
<path fill-rule="evenodd" clip-rule="evenodd" d="M131.41 300.618C131.41 299.197 130.278 297.979 128.794 298.03C127.688 298.069 126.243 298.184 125.132 298.517C124.166 298.806 123.079 299.371 122.231 299.861C121.437 300.321 120.448 300.344 119.643 299.918C118.677 299.407 117.405 298.801 116.301 298.51C115.368 298.264 114.188 298.146 113.23 298.087C111.717 297.994 110.532 299.225 110.532 300.681V311.505C110.532 312.996 111.74 314.161 113.171 314.251C114.102 314.309 115.15 314.421 115.93 314.626C116.893 314.881 118.085 315.446 119.048 315.959C120.245 316.598 121.696 316.598 122.894 315.959C123.856 315.446 125.048 314.881 126.012 314.626C126.792 314.421 127.84 314.309 128.771 314.251C130.202 314.161 131.41 312.996 131.41 311.505V300.618ZM128.844 299.486C129.441 299.465 129.953 299.956 129.953 300.618V311.505C129.953 312.17 129.401 312.752 128.68 312.797C127.728 312.856 126.563 312.975 125.64 313.218C124.504 313.518 123.188 314.152 122.209 314.674C122.045 314.761 121.874 314.83 121.699 314.88V301.598C122.138 301.51 122.565 301.351 122.961 301.122C123.787 300.644 124.753 300.151 125.55 299.912C126.471 299.636 127.758 299.524 128.844 299.486ZM120.243 301.63C119.801 301.561 119.368 301.42 118.962 301.206C118.014 300.705 116.864 300.165 115.93 299.919C115.141 299.71 114.078 299.598 113.14 299.541C112.525 299.503 111.988 300.004 111.988 300.681V311.505C111.988 312.17 112.54 312.752 113.262 312.797C114.214 312.856 115.378 312.975 116.301 313.218C117.438 313.518 118.754 314.152 119.733 314.674C119.896 314.761 120.067 314.83 120.243 314.88V301.63Z" fill="#2B2B2B"/>
<path d="M147.612 309.634H149.373L150.613 311.25L151.198 311.968L153.174 314.546H151.343L150.022 312.826L149.57 312.2L147.612 309.634ZM153.556 307.548C153.556 308.815 153.324 309.904 152.861 310.816C152.398 311.723 151.762 312.422 150.955 312.913C150.152 313.399 149.238 313.643 148.215 313.643C147.187 313.643 146.27 313.399 145.463 312.913C144.66 312.422 144.026 311.721 143.563 310.81C143.099 309.898 142.867 308.811 142.867 307.548C142.867 306.281 143.099 305.194 143.563 304.286C144.026 303.375 144.66 302.676 145.463 302.189C146.27 301.699 147.187 301.453 148.215 301.453C149.238 301.453 150.152 301.699 150.955 302.189C151.762 302.676 152.398 303.375 152.861 304.286C153.324 305.194 153.556 306.281 153.556 307.548ZM151.783 307.548C151.783 306.582 151.627 305.769 151.314 305.109C151.005 304.445 150.58 303.943 150.04 303.603C149.503 303.259 148.894 303.087 148.215 303.087C147.531 303.087 146.921 303.259 146.384 303.603C145.847 303.943 145.422 304.445 145.109 305.109C144.8 305.769 144.646 306.582 144.646 307.548C144.646 308.514 144.8 309.329 145.109 309.993C145.422 310.653 145.847 311.155 146.384 311.499C146.921 311.839 147.531 312.009 148.215 312.009C148.894 312.009 149.503 311.839 150.04 311.499C150.58 311.155 151.005 310.653 151.314 309.993C151.627 309.329 151.783 308.514 151.783 307.548ZM160.96 309.79V304.582H162.698V313.48H160.995V311.939H160.902C160.697 312.414 160.369 312.81 159.917 313.127C159.469 313.44 158.911 313.596 158.243 313.596C157.671 313.596 157.165 313.471 156.725 313.22C156.288 312.965 155.945 312.588 155.694 312.09C155.446 311.592 155.323 310.976 155.323 310.242V304.582H157.055V310.033C157.055 310.64 157.223 311.123 157.559 311.482C157.895 311.841 158.331 312.021 158.868 312.021C159.193 312.021 159.515 311.939 159.836 311.777C160.16 311.615 160.429 311.37 160.641 311.041C160.857 310.713 160.964 310.296 160.96 309.79ZM168.534 313.66C167.657 313.66 166.902 313.473 166.269 313.098C165.639 312.72 165.153 312.189 164.809 311.505C164.469 310.817 164.299 310.012 164.299 309.089C164.299 308.178 164.469 307.374 164.809 306.679C165.153 305.984 165.632 305.441 166.246 305.051C166.864 304.661 167.586 304.466 168.413 304.466C168.915 304.466 169.401 304.549 169.872 304.715C170.344 304.881 170.767 305.142 171.141 305.497C171.516 305.853 171.811 306.314 172.028 306.882C172.244 307.446 172.352 308.131 172.352 308.938V309.553H165.278V308.255H170.655C170.655 307.799 170.562 307.395 170.376 307.044C170.191 306.689 169.93 306.409 169.594 306.204C169.262 305.999 168.872 305.897 168.424 305.897C167.937 305.897 167.513 306.017 167.15 306.256C166.79 306.492 166.512 306.801 166.315 307.183C166.122 307.562 166.026 307.973 166.026 308.417V309.431C166.026 310.026 166.13 310.532 166.339 310.949C166.551 311.366 166.846 311.685 167.225 311.905C167.603 312.121 168.046 312.229 168.552 312.229C168.88 312.229 169.179 312.183 169.45 312.09C169.72 311.994 169.954 311.851 170.151 311.661C170.348 311.472 170.498 311.238 170.602 310.96L172.242 311.256C172.111 311.739 171.875 312.162 171.535 312.525C171.199 312.884 170.776 313.164 170.266 313.365C169.76 313.562 169.183 313.66 168.534 313.66ZM180.616 306.754L179.046 307.032C178.98 306.832 178.876 306.64 178.733 306.459C178.594 306.277 178.405 306.129 178.165 306.013C177.926 305.897 177.626 305.839 177.267 305.839C176.777 305.839 176.367 305.949 176.039 306.169C175.711 306.386 175.547 306.666 175.547 307.009C175.547 307.307 175.657 307.546 175.877 307.728C176.097 307.909 176.452 308.058 176.943 308.174L178.356 308.498C179.175 308.687 179.785 308.979 180.187 309.373C180.589 309.767 180.79 310.279 180.79 310.908C180.79 311.441 180.635 311.916 180.326 312.333C180.021 312.747 179.594 313.071 179.046 313.307C178.501 313.542 177.87 313.66 177.151 313.66C176.155 313.66 175.342 313.448 174.712 313.023C174.083 312.594 173.697 311.986 173.554 311.198L175.228 310.943C175.332 311.379 175.547 311.71 175.871 311.934C176.196 312.154 176.618 312.264 177.14 312.264C177.708 312.264 178.161 312.146 178.501 311.91C178.841 311.671 179.011 311.379 179.011 311.036C179.011 310.758 178.907 310.524 178.698 310.335C178.494 310.145 178.179 310.003 177.754 309.906L176.248 309.576C175.417 309.386 174.803 309.085 174.405 308.672C174.011 308.259 173.814 307.735 173.814 307.102C173.814 306.577 173.961 306.117 174.255 305.723C174.548 305.329 174.954 305.022 175.471 304.802C175.989 304.578 176.582 304.466 177.25 304.466C178.212 304.466 178.969 304.675 179.521 305.092C180.073 305.505 180.438 306.059 180.616 306.754ZM186.522 304.582V305.972H181.661V304.582H186.522ZM182.965 302.45H184.697V310.868C184.697 311.204 184.747 311.457 184.848 311.627C184.948 311.793 185.077 311.907 185.236 311.968C185.398 312.026 185.574 312.055 185.763 312.055C185.902 312.055 186.024 312.046 186.128 312.026C186.232 312.007 186.313 311.992 186.371 311.98L186.684 313.411C186.584 313.45 186.441 313.488 186.255 313.527C186.07 313.569 185.838 313.592 185.56 313.596C185.104 313.604 184.68 313.523 184.286 313.353C183.892 313.183 183.573 312.92 183.33 312.565C183.086 312.21 182.965 311.764 182.965 311.227V302.45ZM188.112 313.48V304.582H189.844V313.48H188.112ZM188.987 303.209C188.685 303.209 188.426 303.108 188.21 302.908C187.998 302.703 187.892 302.46 187.892 302.178C187.892 301.892 187.998 301.648 188.21 301.448C188.426 301.243 188.685 301.141 188.987 301.141C189.288 301.141 189.545 301.243 189.757 301.448C189.973 301.648 190.081 301.892 190.081 302.178C190.081 302.46 189.973 302.703 189.757 302.908C189.545 303.108 189.288 303.209 188.987 303.209ZM195.596 313.66C194.762 313.66 194.034 313.469 193.412 313.087C192.79 312.704 192.308 312.169 191.964 311.482C191.62 310.794 191.448 309.991 191.448 309.072C191.448 308.149 191.62 307.341 191.964 306.65C192.308 305.959 192.79 305.422 193.412 305.04C194.034 304.657 194.762 304.466 195.596 304.466C196.431 304.466 197.159 304.657 197.78 305.04C198.402 305.422 198.885 305.959 199.229 306.65C199.573 307.341 199.744 308.149 199.744 309.072C199.744 309.991 199.573 310.794 199.229 311.482C198.885 312.169 198.402 312.704 197.78 313.087C197.159 313.469 196.431 313.66 195.596 313.66ZM195.602 312.206C196.143 312.206 196.591 312.063 196.946 311.777C197.302 311.491 197.564 311.111 197.734 310.636C197.908 310.161 197.995 309.638 197.995 309.066C197.995 308.498 197.908 307.977 197.734 307.502C197.564 307.023 197.302 306.638 196.946 306.349C196.591 306.059 196.143 305.914 195.602 305.914C195.058 305.914 194.606 306.059 194.246 306.349C193.891 306.638 193.627 307.023 193.453 307.502C193.283 307.977 193.198 308.498 193.198 309.066C193.198 309.638 193.283 310.161 193.453 310.636C193.627 311.111 193.891 311.491 194.246 311.777C194.606 312.063 195.058 312.206 195.602 312.206ZM203.084 308.197V313.48H201.352V304.582H203.014V306.03H203.124C203.329 305.559 203.65 305.18 204.086 304.895C204.526 304.609 205.081 304.466 205.749 304.466C206.355 304.466 206.886 304.593 207.342 304.848C207.798 305.099 208.151 305.474 208.402 305.972C208.653 306.47 208.779 307.087 208.779 307.82V313.48H207.047V308.029C207.047 307.384 206.879 306.88 206.543 306.517C206.207 306.15 205.745 305.966 205.158 305.966C204.756 305.966 204.399 306.053 204.086 306.227C203.777 306.401 203.532 306.656 203.35 306.992C203.173 307.324 203.084 307.726 203.084 308.197ZM214.906 313.48V301.616H219.251C220.093 301.616 220.79 301.755 221.342 302.033C221.895 302.307 222.308 302.68 222.582 303.151C222.856 303.618 222.993 304.145 222.993 304.732C222.993 305.227 222.903 305.644 222.721 305.984C222.54 306.32 222.296 306.59 221.991 306.795C221.69 306.996 221.358 307.143 220.995 307.235V307.351C221.389 307.37 221.773 307.498 222.148 307.733C222.526 307.965 222.839 308.295 223.086 308.724C223.333 309.153 223.457 309.674 223.457 310.288C223.457 310.895 223.314 311.439 223.028 311.922C222.746 312.401 222.31 312.781 221.719 313.063C221.128 313.341 220.373 313.48 219.454 313.48H214.906ZM216.696 311.945H219.28C220.137 311.945 220.751 311.779 221.122 311.447C221.493 311.115 221.678 310.7 221.678 310.201C221.678 309.827 221.584 309.483 221.394 309.17C221.205 308.857 220.935 308.608 220.583 308.423C220.236 308.237 219.823 308.145 219.344 308.145H216.696V311.945ZM216.696 306.749H219.095C219.496 306.749 219.857 306.671 220.178 306.517C220.502 306.362 220.759 306.146 220.948 305.868C221.142 305.586 221.238 305.254 221.238 304.872C221.238 304.381 221.066 303.97 220.722 303.638C220.379 303.305 219.852 303.139 219.141 303.139H216.696V306.749ZM227.705 313.677C227.141 313.677 226.631 313.573 226.175 313.365C225.719 313.152 225.358 312.845 225.092 312.443C224.829 312.042 224.698 311.549 224.698 310.966C224.698 310.464 224.794 310.051 224.987 309.726C225.181 309.402 225.441 309.145 225.77 308.956C226.098 308.767 226.465 308.624 226.87 308.527C227.276 308.431 227.689 308.357 228.11 308.307C228.643 308.245 229.076 308.195 229.408 308.156C229.74 308.114 229.981 308.046 230.132 307.954C230.283 307.861 230.358 307.71 230.358 307.502V307.461C230.358 306.955 230.215 306.563 229.929 306.285C229.647 306.007 229.226 305.868 228.666 305.868C228.083 305.868 227.623 305.997 227.287 306.256C226.955 306.511 226.725 306.795 226.598 307.108L224.97 306.737C225.163 306.196 225.445 305.76 225.816 305.428C226.191 305.092 226.621 304.848 227.108 304.698C227.594 304.543 228.106 304.466 228.643 304.466C228.998 304.466 229.375 304.508 229.773 304.593C230.174 304.675 230.549 304.825 230.897 305.045C231.248 305.265 231.536 305.58 231.76 305.99C231.984 306.395 232.096 306.922 232.096 307.571V313.48H230.404V312.264H230.335C230.223 312.488 230.055 312.708 229.831 312.924C229.607 313.141 229.319 313.32 228.967 313.463C228.616 313.606 228.195 313.677 227.705 313.677ZM228.081 312.287C228.56 312.287 228.969 312.192 229.309 312.003C229.653 311.814 229.914 311.567 230.091 311.262C230.273 310.953 230.364 310.622 230.364 310.271V309.124C230.302 309.186 230.182 309.244 230.005 309.298C229.831 309.348 229.632 309.392 229.408 309.431C229.184 309.466 228.966 309.498 228.753 309.529C228.541 309.556 228.363 309.58 228.22 309.599C227.884 309.641 227.577 309.713 227.299 309.813C227.025 309.914 226.805 310.059 226.639 310.248C226.476 310.433 226.395 310.68 226.395 310.989C226.395 311.418 226.554 311.742 226.87 311.963C227.187 312.179 227.591 312.287 228.081 312.287ZM235.809 308.197V313.48H234.077V304.582H235.74V306.03H235.85C236.054 305.559 236.375 305.18 236.811 304.895C237.252 304.609 237.806 304.466 238.474 304.466C239.08 304.466 239.611 304.593 240.067 304.848C240.523 305.099 240.876 305.474 241.127 305.972C241.378 306.47 241.504 307.087 241.504 307.82V313.48H239.772V308.029C239.772 307.384 239.604 306.88 239.268 306.517C238.932 306.15 238.47 305.966 237.883 305.966C237.481 305.966 237.124 306.053 236.811 306.227C236.502 306.401 236.257 306.656 236.076 306.992C235.898 307.324 235.809 307.726 235.809 308.197ZM245.094 310.462L245.082 308.348H245.384L248.929 304.582H251.003L246.959 308.869H246.687L245.094 310.462ZM243.501 313.48V301.616H245.233V313.48H243.501ZM249.12 313.48L245.934 309.251L247.127 308.04L251.247 313.48H249.12Z" fill="#2B2B2B"/>
</g>
<defs>
<filter id="filter0_d_29182_850" x="9.91821e-05" y="-7.94233" width="540.258" height="477.464" filterUnits="userSpaceOnUse" color-interpolation-filters="sRGB">
<feFlood flood-opacity="0" result="BackgroundImageFix"/>
<feColorMatrix in="SourceAlpha" type="matrix" values="0 0 0 0 0 0 0 0 0 0 0 0 0 0 0 0 0 0 127 0" result="hardAlpha"/>
<feOffset dy="37.2895"/>
<feGaussianBlur stdDeviation="37.2895"/>
<feComposite in2="hardAlpha" operator="out"/>
<feColorMatrix type="matrix" values="0 0 0 0 0 0 0 0 0 0 0 0 0 0 0 0 0 0 0.1 0"/>
<feBlend mode="normal" in2="BackgroundImageFix" result="effect1_dropShadow_29182_850"/>
<feBlend mode="normal" in="SourceGraphic" in2="effect1_dropShadow_29182_850" result="shape"/>
</filter>
<filter id="filter1_dii_29182_850" x="96.4997" y="53.2355" width="347.258" height="48.9425" filterUnits="userSpaceOnUse" color-interpolation-filters="sRGB">
<feFlood flood-opacity="0" result="BackgroundImageFix"/>
<feColorMatrix in="SourceAlpha" type="matrix" values="0 0 0 0 0 0 0 0 0 0 0 0 0 0 0 0 0 0 127 0" result="hardAlpha"/>
<feMorphology radius="1.1653" operator="erode" in="SourceAlpha" result="effect1_dropShadow_29182_850"/>
<feOffset dy="1.74795"/>
<feGaussianBlur stdDeviation="2.33059"/>
<feComposite in2="hardAlpha" operator="out"/>
<feColorMatrix type="matrix" values="0 0 0 0 0.0392157 0 0 0 0 0.0352941 0 0 0 0 0.0431373 0 0 0 0.07 0"/>
<feBlend mode="normal" in2="BackgroundImageFix" result="effect1_dropShadow_29182_850"/>
<feBlend mode="normal" in="SourceGraphic" in2="effect1_dropShadow_29182_850" result="shape"/>
<feColorMatrix in="SourceAlpha" type="matrix" values="0 0 0 0 0 0 0 0 0 0 0 0 0 0 0 0 0 0 127 0" result="hardAlpha"/>
<feOffset dx="-1.1653" dy="-1.1653"/>
<feGaussianBlur stdDeviation="0.582648"/>
<feComposite in2="hardAlpha" operator="arithmetic" k2="-1" k3="1"/>
<feColorMatrix type="matrix" values="0 0 0 0 0 0 0 0 0 0 0 0 0 0 0 0 0 0 0.15 0"/>
<feBlend mode="normal" in2="shape" result="effect2_innerShadow_29182_850"/>
<feColorMatrix in="SourceAlpha" type="matrix" values="0 0 0 0 0 0 0 0 0 0 0 0 0 0 0 0 0 0 127 0" result="hardAlpha"/>
<feOffset dx="1.1653" dy="1.1653"/>
<feGaussianBlur stdDeviation="0.582648"/>
<feComposite in2="hardAlpha" operator="arithmetic" k2="-1" k3="1"/>
<feColorMatrix type="matrix" values="0 0 0 0 1 0 0 0 0 1 0 0 0 0 1 0 0 0 0.25 0"/>
<feBlend mode="normal" in2="effect2_innerShadow_29182_850" result="effect3_innerShadow_29182_850"/>
</filter>
</defs>
</svg>
