<svg width="336" height="287" viewBox="0 0 336 287" fill="none" xmlns="http://www.w3.org/2000/svg">
<g filter="url(#filter0_d_29241_1593)">
<path d="M24 52.8608C24 44.8073 30.5287 38.2786 38.5823 38.2786H297.418C305.471 38.2786 312 44.8073 312 52.8608V286.279H24V52.8608Z" fill="white" shape-rendering="crispEdges"/>
<path d="M297.418 33.7219C307.988 33.7221 316.557 42.2905 316.557 52.8606V290.835H19.4434V52.8606C19.4435 42.2905 28.0119 33.7221 38.582 33.7219H297.418Z" stroke="white" stroke-opacity="0.16" stroke-width="9.11392" shape-rendering="crispEdges"/>
<path d="M168 58.588C168 55.4251 170.566 52.8432 173.723 53.0328C190.59 54.0459 206.923 59.5219 221.029 68.9472C236.725 79.4353 248.959 94.3425 256.183 111.784C263.408 129.225 265.298 148.416 261.615 166.932C257.932 185.447 248.841 202.455 235.493 215.803C222.144 229.152 205.136 238.243 186.621 241.926C168.106 245.609 148.914 243.719 131.473 236.494C114.032 229.27 99.1245 217.036 88.6364 201.339C79.2112 187.233 73.7351 170.9 72.722 154.034C72.5324 150.877 75.1143 148.31 78.2773 148.31C81.4402 148.31 83.9839 150.878 84.1994 154.033C85.1962 168.632 89.9936 182.754 98.16 194.976C107.39 208.789 120.508 219.555 135.856 225.912C151.204 232.27 168.093 233.933 184.386 230.692C200.68 227.451 215.646 219.451 227.393 207.704C239.14 195.957 247.14 180.991 250.381 164.697C253.622 148.404 251.959 131.515 245.601 116.167C239.244 100.819 228.478 87.7003 214.665 78.4708C202.443 70.3044 188.321 65.507 173.722 64.5101C170.567 64.2947 168 61.751 168 58.588Z" fill="#1DBF73"/>
<path d="M78.3447 144.82C75.1842 144.697 72.704 142.031 73.0163 138.884C75.1836 117.037 84.8287 96.5379 100.413 80.9102C115.95 65.3305 137.683 55.6407 159.669 53.3743C162.903 53.0409 165.613 55.6531 165.613 58.904C165.613 61.9687 163.193 64.4685 160.145 64.792C140.922 66.8327 122.139 75.3455 108.524 88.9982C94.9717 102.587 86.5235 120.363 84.4848 139.332C84.1469 142.477 81.5052 144.943 78.3447 144.82Z" fill="#EFEFEF"/>
<path d="M168 76.5745C168 73.3622 170.608 70.7354 173.811 70.9761C184.052 71.7456 194.058 74.5433 203.241 79.2275C214.154 84.7946 223.593 92.8679 230.785 102.786C237.976 112.704 242.716 124.185 244.615 136.288C246.514 148.391 245.519 160.772 241.711 172.416C237.903 184.06 231.391 194.637 222.707 203.279C214.024 211.921 203.417 218.383 191.754 222.136C180.092 225.888 167.707 226.824 155.613 224.868C145.437 223.221 135.711 219.566 126.994 214.136C124.268 212.437 123.716 208.777 125.614 206.186C127.512 203.594 131.14 203.056 133.889 204.718C141.106 209.083 149.11 212.031 157.471 213.384C167.751 215.047 178.278 214.252 188.191 211.062C198.104 207.872 207.12 202.38 214.501 195.034C221.882 187.688 227.418 178.698 230.654 168.8C233.891 158.903 234.737 148.379 233.123 138.091C231.508 127.804 227.48 118.045 221.367 109.615C215.254 101.184 207.231 94.322 197.955 89.59C190.41 85.7411 182.21 83.3906 173.809 82.6474C170.609 82.3643 168 79.7868 168 76.5745Z" fill="#FF9F0A"/>
<path d="M122.701 203.809C120.681 206.307 117.001 206.708 114.662 204.506C104.687 195.114 97.3509 183.22 93.4496 170.014C88.9976 154.944 89.2285 138.877 94.1119 123.942C98.9953 109.006 108.301 95.9056 120.796 86.3764C131.688 78.0693 145.588 72.8181 159.372 71.1054C162.662 70.6967 165.438 73.3561 165.438 76.6709C165.438 79.7669 163.003 82.2924 159.933 82.6928C148.41 84.1956 137.012 88.6392 127.85 95.6264C117.229 103.726 109.32 114.861 105.169 127.557C101.018 140.252 100.822 153.909 104.606 166.719C107.839 177.663 113.848 187.548 122.005 195.434C124.315 197.667 124.722 201.312 122.701 203.809Z" fill="#EFEFEF"/>
<path d="M168 94.6204C168 91.3257 170.678 88.6239 173.956 88.9528C183.388 89.8992 192.49 93.0836 200.488 98.2773C210.16 104.557 217.804 113.506 222.496 124.041C227.187 134.575 228.725 146.243 226.923 157.633C225.121 169.024 220.056 179.647 212.341 188.219C204.627 196.79 194.594 202.942 183.455 205.93C172.317 208.917 160.552 208.613 149.583 205.053C138.615 201.493 128.913 194.83 121.653 185.871C115.648 178.461 111.526 169.744 109.595 160.463C108.924 157.238 111.33 154.291 114.606 153.945C117.883 153.6 120.782 155.99 121.534 159.198C123.171 166.186 126.371 172.742 130.922 178.359C136.731 185.526 144.492 190.856 153.267 193.704C162.042 196.552 171.454 196.796 180.364 194.406C189.275 192.016 197.302 187.094 203.473 180.237C209.645 173.38 213.697 164.881 215.138 155.769C216.58 146.657 215.35 137.322 211.597 128.895C207.843 120.467 201.728 113.308 193.991 108.284C187.928 104.347 181.072 101.853 173.95 100.958C170.681 100.548 168 97.9151 168 94.6204Z" fill="#FFDE98"/>
<path d="M114.351 150.402C111.058 150.531 108.254 147.96 108.455 144.672C109.276 131.237 114.624 118.408 123.723 108.331C132.754 98.3286 145.869 91.7254 159.309 89.4933C162.692 88.9316 165.593 91.6721 165.593 95.1009C165.593 98.2373 163.145 100.797 160.058 101.349C149.598 103.219 139.683 108.458 132.578 116.327C125.569 124.09 121.341 133.896 120.452 144.21C120.169 147.492 117.643 150.274 114.351 150.402Z" fill="#EFEFEF"/>
<path d="M148.6 152.787C146.201 152.787 144.355 152.013 143.062 150.465C141.769 148.916 141.131 146.56 141.148 143.396C141.148 140.334 141.82 137.952 143.164 136.25C144.508 134.549 146.439 133.699 148.957 133.699C150.301 133.699 151.458 133.928 152.428 134.388C153.414 134.847 154.197 135.476 154.775 136.276C155.371 137.076 155.737 138.003 155.873 139.058L152.198 139.772C152.096 138.904 151.756 138.232 151.177 137.756C150.616 137.28 149.85 137.042 148.881 137.042C146.176 137.042 144.883 139.007 145.002 142.936C145.444 142.307 146.065 141.814 146.865 141.456C147.664 141.099 148.566 140.92 149.57 140.92C150.726 140.92 151.764 141.159 152.683 141.635C153.602 142.111 154.325 142.783 154.852 143.651C155.379 144.502 155.643 145.505 155.643 146.662C155.643 147.87 155.345 148.942 154.75 149.878C154.172 150.796 153.355 151.511 152.3 152.021C151.245 152.532 150.012 152.787 148.6 152.787ZM148.676 149.444C149.612 149.444 150.344 149.189 150.871 148.678C151.415 148.151 151.688 147.462 151.688 146.611C151.688 145.727 151.407 145.038 150.846 144.544C150.301 144.051 149.578 143.804 148.676 143.804C147.741 143.804 147.001 144.068 146.456 144.595C145.929 145.106 145.665 145.778 145.665 146.611C145.665 147.513 145.937 148.21 146.482 148.704C147.043 149.197 147.775 149.444 148.676 149.444ZM166.751 152.557V148.933H157.692V145.973L166.905 133.954H170.707V145.744H173.565V148.933H170.707V152.557H166.751ZM161.75 145.744H166.751V139.109L161.75 145.744ZM177.967 143.268C176.794 143.268 175.807 142.877 175.007 142.094C174.208 141.295 173.808 140.095 173.808 138.496C173.808 136.931 174.208 135.749 175.007 134.949C175.807 134.149 176.794 133.75 177.967 133.75C178.733 133.75 179.431 133.928 180.06 134.286C180.707 134.626 181.217 135.145 181.591 135.842C181.982 136.54 182.178 137.424 182.178 138.496C182.178 140.044 181.77 141.227 180.953 142.043C180.154 142.86 179.158 143.268 177.967 143.268ZM175.875 152.557L188.43 133.954H191.467L178.912 152.557H175.875ZM177.967 141.048C178.444 141.048 178.81 140.844 179.065 140.436C179.32 140.027 179.448 139.381 179.448 138.496C179.448 136.778 178.954 135.919 177.967 135.919C177.491 135.919 177.125 136.123 176.87 136.531C176.632 136.94 176.513 137.594 176.513 138.496C176.513 140.197 176.998 141.048 177.967 141.048ZM189.272 152.71C188.099 152.71 187.103 152.319 186.287 151.536C185.487 150.737 185.087 149.537 185.087 147.938C185.087 146.39 185.487 145.216 186.287 144.417C187.103 143.6 188.099 143.192 189.272 143.192C190.038 143.192 190.735 143.37 191.365 143.728C191.994 144.068 192.496 144.595 192.871 145.31C193.262 146.007 193.457 146.883 193.457 147.938C193.457 149.486 193.049 150.669 192.233 151.485C191.433 152.302 190.446 152.71 189.272 152.71ZM189.247 150.49C189.723 150.49 190.089 150.286 190.344 149.878C190.616 149.469 190.752 148.831 190.752 147.964C190.752 147.13 190.625 146.492 190.37 146.05C190.132 145.59 189.757 145.361 189.247 145.361C188.771 145.361 188.413 145.565 188.175 145.973C187.937 146.382 187.818 147.045 187.818 147.964C187.818 149.648 188.294 150.49 189.247 150.49Z" fill="#2B80FF"/>
<path d="M140.618 168.557L143.271 161.913H144.528L147.181 168.557H146.032L144.228 163.9C144.161 163.73 144.094 163.557 144.027 163.38C143.966 163.198 143.899 162.998 143.827 162.779H143.954C143.881 162.998 143.811 163.198 143.745 163.38C143.684 163.557 143.623 163.73 143.562 163.9L141.739 168.557H140.618ZM142.232 166.944L142.596 166.023H145.175L145.531 166.944H142.232ZM148.682 168.557L146.695 163.399H147.844L148.673 165.768C148.758 166.005 148.834 166.221 148.901 166.415C148.968 166.61 149.032 166.804 149.092 166.999C149.153 167.187 149.217 167.397 149.284 167.628C149.375 167.312 149.472 166.996 149.575 166.68C149.679 166.364 149.779 166.06 149.876 165.768L150.715 163.399H151.808L149.858 168.557H148.682ZM154.438 170.161C153.825 170.161 153.335 170.031 152.971 169.769C152.612 169.508 152.409 169.162 152.36 168.73L153.335 168.521C153.36 168.733 153.423 168.903 153.527 169.031C153.636 169.159 153.776 169.247 153.946 169.295C154.116 169.35 154.301 169.377 154.502 169.377C154.897 169.377 155.213 169.283 155.45 169.095C155.693 168.913 155.814 168.612 155.814 168.193V167.29C155.656 167.558 155.444 167.755 155.176 167.883C154.909 168.004 154.599 168.065 154.247 168.065C153.815 168.065 153.439 167.968 153.117 167.773C152.801 167.573 152.555 167.296 152.378 166.944C152.208 166.592 152.123 166.178 152.123 165.704C152.123 165.231 152.208 164.814 152.378 164.456C152.549 164.097 152.789 163.818 153.098 163.617C153.408 163.411 153.776 163.308 154.201 163.308C154.566 163.308 154.894 163.39 155.186 163.554C155.477 163.712 155.69 163.93 155.823 164.21L155.878 163.399H156.862V168.165C156.862 168.56 156.774 168.906 156.598 169.204C156.428 169.508 156.164 169.742 155.805 169.906C155.453 170.076 154.997 170.161 154.438 170.161ZM154.493 167.281C154.76 167.281 154.991 167.22 155.186 167.099C155.38 166.971 155.532 166.801 155.641 166.589C155.757 166.376 155.814 166.133 155.814 165.859V165.54C155.814 165.267 155.757 165.03 155.641 164.83C155.532 164.623 155.377 164.462 155.176 164.346C154.976 164.225 154.739 164.164 154.466 164.164C154.065 164.164 153.755 164.304 153.536 164.583C153.317 164.863 153.208 165.24 153.208 165.714C153.208 166.175 153.317 166.552 153.536 166.844C153.755 167.135 154.074 167.281 154.493 167.281ZM157.743 168.557V167.436H158.8V168.557H157.743ZM161.516 168.557L164.169 161.913H165.426L168.078 168.557H166.93L165.126 163.9C165.059 163.73 164.992 163.557 164.925 163.38C164.864 163.198 164.797 162.998 164.725 162.779H164.852C164.779 162.998 164.709 163.198 164.643 163.38C164.582 163.557 164.521 163.73 164.46 163.9L162.637 168.557H161.516ZM163.13 166.944L163.494 166.023H166.073L166.429 166.944H163.13ZM170.863 168.639C170.359 168.639 169.922 168.53 169.551 168.311C169.18 168.086 168.892 167.773 168.685 167.372C168.479 166.971 168.375 166.503 168.375 165.969C168.375 165.434 168.479 164.966 168.685 164.565C168.892 164.164 169.183 163.854 169.56 163.636C169.937 163.417 170.374 163.308 170.872 163.308C171.516 163.308 172.033 163.472 172.422 163.8C172.811 164.128 173.035 164.559 173.096 165.094L172.075 165.221C172.039 164.881 171.911 164.629 171.693 164.465C171.474 164.295 171.194 164.21 170.854 164.21C170.423 164.21 170.083 164.365 169.833 164.675C169.584 164.984 169.46 165.416 169.46 165.969C169.46 166.522 169.581 166.956 169.824 167.272C170.073 167.582 170.417 167.737 170.854 167.737C171.201 167.737 171.483 167.649 171.702 167.473C171.921 167.29 172.048 167.038 172.085 166.716L173.105 166.844C173.063 167.22 172.941 167.542 172.741 167.81C172.54 168.077 172.279 168.284 171.957 168.43C171.635 168.569 171.27 168.639 170.863 168.639ZM175.392 168.621C175.027 168.621 174.751 168.542 174.562 168.384C174.38 168.22 174.289 167.983 174.289 167.673V161.986L175.328 161.895V167.263C175.328 167.451 175.355 167.579 175.41 167.646C175.464 167.706 175.577 167.737 175.747 167.737C175.838 167.737 175.917 167.734 175.984 167.728C176.057 167.716 176.118 167.703 176.166 167.691V168.53C176.033 168.56 175.899 168.581 175.765 168.594C175.632 168.612 175.507 168.621 175.392 168.621ZM173.605 164.201V163.399L174.808 163.408V164.192L173.605 164.201ZM176.166 164.201L174.808 164.192V163.408L176.166 163.399V164.201ZM177.282 168.557V163.399H178.348V168.557H177.282ZM177.318 162.578V161.375H178.33V162.578H177.318ZM181.177 168.557L179.191 163.399H180.339L181.168 165.768C181.253 166.005 181.329 166.221 181.396 166.415C181.463 166.61 181.527 166.804 181.587 166.999C181.648 167.187 181.712 167.397 181.779 167.628C181.87 167.312 181.967 166.996 182.071 166.68C182.174 166.364 182.274 166.06 182.371 165.768L183.21 163.399H184.303L182.353 168.557H181.177ZM185.159 168.557V163.399H186.225V168.557H185.159ZM185.195 162.578V161.375H186.207V162.578H185.195ZM188.929 168.621C188.564 168.621 188.288 168.542 188.1 168.384C187.917 168.22 187.826 167.983 187.826 167.673V161.986L188.865 161.895V167.263C188.865 167.451 188.892 167.579 188.947 167.646C189.002 167.706 189.114 167.737 189.284 167.737C189.375 167.737 189.454 167.734 189.521 167.728C189.594 167.716 189.655 167.703 189.704 167.691V168.53C189.57 168.56 189.436 168.581 189.303 168.594C189.169 168.612 189.044 168.621 188.929 168.621ZM187.143 164.201V163.399L188.346 163.408V164.192L187.143 164.201ZM189.704 164.201L188.346 164.192V163.408L189.704 163.399V164.201ZM191.099 170.152C191.002 170.152 190.892 170.143 190.771 170.125C190.655 170.106 190.561 170.085 190.488 170.061V169.204H190.561C190.604 169.222 190.652 169.238 190.707 169.25C190.768 169.262 190.831 169.268 190.898 169.268C191.111 169.268 191.281 169.225 191.409 169.14C191.542 169.055 191.646 168.919 191.718 168.73L191.864 168.338L189.923 163.399H191.08L191.873 165.686C191.916 165.796 191.968 165.948 192.028 166.142C192.095 166.33 192.165 166.543 192.238 166.78C192.311 167.011 192.378 167.245 192.438 167.482H192.375C192.448 167.239 192.511 167.023 192.566 166.835C192.621 166.646 192.678 166.464 192.739 166.288C192.8 166.105 192.867 165.905 192.94 165.686L193.751 163.399H194.808L192.703 168.958C192.593 169.262 192.46 169.499 192.302 169.669C192.15 169.845 191.974 169.97 191.773 170.043C191.579 170.116 191.354 170.152 191.099 170.152Z" fill="#4B4B4B"/>
<path d="M38.5825 268.665C38.5825 267.658 39.3986 266.842 40.4053 266.842H44.0509C45.0576 266.842 45.8737 267.658 45.8737 268.665V272.31C45.8737 273.317 45.0576 274.133 44.0509 274.133H40.4053C39.3986 274.133 38.5825 273.317 38.5825 272.31V268.665Z" fill="#1DBF73"/>
<path d="M56.9992 268.62H55.7875C55.7408 268.361 55.6541 268.133 55.5272 267.937C55.4004 267.74 55.245 267.573 55.0612 267.436C54.8774 267.298 54.6715 267.195 54.4437 267.125C54.2184 267.055 53.9789 267.02 53.7252 267.02C53.2669 267.02 52.8565 267.135 52.494 267.366C52.1341 267.596 51.8493 267.934 51.6396 268.379C51.4324 268.825 51.3289 269.368 51.3289 270.011C51.3289 270.658 51.4324 271.204 51.6396 271.65C51.8493 272.095 52.1354 272.431 52.4979 272.659C52.8604 272.887 53.2682 273.001 53.7213 273.001C53.9724 273.001 54.2106 272.967 54.4359 272.9C54.6637 272.83 54.8696 272.728 55.0534 272.593C55.2373 272.459 55.3926 272.294 55.5195 272.1C55.6489 271.903 55.7383 271.678 55.7875 271.424L56.9992 271.428C56.9345 271.819 56.8089 272.179 56.6225 272.508C56.4386 272.834 56.2017 273.116 55.9117 273.354C55.6243 273.59 55.2955 273.773 54.9253 273.902C54.555 274.032 54.1511 274.096 53.7135 274.096C53.0248 274.096 52.4112 273.933 51.8726 273.607C51.3341 273.278 50.9094 272.808 50.5987 272.197C50.2906 271.586 50.1366 270.857 50.1366 270.011C50.1366 269.161 50.2919 268.432 50.6026 267.824C50.9133 267.213 51.3379 266.744 51.8765 266.418C52.415 266.089 53.0274 265.925 53.7135 265.925C54.1356 265.925 54.5291 265.986 54.8942 266.107C55.2619 266.226 55.592 266.403 55.8845 266.636C56.1771 266.866 56.4192 267.148 56.6108 267.482C56.8024 267.814 56.9319 268.193 56.9992 268.62ZM60.8548 274.108C60.2955 274.108 59.8075 273.98 59.3906 273.723C58.9738 273.467 58.6501 273.109 58.4197 272.648C58.1892 272.187 58.074 271.648 58.074 271.032C58.074 270.413 58.1892 269.872 58.4197 269.409C58.6501 268.945 58.9738 268.585 59.3906 268.329C59.8075 268.073 60.2955 267.944 60.8548 267.944C61.4141 267.944 61.9021 268.073 62.319 268.329C62.7359 268.585 63.0595 268.945 63.2899 269.409C63.5204 269.872 63.6356 270.413 63.6356 271.032C63.6356 271.648 63.5204 272.187 63.2899 272.648C63.0595 273.109 62.7359 273.467 62.319 273.723C61.9021 273.98 61.4141 274.108 60.8548 274.108ZM60.8587 273.133C61.2212 273.133 61.5215 273.037 61.7597 272.846C61.9979 272.654 62.174 272.399 62.2879 272.081C62.4044 271.762 62.4627 271.411 62.4627 271.028C62.4627 270.648 62.4044 270.298 62.2879 269.979C62.174 269.658 61.9979 269.401 61.7597 269.207C61.5215 269.012 61.2212 268.915 60.8587 268.915C60.4936 268.915 60.1907 269.012 59.9499 269.207C59.7117 269.401 59.5343 269.658 59.4178 269.979C59.3039 270.298 59.2469 270.648 59.2469 271.028C59.2469 271.411 59.3039 271.762 59.4178 272.081C59.5343 272.399 59.7117 272.654 59.9499 272.846C60.1907 273.037 60.4936 273.133 60.8587 273.133ZM64.9318 273.988V268.022H66.0542V268.97H66.1164C66.2251 268.649 66.4167 268.396 66.6912 268.212C66.9682 268.026 67.2815 267.933 67.631 267.933C67.7035 267.933 67.789 267.935 67.8874 267.941C67.9883 267.946 68.0673 267.952 68.1243 267.96V269.071C68.0777 269.058 67.9948 269.044 67.8757 269.028C67.7566 269.01 67.6375 269.001 67.5184 269.001C67.2439 269.001 66.9993 269.059 66.7844 269.176C66.572 269.289 66.4038 269.449 66.2795 269.653C66.1552 269.855 66.0931 270.086 66.0931 270.345V273.988H64.9318ZM69.1292 273.988V268.022H70.2516V268.97H70.3137C70.4225 268.649 70.6141 268.396 70.8885 268.212C71.1656 268.026 71.4789 267.933 71.8284 267.933C71.9009 267.933 71.9864 267.935 72.0847 267.941C72.1857 267.946 72.2647 267.952 72.3217 267.96V269.071C72.275 269.058 72.1922 269.044 72.0731 269.028C71.954 269.01 71.8349 269.001 71.7158 269.001C71.4413 269.001 71.1967 269.059 70.9818 269.176C70.7694 269.289 70.6011 269.449 70.4769 269.653C70.3526 269.855 70.2904 270.086 70.2904 270.345V273.988H69.1292ZM75.684 274.108C75.0963 274.108 74.5901 273.982 74.1655 273.731C73.7434 273.477 73.4172 273.121 73.1868 272.663C72.9589 272.202 72.845 271.662 72.845 271.044C72.845 270.433 72.9589 269.894 73.1868 269.428C73.4172 268.962 73.7383 268.598 74.1499 268.337C74.5642 268.075 75.0484 267.944 75.6025 267.944C75.9391 267.944 76.2653 268 76.5812 268.111C76.8971 268.223 77.1806 268.398 77.4317 268.636C77.6829 268.874 77.881 269.183 78.0259 269.564C78.1709 269.942 78.2434 270.402 78.2434 270.943V271.354H73.5014V270.484H77.1055C77.1055 270.179 77.0434 269.908 76.9191 269.673C76.7948 269.434 76.62 269.247 76.3948 269.11C76.1721 268.972 75.9106 268.904 75.6102 268.904C75.284 268.904 74.9992 268.984 74.7558 269.144C74.515 269.302 74.3286 269.51 74.1965 269.766C74.0671 270.02 74.0024 270.295 74.0024 270.593V271.273C74.0024 271.672 74.0723 272.011 74.2121 272.29C74.3545 272.57 74.5526 272.784 74.8063 272.931C75.06 273.076 75.3565 273.149 75.6957 273.149C75.9158 273.149 76.1164 273.118 76.2977 273.055C76.4789 272.991 76.6356 272.895 76.7676 272.768C76.8997 272.641 77.0006 272.485 77.0705 272.298L78.1696 272.496C78.0816 272.82 77.9237 273.103 77.6958 273.347C77.4706 273.588 77.1871 273.775 76.8453 273.91C76.5061 274.042 76.119 274.108 75.684 274.108ZM82.0447 274.108C81.4673 274.108 80.9702 273.977 80.5533 273.716C80.139 273.452 79.8206 273.088 79.5979 272.624C79.3752 272.161 79.2639 271.63 79.2639 271.032C79.2639 270.426 79.3778 269.891 79.6057 269.428C79.8335 268.962 80.1546 268.598 80.5688 268.337C80.9831 268.075 81.4712 267.944 82.033 267.944C82.4861 267.944 82.8901 268.029 83.2448 268.197C83.5995 268.363 83.8856 268.596 84.1031 268.896C84.3232 269.196 84.4539 269.547 84.4953 269.948H83.3652C83.303 269.669 83.1606 269.428 82.938 269.226C82.7179 269.024 82.4227 268.923 82.0524 268.923C81.7288 268.923 81.4453 269.009 81.2019 269.179C80.9611 269.348 80.7734 269.589 80.6388 269.902C80.5041 270.213 80.4368 270.58 80.4368 271.005C80.4368 271.44 80.5028 271.815 80.6349 272.131C80.7669 272.447 80.9533 272.692 81.1941 272.865C81.4375 273.039 81.7236 273.125 82.0524 273.125C82.2725 273.125 82.4719 273.085 82.6506 273.005C82.8318 272.922 82.9833 272.804 83.105 272.652C83.2292 272.499 83.316 272.315 83.3652 272.1H84.4953C84.4539 272.486 84.3283 272.83 84.1186 273.133C83.9089 273.436 83.628 273.674 83.2758 273.848C82.9263 274.021 82.5159 274.108 82.0447 274.108ZM88.5218 268.022V268.954H85.2634V268.022H88.5218ZM86.1372 266.593H87.2985V272.236C87.2985 272.461 87.3321 272.631 87.3994 272.745C87.4668 272.856 87.5535 272.932 87.6596 272.974C87.7684 273.013 87.8862 273.032 88.0131 273.032C88.1063 273.032 88.1878 273.026 88.2578 273.013C88.3277 273 88.382 272.989 88.4209 272.982L88.6306 273.941C88.5633 273.967 88.4675 273.993 88.3432 274.019C88.2189 274.047 88.0636 274.063 87.8771 274.065C87.5716 274.07 87.2868 274.016 87.0227 273.902C86.7586 273.788 86.545 273.612 86.3819 273.374C86.2188 273.136 86.1372 272.837 86.1372 272.477V266.593ZM90.5715 274.061C90.3592 274.061 90.1767 273.986 90.0239 273.836C89.8711 273.683 89.7948 273.499 89.7948 273.285C89.7948 273.072 89.8711 272.891 90.0239 272.741C90.1767 272.588 90.3592 272.512 90.5715 272.512C90.7838 272.512 90.9664 272.588 91.1191 272.741C91.2719 272.891 91.3483 273.072 91.3483 273.285C91.3483 273.427 91.312 273.558 91.2395 273.677C91.1696 273.793 91.0764 273.887 90.9599 273.956C90.8434 274.026 90.7139 274.061 90.5715 274.061ZM90.5715 269.719C90.3592 269.719 90.1767 269.643 90.0239 269.49C89.8711 269.337 89.7948 269.155 89.7948 268.943C89.7948 268.73 89.8711 268.549 90.0239 268.399C90.1767 268.246 90.3592 268.17 90.5715 268.17C90.7838 268.17 90.9664 268.246 91.1191 268.399C91.2719 268.549 91.3483 268.73 91.3483 268.943C91.3483 269.085 91.312 269.216 91.2395 269.335C91.1696 269.451 91.0764 269.545 90.9599 269.614C90.8434 269.684 90.7139 269.719 90.5715 269.719ZM95.6156 272.434V271.463L99.0527 266.034H99.8178V267.463H99.3323L96.8739 271.354V271.416H101.585V272.434H95.6156ZM99.3867 273.988V272.139L99.3945 271.696V266.034H100.532V273.988H99.3867ZM105.849 266.034V273.988H104.645V267.238H104.599L102.696 268.48V267.331L104.68 266.034H105.849ZM108.001 273.988V273.118L110.692 270.329C110.98 270.026 111.217 269.761 111.403 269.533C111.592 269.302 111.733 269.084 111.826 268.877C111.92 268.669 111.966 268.449 111.966 268.216C111.966 267.952 111.904 267.724 111.78 267.533C111.656 267.339 111.486 267.19 111.271 267.086C111.056 266.98 110.814 266.927 110.545 266.927C110.26 266.927 110.011 266.985 109.799 267.102C109.587 267.218 109.424 267.383 109.31 267.595C109.196 267.807 109.139 268.056 109.139 268.341H107.993C107.993 267.856 108.104 267.433 108.327 267.071C108.55 266.708 108.855 266.427 109.244 266.228C109.632 266.026 110.074 265.925 110.568 265.925C111.068 265.925 111.508 266.025 111.889 266.224C112.272 266.421 112.571 266.69 112.786 267.032C113.001 267.371 113.108 267.754 113.108 268.181C113.108 268.476 113.052 268.765 112.941 269.047C112.832 269.33 112.642 269.644 112.37 269.991C112.098 270.336 111.72 270.754 111.236 271.246L109.655 272.9V272.958H113.236V273.988H108.001Z" fill="#2B2B2B"/>
<path d="M131.032 268.665C131.032 267.658 131.848 266.842 132.855 266.842H136.5C137.507 266.842 138.323 267.658 138.323 268.665V272.31C138.323 273.317 137.507 274.133 136.5 274.133H132.855C131.848 274.133 131.032 273.317 131.032 272.31V268.665Z" fill="#FFDE98"/>
<path d="M144.043 266.034V273.988H142.843V266.034H144.043ZM146.858 270.446V273.988H145.697V268.022H146.812V268.993H146.886C147.023 268.677 147.238 268.423 147.53 268.232C147.825 268.04 148.197 267.944 148.645 267.944C149.051 267.944 149.407 268.03 149.713 268.201C150.019 268.369 150.255 268.62 150.424 268.954C150.592 269.288 150.676 269.701 150.676 270.193V273.988H149.515V270.333C149.515 269.901 149.402 269.563 149.177 269.319C148.952 269.073 148.642 268.95 148.249 268.95C147.98 268.95 147.74 269.009 147.53 269.125C147.323 269.242 147.159 269.412 147.037 269.638C146.918 269.86 146.858 270.13 146.858 270.446ZM154.746 274.108C154.169 274.108 153.672 273.977 153.255 273.716C152.841 273.452 152.522 273.088 152.3 272.624C152.077 272.161 151.966 271.63 151.966 271.032C151.966 270.426 152.08 269.891 152.307 269.428C152.535 268.962 152.856 268.598 153.271 268.337C153.685 268.075 154.173 267.944 154.735 267.944C155.188 267.944 155.592 268.029 155.946 268.197C156.301 268.363 156.587 268.596 156.805 268.896C157.025 269.196 157.156 269.547 157.197 269.948H156.067C156.005 269.669 155.862 269.428 155.64 269.226C155.42 269.024 155.124 268.923 154.754 268.923C154.43 268.923 154.147 269.009 153.904 269.179C153.663 269.348 153.475 269.589 153.34 269.902C153.206 270.213 153.138 270.58 153.138 271.005C153.138 271.44 153.205 271.815 153.337 272.131C153.469 272.447 153.655 272.692 153.896 272.865C154.139 273.039 154.425 273.125 154.754 273.125C154.974 273.125 155.174 273.085 155.352 273.005C155.533 272.922 155.685 272.804 155.807 272.652C155.931 272.499 156.018 272.315 156.067 272.1H157.197C157.156 272.486 157.03 272.83 156.82 273.133C156.611 273.436 156.33 273.674 155.978 273.848C155.628 274.021 155.218 274.108 154.746 274.108ZM160.952 274.108C160.392 274.108 159.904 273.98 159.487 273.723C159.071 273.467 158.747 273.109 158.517 272.648C158.286 272.187 158.171 271.648 158.171 271.032C158.171 270.413 158.286 269.872 158.517 269.409C158.747 268.945 159.071 268.585 159.487 268.329C159.904 268.073 160.392 267.944 160.952 267.944C161.511 267.944 161.999 268.073 162.416 268.329C162.833 268.585 163.156 268.945 163.387 269.409C163.617 269.872 163.732 270.413 163.732 271.032C163.732 271.648 163.617 272.187 163.387 272.648C163.156 273.109 162.833 273.467 162.416 273.723C161.999 273.98 161.511 274.108 160.952 274.108ZM160.956 273.133C161.318 273.133 161.618 273.037 161.857 272.846C162.095 272.654 162.271 272.399 162.385 272.081C162.501 271.762 162.56 271.411 162.56 271.028C162.56 270.648 162.501 270.298 162.385 269.979C162.271 269.658 162.095 269.401 161.857 269.207C161.618 269.012 161.318 268.915 160.956 268.915C160.59 268.915 160.288 269.012 160.047 269.207C159.809 269.401 159.631 269.658 159.515 269.979C159.401 270.298 159.344 270.648 159.344 271.028C159.344 271.411 159.401 271.762 159.515 272.081C159.631 272.399 159.809 272.654 160.047 272.846C160.288 273.037 160.59 273.133 160.956 273.133ZM165.029 273.988V268.022H166.151V268.97H166.213C166.322 268.649 166.514 268.396 166.788 268.212C167.065 268.026 167.378 267.933 167.728 267.933C167.8 267.933 167.886 267.935 167.984 267.941C168.085 267.946 168.164 267.952 168.221 267.96V269.071C168.175 269.058 168.092 269.044 167.973 269.028C167.853 269.01 167.734 269.001 167.615 269.001C167.341 269.001 167.096 269.059 166.881 269.176C166.669 269.289 166.501 269.449 166.376 269.653C166.252 269.855 166.19 270.086 166.19 270.345V273.988H165.029ZM169.226 273.988V268.022H170.348V268.97H170.411C170.519 268.649 170.711 268.396 170.985 268.212C171.262 268.026 171.576 267.933 171.925 267.933C171.998 267.933 172.083 267.935 172.182 267.941C172.283 267.946 172.362 267.952 172.419 267.96V269.071C172.372 269.058 172.289 269.044 172.17 269.028C172.051 269.01 171.932 269.001 171.813 269.001C171.538 269.001 171.294 269.059 171.079 269.176C170.866 269.289 170.698 269.449 170.574 269.653C170.449 269.855 170.387 270.086 170.387 270.345V273.988H169.226ZM175.781 274.108C175.193 274.108 174.687 273.982 174.262 273.731C173.84 273.477 173.514 273.121 173.284 272.663C173.056 272.202 172.942 271.662 172.942 271.044C172.942 270.433 173.056 269.894 173.284 269.428C173.514 268.962 173.835 268.598 174.247 268.337C174.661 268.075 175.145 267.944 175.699 267.944C176.036 267.944 176.362 268 176.678 268.111C176.994 268.223 177.277 268.398 177.529 268.636C177.78 268.874 177.978 269.183 178.123 269.564C178.268 269.942 178.34 270.402 178.34 270.943V271.354H173.598V270.484H177.202C177.202 270.179 177.14 269.908 177.016 269.673C176.892 269.434 176.717 269.247 176.492 269.11C176.269 268.972 176.007 268.904 175.707 268.904C175.381 268.904 175.096 268.984 174.853 269.144C174.612 269.302 174.425 269.51 174.293 269.766C174.164 270.02 174.099 270.295 174.099 270.593V271.273C174.099 271.672 174.169 272.011 174.309 272.29C174.451 272.57 174.649 272.784 174.903 272.931C175.157 273.076 175.453 273.149 175.793 273.149C176.013 273.149 176.213 273.118 176.395 273.055C176.576 272.991 176.732 272.895 176.864 272.768C176.997 272.641 177.097 272.485 177.167 272.298L178.267 272.496C178.178 272.82 178.021 273.103 177.793 273.347C177.567 273.588 177.284 273.775 176.942 273.91C176.603 274.042 176.216 274.108 175.781 274.108ZM182.142 274.108C181.564 274.108 181.067 273.977 180.65 273.716C180.236 273.452 179.917 273.088 179.695 272.624C179.472 272.161 179.361 271.63 179.361 271.032C179.361 270.426 179.475 269.891 179.703 269.428C179.93 268.962 180.251 268.598 180.666 268.337C181.08 268.075 181.568 267.944 182.13 267.944C182.583 267.944 182.987 268.029 183.342 268.197C183.696 268.363 183.982 268.596 184.2 268.896C184.42 269.196 184.551 269.547 184.592 269.948H183.462C183.4 269.669 183.257 269.428 183.035 269.226C182.815 269.024 182.52 268.923 182.149 268.923C181.826 268.923 181.542 269.009 181.299 269.179C181.058 269.348 180.87 269.589 180.736 269.902C180.601 270.213 180.534 270.58 180.534 271.005C180.534 271.44 180.6 271.815 180.732 272.131C180.864 272.447 181.05 272.692 181.291 272.865C181.534 273.039 181.82 273.125 182.149 273.125C182.369 273.125 182.569 273.085 182.747 273.005C182.929 272.922 183.08 272.804 183.202 272.652C183.326 272.499 183.413 272.315 183.462 272.1H184.592C184.551 272.486 184.425 272.83 184.215 273.133C184.006 273.436 183.725 273.674 183.373 273.848C183.023 274.021 182.613 274.108 182.142 274.108ZM188.619 268.022V268.954H185.36V268.022H188.619ZM186.234 266.593H187.395V272.236C187.395 272.461 187.429 272.631 187.496 272.745C187.564 272.856 187.65 272.932 187.757 272.974C187.865 273.013 187.983 273.032 188.11 273.032C188.203 273.032 188.285 273.026 188.355 273.013C188.425 273 188.479 272.989 188.518 272.982L188.727 273.941C188.66 273.967 188.564 273.993 188.44 274.019C188.316 274.047 188.16 274.063 187.974 274.065C187.668 274.07 187.384 274.016 187.12 273.902C186.855 273.788 186.642 273.612 186.479 273.374C186.316 273.136 186.234 272.837 186.234 272.477V266.593ZM190.668 274.061C190.456 274.061 190.274 273.986 190.121 273.836C189.968 273.683 189.892 273.499 189.892 273.285C189.892 273.072 189.968 272.891 190.121 272.741C190.274 272.588 190.456 272.512 190.668 272.512C190.881 272.512 191.063 272.588 191.216 272.741C191.369 272.891 191.445 273.072 191.445 273.285C191.445 273.427 191.409 273.558 191.336 273.677C191.266 273.793 191.173 273.887 191.057 273.956C190.94 274.026 190.811 274.061 190.668 274.061ZM190.668 269.719C190.456 269.719 190.274 269.643 190.121 269.49C189.968 269.337 189.892 269.155 189.892 268.943C189.892 268.73 189.968 268.549 190.121 268.399C190.274 268.246 190.456 268.17 190.668 268.17C190.881 268.17 191.063 268.246 191.216 268.399C191.369 268.549 191.445 268.73 191.445 268.943C191.445 269.085 191.409 269.216 191.336 269.335C191.266 269.451 191.173 269.545 191.057 269.614C190.94 269.684 190.811 269.719 190.668 269.719ZM196.147 273.988L199.619 267.121V267.063H195.604V266.034H200.862V267.098L197.402 273.988H196.147ZM204.74 274.096C204.184 274.096 203.692 274 203.264 273.809C202.84 273.617 202.507 273.353 202.266 273.017C202.025 272.68 201.906 272.297 201.909 271.867C201.906 271.53 201.975 271.221 202.115 270.939C202.257 270.654 202.45 270.417 202.694 270.228C202.937 270.036 203.209 269.915 203.509 269.863V269.816C203.113 269.721 202.796 269.508 202.558 269.179C202.319 268.851 202.202 268.473 202.204 268.045C202.202 267.639 202.309 267.276 202.527 266.958C202.747 266.637 203.048 266.384 203.431 266.201C203.815 266.017 204.251 265.925 204.74 265.925C205.224 265.925 205.657 266.018 206.037 266.204C206.421 266.388 206.722 266.641 206.942 266.962C207.162 267.28 207.274 267.641 207.276 268.045C207.274 268.473 207.152 268.851 206.911 269.179C206.67 269.508 206.357 269.721 205.971 269.816V269.863C206.269 269.915 206.537 270.036 206.775 270.228C207.016 270.417 207.208 270.654 207.35 270.939C207.495 271.221 207.569 271.53 207.572 271.867C207.569 272.297 207.447 272.68 207.206 273.017C206.966 273.353 206.632 273.617 206.204 273.809C205.78 274 205.292 274.096 204.74 274.096ZM204.74 273.114C205.069 273.114 205.354 273.059 205.595 272.951C205.835 272.839 206.022 272.685 206.154 272.488C206.286 272.289 206.353 272.056 206.356 271.789C206.353 271.512 206.281 271.268 206.138 271.055C205.999 270.843 205.808 270.676 205.567 270.554C205.327 270.433 205.051 270.372 204.74 270.372C204.427 270.372 204.149 270.433 203.905 270.554C203.662 270.676 203.47 270.843 203.33 271.055C203.191 271.268 203.122 271.512 203.125 271.789C203.122 272.056 203.185 272.289 203.315 272.488C203.447 272.685 203.635 272.839 203.878 272.951C204.121 273.059 204.409 273.114 204.74 273.114ZM204.74 269.412C205.004 269.412 205.239 269.359 205.443 269.253C205.648 269.147 205.808 268.999 205.925 268.81C206.044 268.621 206.105 268.4 206.107 268.146C206.105 267.898 206.045 267.68 205.929 267.494C205.815 267.307 205.656 267.164 205.451 267.063C205.246 266.959 205.01 266.907 204.74 266.907C204.466 266.907 204.225 266.959 204.018 267.063C203.813 267.164 203.654 267.307 203.54 267.494C203.426 267.68 203.371 267.898 203.373 268.146C203.371 268.4 203.428 268.621 203.544 268.81C203.661 268.999 203.821 269.147 204.026 269.253C204.233 269.359 204.471 269.412 204.74 269.412Z" fill="#2B2B2B"/>
<path d="M225.481 268.665C225.481 267.658 226.297 266.842 227.304 266.842H230.949C231.956 266.842 232.772 267.658 232.772 268.665V272.31C232.772 273.317 231.956 274.133 230.949 274.133H227.304C226.297 274.133 225.481 273.317 225.481 272.31V268.665Z" fill="#FF9F0A"/>
<path d="M241.63 268.123C241.588 267.755 241.417 267.471 241.117 267.269C240.817 267.064 240.438 266.962 239.983 266.962C239.657 266.962 239.374 267.014 239.136 267.117C238.898 267.218 238.713 267.358 238.581 267.537C238.451 267.713 238.387 267.913 238.387 268.139C238.387 268.328 238.431 268.491 238.519 268.628C238.609 268.765 238.727 268.88 238.872 268.974C239.02 269.064 239.178 269.141 239.346 269.203C239.514 269.262 239.676 269.311 239.831 269.35L240.608 269.552C240.862 269.614 241.122 269.699 241.389 269.805C241.655 269.911 241.903 270.051 242.131 270.224C242.358 270.398 242.542 270.613 242.682 270.869C242.824 271.125 242.896 271.432 242.896 271.789C242.896 272.24 242.779 272.64 242.546 272.989C242.316 273.339 241.98 273.615 241.54 273.817C241.103 274.019 240.573 274.12 239.952 274.12C239.356 274.12 238.841 274.025 238.406 273.836C237.971 273.647 237.631 273.379 237.385 273.032C237.139 272.683 237.003 272.268 236.977 271.789H238.181C238.204 272.077 238.297 272.316 238.46 272.508C238.626 272.697 238.837 272.838 239.093 272.931C239.352 273.022 239.636 273.067 239.944 273.067C240.283 273.067 240.585 273.014 240.849 272.908C241.116 272.799 241.325 272.649 241.478 272.457C241.631 272.263 241.707 272.037 241.707 271.778C241.707 271.542 241.64 271.349 241.505 271.199C241.373 271.049 241.193 270.925 240.965 270.826C240.74 270.728 240.485 270.641 240.2 270.566L239.26 270.31C238.623 270.136 238.119 269.881 237.746 269.545C237.375 269.208 237.19 268.763 237.19 268.208C237.19 267.75 237.315 267.35 237.563 267.008C237.812 266.667 238.148 266.401 238.573 266.212C238.998 266.021 239.477 265.925 240.01 265.925C240.549 265.925 241.024 266.019 241.435 266.208C241.85 266.397 242.176 266.658 242.414 266.989C242.652 267.318 242.777 267.696 242.787 268.123H241.63ZM245.305 271.964L245.297 270.547H245.499L247.876 268.022H249.266L246.555 270.896H246.373L245.305 271.964ZM244.236 273.988V266.034H245.398V273.988H244.236ZM248.004 273.988L245.868 271.152L246.668 270.341L249.429 273.988H248.004ZM250.324 273.988V268.022H251.486V273.988H250.324ZM250.911 267.102C250.709 267.102 250.535 267.034 250.39 266.9C250.248 266.762 250.177 266.599 250.177 266.41C250.177 266.219 250.248 266.056 250.39 265.921C250.535 265.784 250.709 265.715 250.911 265.715C251.113 265.715 251.285 265.784 251.427 265.921C251.572 266.056 251.645 266.219 251.645 266.41C251.645 266.599 251.572 266.762 251.427 266.9C251.285 267.034 251.113 267.102 250.911 267.102ZM253.048 276.225V268.022H254.182V268.989H254.279C254.346 268.865 254.443 268.721 254.57 268.558C254.697 268.395 254.873 268.253 255.098 268.131C255.324 268.007 255.621 267.944 255.992 267.944C256.473 267.944 256.903 268.066 257.281 268.309C257.659 268.553 257.956 268.904 258.171 269.362C258.388 269.82 258.497 270.372 258.497 271.016C258.497 271.661 258.389 272.214 258.174 272.675C257.959 273.133 257.664 273.487 257.289 273.735C256.913 273.981 256.485 274.104 256.003 274.104C255.641 274.104 255.344 274.043 255.114 273.922C254.886 273.8 254.707 273.657 254.578 273.494C254.449 273.331 254.349 273.186 254.279 273.059H254.209V276.225H253.048ZM254.186 271.005C254.186 271.424 254.247 271.792 254.368 272.108C254.49 272.424 254.666 272.671 254.896 272.85C255.127 273.026 255.409 273.114 255.743 273.114C256.09 273.114 256.38 273.022 256.613 272.838C256.846 272.652 257.022 272.399 257.141 272.081C257.263 271.762 257.324 271.404 257.324 271.005C257.324 270.611 257.264 270.258 257.145 269.945C257.029 269.631 256.853 269.384 256.617 269.203C256.384 269.021 256.093 268.931 255.743 268.931C255.407 268.931 255.122 269.018 254.889 269.191C254.658 269.365 254.484 269.607 254.364 269.917C254.245 270.228 254.186 270.591 254.186 271.005ZM259.798 276.225V268.022H260.932V268.989H261.029C261.096 268.865 261.193 268.721 261.32 268.558C261.447 268.395 261.623 268.253 261.848 268.131C262.074 268.007 262.371 267.944 262.742 267.944C263.223 267.944 263.653 268.066 264.031 268.309C264.409 268.553 264.706 268.904 264.92 269.362C265.138 269.82 265.247 270.372 265.247 271.016C265.247 271.661 265.139 272.214 264.924 272.675C264.709 273.133 264.414 273.487 264.039 273.735C263.663 273.981 263.235 274.104 262.753 274.104C262.391 274.104 262.094 274.043 261.864 273.922C261.636 273.8 261.457 273.657 261.328 273.494C261.199 273.331 261.099 273.186 261.029 273.059H260.959V276.225H259.798ZM260.936 271.005C260.936 271.424 260.997 271.792 261.118 272.108C261.24 272.424 261.416 272.671 261.646 272.85C261.877 273.026 262.159 273.114 262.493 273.114C262.84 273.114 263.13 273.022 263.363 272.838C263.596 272.652 263.772 272.399 263.891 272.081C264.013 271.762 264.074 271.404 264.074 271.005C264.074 270.611 264.014 270.258 263.895 269.945C263.779 269.631 263.603 269.384 263.367 269.203C263.134 269.021 262.843 268.931 262.493 268.931C262.157 268.931 261.872 269.018 261.639 269.191C261.408 269.365 261.234 269.607 261.114 269.917C260.995 270.228 260.936 270.591 260.936 271.005ZM269.119 274.108C268.531 274.108 268.025 273.982 267.6 273.731C267.178 273.477 266.852 273.121 266.622 272.663C266.394 272.202 266.28 271.662 266.28 271.044C266.28 270.433 266.394 269.894 266.622 269.428C266.852 268.962 267.173 268.598 267.585 268.337C267.999 268.075 268.483 267.944 269.037 267.944C269.374 267.944 269.7 268 270.016 268.111C270.332 268.223 270.615 268.398 270.867 268.636C271.118 268.874 271.316 269.183 271.461 269.564C271.606 269.942 271.678 270.402 271.678 270.943V271.354H266.936V270.484H270.54C270.54 270.179 270.478 269.908 270.354 269.673C270.23 269.434 270.055 269.247 269.83 269.11C269.607 268.972 269.345 268.904 269.045 268.904C268.719 268.904 268.434 268.984 268.191 269.144C267.95 269.302 267.763 269.51 267.631 269.766C267.502 270.02 267.437 270.295 267.437 270.593V271.273C267.437 271.672 267.507 272.011 267.647 272.29C267.789 272.57 267.987 272.784 268.241 272.931C268.495 273.076 268.791 273.149 269.131 273.149C269.351 273.149 269.551 273.118 269.732 273.055C269.914 272.991 270.07 272.895 270.202 272.768C270.334 272.641 270.435 272.485 270.505 272.298L271.604 272.496C271.516 272.82 271.359 273.103 271.131 273.347C270.905 273.588 270.622 273.775 270.28 273.91C269.941 274.042 269.554 274.108 269.119 274.108ZM275.2 274.104C274.718 274.104 274.288 273.981 273.91 273.735C273.535 273.487 273.24 273.133 273.025 272.675C272.813 272.214 272.706 271.661 272.706 271.016C272.706 270.372 272.814 269.82 273.029 269.362C273.246 268.904 273.544 268.553 273.922 268.309C274.3 268.066 274.729 267.944 275.208 267.944C275.578 267.944 275.876 268.007 276.101 268.131C276.329 268.253 276.505 268.395 276.629 268.558C276.756 268.721 276.854 268.865 276.924 268.989H276.994V266.034H278.155V273.988H277.021V273.059H276.924C276.854 273.186 276.753 273.331 276.621 273.494C276.492 273.657 276.313 273.8 276.085 273.922C275.858 274.043 275.562 274.104 275.2 274.104ZM275.456 273.114C275.79 273.114 276.072 273.026 276.303 272.85C276.536 272.671 276.712 272.424 276.831 272.108C276.953 271.792 277.014 271.424 277.014 271.005C277.014 270.591 276.954 270.228 276.835 269.917C276.716 269.607 276.541 269.365 276.311 269.191C276.08 269.018 275.795 268.931 275.456 268.931C275.107 268.931 274.815 269.021 274.582 269.203C274.349 269.384 274.173 269.631 274.054 269.945C273.938 270.258 273.879 270.611 273.879 271.005C273.879 271.404 273.939 271.762 274.058 272.081C274.177 272.399 274.353 272.652 274.586 272.838C274.822 273.022 275.112 273.114 275.456 273.114ZM280.578 274.061C280.366 274.061 280.183 273.986 280.03 273.836C279.878 273.683 279.801 273.499 279.801 273.285C279.801 273.072 279.878 272.891 280.03 272.741C280.183 272.588 280.366 272.512 280.578 272.512C280.79 272.512 280.973 272.588 281.126 272.741C281.278 272.891 281.355 273.072 281.355 273.285C281.355 273.427 281.318 273.558 281.246 273.677C281.176 273.793 281.083 273.887 280.966 273.956C280.85 274.026 280.72 274.061 280.578 274.061ZM280.578 269.719C280.366 269.719 280.183 269.643 280.03 269.49C279.878 269.337 279.801 269.155 279.801 268.943C279.801 268.73 279.878 268.549 280.03 268.399C280.183 268.246 280.366 268.17 280.578 268.17C280.79 268.17 280.973 268.246 281.126 268.399C281.278 268.549 281.355 268.73 281.355 268.943C281.355 269.085 281.318 269.216 281.246 269.335C281.176 269.451 281.083 269.545 280.966 269.614C280.85 269.684 280.72 269.719 280.578 269.719ZM288.807 266.034V273.988H287.603V267.238H287.556L285.653 268.48V267.331L287.638 266.034H288.807ZM290.958 273.988V273.118L293.65 270.329C293.937 270.026 294.174 269.761 294.36 269.533C294.549 269.302 294.691 269.084 294.784 268.877C294.877 268.669 294.924 268.449 294.924 268.216C294.924 267.952 294.861 267.724 294.737 267.533C294.613 267.339 294.443 267.19 294.228 267.086C294.014 266.98 293.771 266.927 293.502 266.927C293.217 266.927 292.969 266.985 292.756 267.102C292.544 267.218 292.381 267.383 292.267 267.595C292.153 267.807 292.096 268.056 292.096 268.341H290.951C290.951 267.856 291.062 267.433 291.285 267.071C291.507 266.708 291.813 266.427 292.201 266.228C292.589 266.026 293.031 265.925 293.525 265.925C294.025 265.925 294.465 266.025 294.846 266.224C295.229 266.421 295.528 266.69 295.743 267.032C295.958 267.371 296.065 267.754 296.065 268.181C296.065 268.476 296.01 268.765 295.898 269.047C295.79 269.33 295.599 269.644 295.328 269.991C295.056 270.336 294.678 270.754 294.193 271.246L292.613 272.9V272.958H296.194V273.988H290.958Z" fill="#2B2B2B"/>
</g>
<defs>
<filter id="filter0_d_29241_1593" x="-43.4429" y="-5.72205e-06" width="422.886" height="382.886" filterUnits="userSpaceOnUse" color-interpolation-filters="sRGB">
<feFlood flood-opacity="0" result="BackgroundImageFix"/>
<feColorMatrix in="SourceAlpha" type="matrix" values="0 0 0 0 0 0 0 0 0 0 0 0 0 0 0 0 0 0 127 0" result="hardAlpha"/>
<feOffset dy="29.1646"/>
<feGaussianBlur stdDeviation="29.1646"/>
<feComposite in2="hardAlpha" operator="out"/>
<feColorMatrix type="matrix" values="0 0 0 0 0 0 0 0 0 0 0 0 0 0 0 0 0 0 0.1 0"/>
<feBlend mode="normal" in2="BackgroundImageFix" result="effect1_dropShadow_29241_1593"/>
<feBlend mode="normal" in="SourceGraphic" in2="effect1_dropShadow_29241_1593" result="shape"/>
</filter>
</defs>
</svg>
