<svg width="154" height="40" viewBox="0 0 154 40" fill="none" xmlns="http://www.w3.org/2000/svg">
<g clip-path="url(#clip0_29928_366)">
<path fill-rule="evenodd" clip-rule="evenodd" d="M6.71376 33.2528C-3.06299 24.594 -1.76648 10.5374 8.03673 3.57199C14.9228 -1.31638 25.4073 -1.91834 32.0817 6.41638C36.8113 12.3234 37.1355 20.8169 34.1389 25.9434C32.2603 29.145 27.9474 31.5131 25.3081 28.3512C22.9069 25.4804 25.5859 22.9337 26.5252 19.5799C29.879 7.56074 13.2426 -0.952567 4.47794 10.6102C0.00629927 16.5106 0.257663 25.6061 6.71376 33.2528Z" fill="white"/>
<path fill-rule="evenodd" clip-rule="evenodd" d="M37.3807 7.03174C46.959 15.9155 45.3383 29.939 35.3764 36.6729C28.3779 41.4025 17.8867 41.7597 11.4042 33.2795C6.80684 27.2599 6.68116 18.7599 9.79676 13.7061C11.7481 10.5508 16.1139 8.27533 18.6871 11.5034C21.0222 14.4271 18.277 16.9143 17.2649 20.2416C13.64 32.188 30.0713 41.085 39.1005 29.7207C43.7045 23.9261 43.6648 14.8174 37.3873 7.03174H37.3807Z" fill="white"/>
</g>
<path d="M142.69 35.5001L145.41 28.0332L145.462 30.2301L139.303 15.1001H142.585L146.953 26.2939H146.116L150.366 15.1001H153.517L145.645 35.5001H142.69Z" fill="white"/>
<path d="M138.179 29.2229C137.247 29.3973 136.331 29.4714 135.433 29.4452C134.544 29.4278 133.746 29.2665 133.04 28.9614C132.334 28.6475 131.798 28.155 131.432 27.4837C131.109 26.8734 130.939 26.2501 130.922 25.6137C130.904 24.9773 130.896 24.258 130.896 23.456V11.1768H134.034V23.2729C134.034 23.8396 134.038 24.3365 134.047 24.7637C134.065 25.1909 134.156 25.5396 134.322 25.8098C134.636 26.3329 135.137 26.625 135.826 26.686C136.514 26.747 137.299 26.7121 138.179 26.5814V29.2229ZM128.333 17.5714V15.0998H138.179V17.5714H128.333Z" fill="white"/>
<path d="M122.833 12.9554V10.0654H125.985V12.9554H122.833ZM122.833 29.2231V15.1H125.985V29.2231H122.833Z" fill="white"/>
<path d="M114.044 29.6152C112.588 29.6152 111.345 29.2926 110.317 28.6475C109.288 27.9937 108.499 27.1044 107.95 25.9798C107.409 24.8552 107.135 23.5824 107.126 22.1614C107.135 20.7142 107.418 19.4326 107.976 18.3168C108.543 17.1921 109.345 16.3116 110.382 15.6752C111.42 15.0301 112.653 14.7075 114.083 14.7075C115.687 14.7075 117.043 15.1129 118.15 15.9237C119.266 16.7257 119.994 17.8242 120.334 19.2191L117.195 20.0691C116.951 19.3106 116.546 18.7221 115.979 18.3037C115.412 17.8765 114.767 17.6629 114.044 17.6629C113.224 17.6629 112.549 17.8591 112.017 18.2514C111.485 18.635 111.093 19.1668 110.84 19.8468C110.587 20.5268 110.461 21.2983 110.461 22.1614C110.461 23.5039 110.761 24.5893 111.363 25.4175C111.964 26.2457 112.858 26.6598 114.044 26.6598C114.881 26.6598 115.539 26.468 116.018 26.0844C116.506 25.7009 116.873 25.1473 117.117 24.4237L120.334 25.1429C119.898 26.5814 119.135 27.6885 118.045 28.4644C116.955 29.2316 115.622 29.6152 114.044 29.6152Z" fill="white"/>
<path d="M97.9813 29.6152C96.569 29.6152 95.3354 29.297 94.2805 28.6606C93.2257 28.0242 92.4062 27.148 91.8221 26.0321C91.2467 24.9075 90.959 23.6173 90.959 22.1614C90.959 20.6793 91.2554 19.3803 91.8482 18.2644C92.441 17.1485 93.2649 16.2767 94.3198 15.6491C95.3746 15.0214 96.5951 14.7075 97.9813 14.7075C99.4023 14.7075 100.64 15.0257 101.695 15.6621C102.75 16.2985 103.57 17.1791 104.154 18.3037C104.738 19.4196 105.03 20.7055 105.03 22.1614C105.03 23.626 104.733 24.9206 104.141 26.0452C103.556 27.1611 102.737 28.0373 101.682 28.6737C100.627 29.3014 99.3936 29.6152 97.9813 29.6152ZM97.9813 26.6598C99.2367 26.6598 100.169 26.2414 100.78 25.4044C101.39 24.5675 101.695 23.4865 101.695 22.1614C101.695 20.7926 101.386 19.7029 100.767 18.8921C100.148 18.0726 99.2192 17.6629 97.9813 17.6629C97.1357 17.6629 96.4382 17.8547 95.889 18.2383C95.3485 18.6132 94.9474 19.1406 94.6859 19.8206C94.4244 20.4919 94.2936 21.2721 94.2936 22.1614C94.2936 23.5301 94.6031 24.6242 95.2221 25.4437C95.8498 26.2544 96.7695 26.6598 97.9813 26.6598Z" fill="white"/>
<path d="M84.6748 29.2231V10H87.8263V29.2231H84.6748Z" fill="white"/>
<path d="M75.1009 29.6152C73.6711 29.6152 72.4158 29.3057 71.3347 28.6868C70.2537 28.0678 69.4081 27.2091 68.7978 26.1106C68.1963 25.0121 67.8955 23.748 67.8955 22.3183C67.8955 20.7752 68.1919 19.437 68.7847 18.3037C69.3776 17.1616 70.2014 16.2767 71.2563 15.6491C72.3111 15.0214 73.5317 14.7075 74.9178 14.7075C76.3824 14.7075 77.6247 15.0519 78.6447 15.7406C79.6735 16.4206 80.4363 17.3839 80.9332 18.6306C81.4301 19.8773 81.6176 21.3462 81.4955 23.0375H78.3701V21.8867C78.3614 20.3524 78.0912 19.2321 77.5594 18.526C77.0276 17.8198 76.1906 17.4668 75.0486 17.4668C73.7583 17.4668 72.7994 17.8678 72.1717 18.6698C71.544 19.4632 71.2301 20.627 71.2301 22.1614C71.2301 23.5911 71.544 24.6983 72.1717 25.4829C72.7994 26.2675 73.7147 26.6598 74.9178 26.6598C75.6937 26.6598 76.3606 26.4898 76.9186 26.1498C77.4853 25.8011 77.9211 25.2998 78.2263 24.646L81.3386 25.5875C80.7981 26.8603 79.9611 27.8498 78.8278 28.556C77.7032 29.2621 76.4609 29.6152 75.1009 29.6152ZM70.2363 23.0375V20.6575H79.9524V23.0375H70.2363Z" fill="white"/>
<path d="M57.7201 29.2229L51.7832 10.3921H55.0263L59.9955 26.1629L65.0301 10.3921H68.2732L62.3363 29.2229H57.7201Z" fill="white"/>
<defs>
<clipPath id="clip0_29928_366">
<rect width="43.7705" height="40" fill="white"/>
</clipPath>
</defs>
</svg>
