<svg width="162" height="188" viewBox="0 0 162 188" fill="none" xmlns="http://www.w3.org/2000/svg">
<path opacity="0.2" d="M81.1005 1L161 47.5V140.5L81.1005 187M81.1005 1L1.20092 47.5V140.5L81.1005 187M81.1005 1L81.0091 78.0896M81.1005 187L80.8995 93.9643M81.0091 78.0896L160.909 124.59L81.0091 171.09L1.10956 124.59L81.0091 78.0896ZM80.8995 93.9643L1 47.4643M80.8995 93.9643L160.799 47.4643M81.0091 60.0781L160.909 106.578L81.0091 153.078L1.10956 106.578L81.0091 60.0781ZM81.0091 40.8657L160.909 87.3657L81.0091 133.866L1.10956 87.3657L81.0091 40.8657ZM81.0091 20.8125L160.909 67.3125L81.0091 113.813L1.10956 67.3125L81.0091 20.8125Z" stroke="#9B9B9B" stroke-width="2" stroke-linecap="round" stroke-linejoin="round"/>
</svg>
